<svg xmlns="http://www.w3.org/2000/svg" viewBox="0 0 16 16" fill="none" aria-hidden="true" width="16" height="16"><g><path d="M13.8799 2.1204C7.28348 0.999676 1.38084 7.7436 2.02176 13.9497C8.24301 14.5891 15.0033 8.7008 13.8799 2.1204Z" stroke="currentColor" stroke-linecap="round" stroke-linejoin="round"/><path d="M4.63931 11.3307H4.6453" stroke="currentColor" stroke-linecap="round" stroke-linejoin="round"/><path d="M11.306 4.66408H11.312" stroke="currentColor" stroke-linecap="round" stroke-linejoin="round"/><path d="M6.33054 9.65206C5.86899 9.19166 5.86899 8.44519 6.33054 7.98479L7.9766 6.34271C8.43814 5.88229 9.1864 5.88229 9.64794 6.34271C10.1095 6.80313 10.1095 7.54959 9.64794 8.00999L8.00187 9.65206C7.54033 10.1125 6.79207 10.1125 6.33054 9.65206Z" stroke="currentColor" stroke-linecap="round" stroke-linejoin="round"/><path d="M3.83879 3.78933C3.92033 2.19506 3.48158 1.55326 3.06913 1.37206C2.83081 1.26735 2.57151 1.39997 2.36134 1.55336C1.96583 1.842 1.7485 2.05678 1.49071 2.45335C1.35923 2.65561 1.27528 2.9071 1.37964 3.12452C1.7296 3.85366 3.1233 3.95984 3.83879 3.78933ZM3.83879 3.78933L12.16 12.2117M12.16 12.2117C12.0795 13.8061 12.5187 14.4476 12.9312 14.6285C13.1696 14.7331 13.4288 14.6003 13.6389 14.4468C14.0342 14.1579 14.2514 13.943 14.5089 13.5463C14.6403 13.3439 14.7241 13.0923 14.6196 12.875C14.2691 12.1461 12.8754 12.0408 12.16 12.2117Z" stroke="currentColor" stroke-linecap="round" stroke-linejoin="round"/></g></svg>