<svg xmlns="http://www.w3.org/2000/svg" viewBox="0 0 16 14" fill="none" aria-hidden="true" width="16" height="16"><path d="M8.004 5.48828C6.20448 5.48828 3.95508 8.18756 3.95508 10.6619C3.95508 11.1988 4.16837 11.7138 4.54803 12.0934C4.92769 12.4731 5.44262 12.6864 5.97954 12.6864C7.09794 12.6864 7.10424 12.0115 8.004 12.0115C8.90376 12.0115 8.91006 12.6864 10.0285 12.6864C10.5654 12.6864 11.0803 12.4731 11.46 12.0934C11.8396 11.7138 12.0529 11.1988 12.0529 10.6619C12.0529 8.18756 9.80352 5.48828 8.004 5.48828Z" stroke="currentColor" stroke-linecap="round" stroke-linejoin="round"/><path d="M2.51568 4.16366C2.36112 4.13733 2.20266 4.14523 2.05148 4.18681C1.90031 4.22839 1.7601 4.30264 1.64075 4.40431C1.5214 4.50599 1.42581 4.63262 1.36073 4.77526C1.29566 4.91791 1.26267 5.0731 1.26411 5.22988C1.21684 5.56684 1.28917 5.90971 1.46851 6.19887C1.64786 6.48802 1.92288 6.70517 2.24575 6.81256C2.40031 6.83889 2.55877 6.83099 2.70994 6.78941C2.86112 6.74783 3.00133 6.67358 3.12068 6.57191C3.24003 6.47023 3.33562 6.3436 3.40069 6.20096C3.46577 6.05831 3.49875 5.90312 3.49732 5.74634C3.54459 5.40938 3.47226 5.06651 3.29291 4.77736C3.11357 4.4882 2.83855 4.27105 2.51568 4.16366Z" stroke="currentColor" stroke-linecap="round" stroke-linejoin="round"/><path d="M13.4912 4.16321C13.6456 4.13731 13.8037 4.14554 13.9546 4.18733C14.1054 4.22911 14.2453 4.30343 14.3643 4.40506C14.4834 4.50668 14.5787 4.63315 14.6436 4.77558C14.7085 4.918 14.7415 5.07291 14.7401 5.22942C14.7875 5.56604 14.7156 5.90864 14.5367 6.19774C14.3579 6.48685 14.0835 6.70421 13.7611 6.8121C13.6068 6.838 13.4486 6.82976 13.2978 6.78798C13.1469 6.7462 13.0071 6.67188 12.8881 6.57025C12.769 6.46862 12.6737 6.34215 12.6088 6.19973C12.5438 6.05731 12.5109 5.9024 12.5123 5.74588C12.4649 5.40927 12.5368 5.06667 12.7156 4.77756C12.8944 4.48846 13.1689 4.27109 13.4912 4.16321Z" stroke="currentColor" stroke-linecap="round" stroke-linejoin="round"/><path d="M5.88786 1.01477C5.7335 0.988873 5.57534 0.997106 5.4245 1.03889C5.27366 1.08067 5.1338 1.15499 5.01477 1.25662C4.89573 1.35825 4.8004 1.48472 4.73548 1.62714C4.67056 1.76956 4.63762 1.92447 4.63899 2.08098C4.59188 2.41829 4.66459 2.76143 4.84446 3.05064C5.02433 3.33984 5.29996 3.55678 5.62333 3.66366C5.77769 3.68956 5.93585 3.68133 6.08669 3.63954C6.23753 3.59776 6.37739 3.52344 6.49642 3.42181C6.61546 3.32019 6.71079 3.19371 6.77571 3.05129C6.84063 2.90887 6.87357 2.75396 6.8722 2.59745C6.91931 2.26014 6.8466 1.917 6.66673 1.62779C6.48686 1.33859 6.21123 1.12165 5.88786 1.01477Z" stroke="currentColor" stroke-linecap="round" stroke-linejoin="round"/><path d="M10.1214 1.01477C10.2757 0.988873 10.4339 0.997106 10.5847 1.03889C10.7356 1.08067 10.8754 1.15499 10.9945 1.25662C11.1135 1.35825 11.2088 1.48472 11.2738 1.62714C11.3387 1.76956 11.3716 1.92447 11.3702 2.08098C11.4174 2.41829 11.3446 2.76143 11.1648 3.05064C10.9849 3.33984 10.7093 3.55678 10.3859 3.66366C10.2315 3.68956 10.0734 3.68133 9.92254 3.63954C9.7717 3.59776 9.63185 3.52344 9.51281 3.42181C9.39377 3.32019 9.29844 3.19371 9.23352 3.05129C9.1686 2.90887 9.13567 2.75396 9.13704 2.59745C9.08992 2.26014 9.16264 1.917 9.34251 1.62779C9.52238 1.33859 9.798 1.12165 10.1214 1.01477Z" stroke="currentColor" stroke-linecap="round" stroke-linejoin="round"/></svg>