<svg xmlns="http://www.w3.org/2000/svg" viewBox="0 0 16 16" fill="none" aria-hidden="true" width="16" height="16"><path d="M4.48971 1.90242C4.75556 2.46094 4.51803 3.12934 3.95919 3.39534C3.40034 3.66134 2.7318 3.4242 2.46596 2.86568C2.20012 2.30716 2.43764 1.63876 2.99649 1.37276C3.55533 1.10677 4.22387 1.3439 4.48971 1.90242Z" stroke="currentColor"/><path d="M7.36667 2.7479C6.72631 3.81102 6.07913 4.80321 4.74899 5.04509M4.74899 5.04509L3.37532 5.082C3.05885 5.0905 2.82985 5.38725 2.90185 5.69553L3.60844 8.72107C3.6683 8.97738 3.92915 9.13263 4.183 9.06302L5.27932 8.76237M4.74899 5.04509L5.27932 8.76237M9.5 10.5C8.75368 8.85896 6.80589 8.31999 5.27932 8.76237" stroke="currentColor" stroke-linecap="round" stroke-linejoin="round"/><path d="M6.07599 13.1657C6.36498 12.0411 5.98647 10.7476 4.86628 10.1696" stroke="currentColor" stroke-linecap="round"/><path d="M8.91397 14.2323H13.2735C13.9142 14.2323 14.4335 13.7129 14.4335 13.0723V2.71225C14.4335 1.59748 14.0144 1.12443 13.3455 2.01625L11.3055 4.40292C11.1549 4.60371 11.0735 4.84793 11.0735 5.09892V8.1191C11.0735 8.41407 10.9612 8.69668 10.7615 8.91059C10.7183 8.9569 10.6741 9.0024 10.6348 9.05208L8.19272 12.1393C8.15342 12.189 8.10919 12.2345 8.06566 12.2806C7.38033 13.0053 7.88593 14.2323 8.91397 14.2323Z" stroke="currentColor" stroke-linecap="round" stroke-linejoin="round"/><path d="M8 2L0.999999 11" stroke="currentColor" stroke-linecap="round"/></svg>