<svg xmlns="http://www.w3.org/2000/svg" viewBox="0 0 12 15" fill="none" aria-hidden="true" width="16" height="16"><path d="M10.8265 12.7933L9.99431 14.4884H2.0057L1.17355 12.7933M10.8265 12.7933H8.75001M10.8265 12.7933C11.3521 11.7226 11.6149 11.1873 11.4521 10.7004C11.4367 10.6541 11.4185 10.6087 11.3977 10.5644C11.1792 10.0984 10.6123 9.87389 9.47862 9.42484L7.51319 8.64639C6.76636 8.35058 6.39298 8.20267 6.00001 8.20267C5.60703 8.20267 5.23365 8.35058 4.48679 8.64639L2.52142 9.42484C1.3877 9.87389 0.820843 10.0984 0.602287 10.5644C0.581517 10.6087 0.563354 10.6541 0.547885 10.7004C0.38514 11.1873 0.647944 11.7226 1.17355 12.7933M1.17355 12.7933H3.25" stroke="currentColor" stroke-linecap="round" stroke-linejoin="round"/><path d="M9.98014 9.25028V8.62171C9.98014 7.43646 9.98014 6.84384 9.59146 6.47563C9.20279 6.10742 8.57725 6.10742 7.32617 6.10742H4.6722C3.42111 6.10742 2.79556 6.10742 2.4069 6.47563C2.01823 6.84384 2.01823 7.43646 2.01823 8.62171V9.25028" stroke="currentColor" stroke-linecap="round" stroke-linejoin="round"/><path d="M4.98835 3.44513C4.54755 3.91709 3.81532 3.93382 3.34648 3.49593C2.87767 3.05807 2.84044 2.32269 3.28124 1.85073C3.722 1.37881 4.46289 1.36079 4.9317 1.79865C5.40055 2.23654 5.42911 2.97321 4.98835 3.44513Z" stroke="currentColor"/><path d="M5.56467 2.61082L7.0081 2.57909M7.0081 2.57909L8.02431 2.56394C8.2448 2.57404 8.72016 2.55939 8.75132 3.11389L8.82314 4.2743M7.0081 2.57909L7.07113 3.73562" stroke="currentColor" stroke-linecap="round"/></svg>