<svg xmlns="http://www.w3.org/2000/svg" viewBox="0 0 17 12" fill="none" aria-hidden="true" width="16" height="16"><path d="M11.593 4.69934C11.3245 5.11749 10.7677 5.23874 10.3493 4.97013C9.9309 4.70149 9.80938 4.14478 10.0778 3.72663C10.3463 3.30848 10.9031 3.18723 11.3215 3.45587C11.7399 3.72448 11.8614 4.28118 11.593 4.69934Z" stroke="currentColor"/><path d="M14.7269 4.99082C13.8628 5.80401 12.4457 6.94605 9.95527 6.03115C8.01037 5.31666 7.83397 3.82501 8.013 2.25446" stroke="currentColor" stroke-linecap="round" stroke-linejoin="round"/><path d="M9.07106 5.80405C9.30099 5.84786 6.04134 11.1715 1.3905 9.32825M11.0771 6.408C11.2145 6.84377 8.09388 11.9644 1.65357 6.17168" stroke="currentColor" stroke-linecap="round" stroke-linejoin="round"/><path d="M7 6L6.29999 7.29999L7.59999 5.89999L7 6Z" stroke="currentColor" stroke-linecap="round" stroke-linejoin="round"/></svg>