<svg xmlns="http://www.w3.org/2000/svg" viewBox="0 0 16 16" fill="none" aria-hidden="true" width="16" height="16"><path d="M6.85742 11.084H9.13542" stroke="currentColor" stroke-linecap="round" stroke-linejoin="round"/><path d="M2.87109 12.4434V13.9259C2.87109 14.1207 2.99492 14.2988 3.19095 14.3859C3.31815 14.4425 3.43964 14.501 3.58633 14.501H4.4704C4.61709 14.501 4.73858 14.4425 4.86578 14.3859C5.06181 14.2988 5.18564 14.1207 5.18564 13.9259V12.9578" stroke="currentColor" stroke-linecap="round" stroke-linejoin="round"/><path d="M10.8418 12.9578V13.9259C10.8418 14.1207 10.9657 14.2988 11.1617 14.3859C11.2889 14.4425 11.4104 14.501 11.557 14.501H12.4411C12.5878 14.501 12.7093 14.4425 12.8365 14.3859C13.0325 14.2988 13.1563 14.1207 13.1563 13.9259V12.4434" stroke="currentColor" stroke-linecap="round" stroke-linejoin="round"/><path d="M12.127 8.07165L12.6413 7.81445" stroke="currentColor" stroke-linecap="round" stroke-linejoin="round"/><path d="M3.89716 8.07165L3.38281 7.81445" stroke="currentColor" stroke-linecap="round" stroke-linejoin="round"/><path d="M4.1582 8.58641L4.71796 6.90694C4.94428 6.2279 5.05744 5.88839 5.32684 5.6942C5.59624 5.5 5.95408 5.5 6.66976 5.5H9.36182C10.0775 5.5 10.4353 5.5 10.7047 5.6942C10.9741 5.88839 11.0873 6.2279 11.3136 6.90694L11.8734 8.58641" stroke="currentColor" stroke-linejoin="round"/><path d="M4.15695 8.58594H11.8721C12.3644 9.07832 13.158 9.76402 13.158 10.529V12.2151C13.158 12.4923 12.9628 12.7255 12.7037 12.7579L11.1006 12.9584H4.92847L3.32534 12.7579C3.06631 12.7255 2.87109 12.4923 2.87109 12.2151V10.529C2.87109 9.76402 3.66462 9.07832 4.15695 8.58594Z" stroke="currentColor" stroke-linejoin="round"/><path d="M6.86694 3.31778C6.44917 3.76508 5.75519 3.78094 5.31083 3.36592C4.86651 2.95094 4.83123 2.25397 5.249 1.80667C5.66674 1.3594 6.36893 1.34232 6.81325 1.7573C7.2576 2.17232 7.28468 2.87051 6.86694 3.31778Z" stroke="currentColor"/><path d="M7.41522 2.5276L8.78325 2.49753M8.78325 2.49753L9.74638 2.48317C9.95534 2.49275 10.4059 2.47886 10.4354 3.00439L10.5035 4.10418M8.78325 2.49753L8.84298 3.59364" stroke="currentColor" stroke-linecap="round"/></svg>