<svg xmlns="http://www.w3.org/2000/svg" viewBox="0 0 14 14" fill="none" aria-hidden="true" width="16" height="16"><path d="M10.25 13.5H3.75" stroke="currentColor" stroke-linecap="round" stroke-linejoin="round"/><path d="M0.5 7L0.5 8.89583M0.5 8.89583V10.4306C0.5 11.8775 0.5 12.601 0.923071 13.0505C1.34613 13.5 2.02705 13.5 3.38889 13.5H4.11111C4.11111 12.4391 3.82222 9.94508 2.66667 8.45557M0.5 8.89583C1.32907 8.84037 2.04629 8.68588 2.66667 8.45557M2.66667 8.45557C5.46943 7.41521 7.00007 3.54378 7 0.5" stroke="currentColor" stroke-linecap="round" stroke-linejoin="round"/><path d="M13.5 5.91667V8.89583M13.5 8.89583V10.4306C13.5 11.8775 13.5 12.601 13.0769 13.0505C12.6538 13.5 11.9729 13.5 10.6111 13.5H9.88889C9.88889 12.4391 10.1778 9.94508 11.3333 8.45557M13.5 8.89583C12.671 8.84037 11.9537 8.68588 11.3333 8.45557M11.3333 8.45557C8.53053 7.41521 6.99993 3.54378 7 0.5" stroke="currentColor" stroke-linecap="round" stroke-linejoin="round"/><path d="M13.5 8.89583V3.5C13.5 1.84315 12.1569 0.5 10.5 0.5H7M13.5 8.89583V10.4306C13.5 11.8775 13.5 12.601 13.0769 13.0505C12.6538 13.5 11.9729 13.5 10.6111 13.5H9.88889C9.88889 12.4391 10.1778 9.94508 11.3333 8.45557M13.5 8.89583C12.671 8.84037 11.9537 8.68588 11.3333 8.45557M11.3333 8.45557C8.53053 7.41521 6.99993 3.54378 7 0.5M7 0.5H3.5C1.84315 0.5 0.5 1.84315 0.5 3.5V8.08333" stroke="currentColor" stroke-linecap="round" stroke-linejoin="round"/></svg>