<svg xmlns="http://www.w3.org/2000/svg" viewBox="0 0 16 16" fill="none" aria-hidden="true" width="16" height="16"><path d="M6.67214 6.73701L2.76274 4.31678C2.41556 4.09843 2.40183 3.87467 2.67023 3.60583C3.17479 3.10046 3.63743 2.96644 4.35938 3.14319L7.9822 4.03019C8.24013 4.09332 8.49414 4.15932 8.74386 4.16554" stroke="currentColor" stroke-linecap="round" stroke-linejoin="round"/><path d="M9.00097 8.98674L11.5343 13.0057C11.7412 13.3338 11.954 13.3464 12.2101 13.0918C12.6917 12.613 12.8201 12.1748 12.6536 11.4917L11.8178 8.06399C11.7062 7.60615 11.585 7.16129 11.8475 6.73102" stroke="currentColor" stroke-linecap="round" stroke-linejoin="round"/><path d="M5.85302 7.98204L6.83022 6.76862L9.12164 3.92934L9.12366 3.92683L9.12754 3.92199C9.18158 3.85478 9.9878 2.85593 10.4894 2.45472C11.1058 1.96161 11.7946 1.92952 12.5469 1.93746C12.9361 1.94155 13.1307 1.94361 13.2866 2.00292C13.534 2.09706 13.7305 2.29128 13.8257 2.5358C13.8857 2.6899 13.8878 2.88225 13.8919 3.26692C13.9 4.01067 13.8676 4.69153 13.3687 5.30093C12.9629 5.79681 11.9523 6.59394 11.8845 6.64723L11.8796 6.65101L11.8771 6.65301L9.0049 8.9183L7.77743 9.88431C7.33238 10.2346 7.10985 10.4097 6.99241 10.6555C6.71732 11.2312 6.88787 12.094 6.89463 12.7172C6.89835 13.0616 6.59496 13.7415 6.1688 13.7658C5.9057 13.7808 5.81732 13.4701 5.73301 13.2795L4.92118 11.4443C4.72703 11.0053 4.71905 10.9975 4.27506 10.8056L2.4185 10.0032C2.22565 9.91976 1.91133 9.8324 1.92652 9.57234C1.95112 9.15109 2.63885 8.85114 2.98727 8.85482C3.61772 8.86147 4.49051 9.03006 5.07287 8.75806C5.32153 8.64195 5.49871 8.422 5.85302 7.98204Z" stroke="currentColor" stroke-linecap="round" stroke-linejoin="round"/></svg>