<svg xmlns="http://www.w3.org/2000/svg" viewBox="0 0 16 16" fill="none" aria-hidden="true" width="16" height="16"><path d="M14.6667 7.99998C14.6667 11.6819 11.6819 14.6666 8.00001 14.6666C4.31811 14.6666 1.33334 11.6819 1.33334 7.99998C1.33334 4.31808 4.31811 1.33331 8.00001 1.33331C11.6819 1.33331 14.6667 4.31808 14.6667 7.99998Z" stroke="currentColor"/><path d="M8.00001 14.6667C8.00001 14.5424 7.99661 14.419 7.9899 14.2964M1.33334 8C1.47081 8 1.60731 8.00416 1.74271 8.01236M3.5602 8.38099C3.78314 8.45997 4.00062 8.55048 4.21194 8.65179M5.7905 9.70895C5.96376 9.86482 6.12881 10.0296 6.28492 10.2027M7.36111 11.8151C7.45403 12.0112 7.53766 12.2125 7.61145 12.4185" stroke="currentColor" stroke-linecap="round" stroke-linejoin="round"/><path d="M8.00002 1.33333C8.00002 1.45757 8.00342 1.58101 8.01013 1.70357M14.6667 8C14.5292 8 14.3927 7.99584 14.2573 7.98764M12.4398 7.61901C12.2169 7.54003 11.9994 7.44952 11.7881 7.34821M10.2095 6.29105C10.0363 6.13518 9.87122 5.97036 9.71511 5.79731M8.63892 4.18488C8.546 3.98881 8.46237 3.78748 8.38858 3.58147" stroke="currentColor" stroke-linecap="round" stroke-linejoin="round"/></svg>