<svg xmlns="http://www.w3.org/2000/svg" viewBox="0 0 14 16" fill="none" aria-label="Travel Services" aria-hidden="false" width="18" height="18"><path d="M10.2866 7.74967C10.2866 7.10932 9.99832 6.4814 9.41567 6.21579C8.70499 5.89183 7.85266 5.70312 6.93627 5.70312C6.01988 5.70312 5.16755 5.89183 4.45686 6.21579C3.87421 6.4814 3.58594 7.10932 3.58594 7.74967" stroke="currentColor" stroke-linecap="round" stroke-linejoin="round"/><path d="M7.01051 3.98985C7.76708 3.98985 8.3804 3.37651 8.3804 2.61992C8.3804 1.86334 7.76708 1.25 7.01051 1.25C6.25394 1.25 5.64062 1.86334 5.64062 2.61992C5.64062 3.37651 6.25394 3.98985 7.01051 3.98985Z" stroke="currentColor" stroke-linecap="round" stroke-linejoin="round"/><path d="M1.19336 9.27344H12.8065" stroke="currentColor" stroke-linecap="round"/><path d="M2.64648 9.27344H11.3564V12.7645C11.3564 13.8334 10.4898 14.7 9.42081 14.7H4.58203C3.51306 14.7 2.64648 13.8334 2.64648 12.7645V9.27344Z" stroke="currentColor"/></svg>