<svg xmlns="http://www.w3.org/2000/svg" viewBox="0 0 12 14" fill="none" aria-hidden="true" width="16" height="16"><path d="M6.31489 5.38048L6.04282 2.81667C5.92531 1.70932 5.86654 1.15564 5.63384 0.827818C5.40114 0.5 5.06688 0.5 4.39837 0.5H2.60173C1.93319 0.5 1.59893 0.5 1.36623 0.827818C1.13353 1.15564 1.07477 1.70932 0.957248 2.81667L0.685168 5.38048C0.441232 7.67895 0.432099 8.54502 0.69484 9.58307C0.957581 10.6211 1.76424 13.5 3.1519 13.5H3.84818C5.23586 13.5 6.04268 10.8656 6.30523 9.58307C6.56779 8.30058 6.55884 7.67895 6.31489 5.38048Z" stroke="currentColor" stroke-linecap="round"/><path d="M6.2 5C6.7007 8 5.2995 9 3.52014 9C1.74078 9 0.599908 8 0.799909 5" stroke="currentColor" stroke-linecap="round" stroke-linejoin="round"/><path d="M1.5 1L6.5 6M5.5 1L0.5 6" stroke="currentColor"/><path d="M7.27723 0.501811C7.37581 0.5 7.48355 0.5 7.60173 0.5H9.39837C10.0669 0.5 10.4011 0.5 10.6338 0.827818C10.8665 1.15564 10.9253 1.70932 11.0428 2.81667L11.3149 5.38048C11.5588 7.67895 11.5678 8.30058 11.3052 9.58307C11.0427 10.8656 10.2359 13.5 8.84818 13.5H8.1519C7.7092 13.5 7.32564 13.207 7 12.7742" stroke="currentColor" stroke-linecap="round"/><path d="M11.2 5C11.7007 8 10.2995 9 8.52014 9C8.41491 9 8.31156 8.9965 8.21029 8.9893" stroke="currentColor" stroke-linecap="round" stroke-linejoin="round"/><path d="M11 5.5L7.60938 2.10938M10.5004 1L7.68752 4.28125" stroke="currentColor" stroke-linecap="round"/></svg>