<svg xmlns="http://www.w3.org/2000/svg" viewBox="0 0 16 16" fill="none" aria-hidden="true" width="16" height="16"><g><path d="M14.6667 7.99999C14.6667 11.6819 11.6819 14.6667 8 14.6667C4.3181 14.6667 1.33333 11.6819 1.33333 7.99999C1.33333 4.31809 4.3181 1.33333 8 1.33333C11.6819 1.33333 14.6667 4.31809 14.6667 7.99999Z" stroke="currentColor" stroke-linecap="round" stroke-linejoin="round"/><path d="M12.6667 9.33333C11 9.66666 9.66667 11 9.33333 12.6667" stroke="currentColor" stroke-linecap="round" stroke-linejoin="round"/><path d="M3.33333 9.33333C5 9.66666 6.33333 11 6.66667 12.6667" stroke="currentColor" stroke-linecap="round" stroke-linejoin="round"/><path d="M12.6667 7.33334C11.2565 6.90621 9.67313 6.66667 8 6.66667C6.32689 6.66667 4.74352 6.90621 3.33333 7.33334" stroke="currentColor" stroke-linecap="round" stroke-linejoin="round"/><path d="M8.006 9.33333H8" stroke="currentColor" stroke-width="2" stroke-linecap="round" stroke-linejoin="round"/></g></svg>