<svg xmlns="http://www.w3.org/2000/svg" viewBox="0 0 16 16" fill="none" aria-hidden="true" width="16" height="16"><path d="M4.64444 6.51779C4.36041 6.72708 4.2 6.96464 4.2 7.21646C4.2 8.05788 5.99086 8.74001 8.2 8.74001C10.4092 8.74001 12.2 8.05788 12.2 7.21646C12.2 6.96464 12.0396 6.72708 11.7556 6.51779" stroke="currentColor" stroke-linecap="round"/><path d="M12.2 7.40775C12.2 8.99735 11.086 10.3921 9.88671 11.1776C9.64009 11.3392 9.34684 11.4077 9.05204 11.4077H7.34795C7.05315 11.4077 6.75989 11.3392 6.51327 11.1776C5.31395 10.3921 4.2 8.99735 4.2 7.40775" stroke="currentColor" stroke-linecap="round"/><path d="M5.97742 5.77778V4" stroke="currentColor" stroke-linecap="round"/><path d="M8.20107 5.77778V4" stroke="currentColor" stroke-linecap="round"/><path d="M10.4222 5.77778V4" stroke="currentColor" stroke-linecap="round"/><path d="M1.5 7.66667C1.5 4.99537 1.5 3.65973 2.28105 2.82987C3.0621 2 4.31917 2 6.83333 2H9.5C12.0141 2 13.2713 2 14.0523 2.82987C14.8333 3.65973 14.8333 4.99537 14.8333 7.66667C14.8333 10.3379 14.8333 11.6736 14.0523 12.5035C13.2713 13.3333 12.0141 13.3333 9.5 13.3333H6.83333C4.31917 13.3333 3.0621 13.3333 2.28105 12.5035C1.5 11.6736 1.5 10.3379 1.5 7.66667Z" stroke="currentColor"/></svg>