<svg xmlns="http://www.w3.org/2000/svg" viewBox="0 0 16 13" fill="none" aria-hidden="true" width="16" height="16"><path d="M10.4856 10.2733H5.51392" stroke="currentColor" stroke-miterlimit="10"/><path d="M4.01145 12.1134C4.8587 12.1134 5.54554 11.4265 5.54554 10.5793C5.54554 9.73203 4.8587 9.0452 4.01145 9.0452C3.16419 9.0452 2.47736 9.73203 2.47736 10.5793C2.47736 11.4265 3.16419 12.1134 4.01145 12.1134Z" stroke="currentColor" stroke-miterlimit="10" stroke-linecap="square"/><path d="M11.9883 12.1136C12.8356 12.1136 13.5224 11.4268 13.5224 10.5795C13.5224 9.73225 12.8356 9.04541 11.9883 9.04541C11.1411 9.04541 10.4542 9.73225 10.4542 10.5795C10.4542 11.4268 11.1411 12.1136 11.9883 12.1136Z" stroke="currentColor" stroke-miterlimit="10" stroke-linecap="square"/><path d="M1.25 6.59119H14.75" stroke="currentColor" stroke-miterlimit="10"/><path d="M9.92859 1.20206L10.3578 6.59086" stroke="currentColor" stroke-miterlimit="10"/><path d="M13.3036 10.6038V10.6038C14.0791 10.6038 14.6861 9.93598 14.6122 9.164L14.184 4.69165C14.0253 3.03375 13.946 2.2048 13.3943 1.70343C12.8427 1.20206 12.0099 1.20206 10.3445 1.20206H5.10714C3.28887 1.20206 2.37973 1.20206 1.81487 1.76692C1.25 2.33179 1.25 3.24093 1.25 5.0592V9.15741C1.25 9.95625 1.89759 10.6038 2.69643 10.6038V10.6038" stroke="currentColor"/></svg>