<svg xmlns="http://www.w3.org/2000/svg" viewBox="0 0 14 14" fill="none" aria-hidden="true" width="16" height="16"><path d="M9.52832 10.9711C8.51753 8.08251 6.63974 0.5 4.83438 0.5C3.75117 0.5 3.24245 2.12619 2.10798 5.37859L0.863281 9.5268" stroke="currentColor" stroke-linejoin="round"/><path d="M11.6953 10.6122V3.5" stroke="currentColor" stroke-linecap="round" stroke-linejoin="round"/><path d="M11.6953 3.02862L13 4.5" stroke="currentColor" stroke-linecap="round" stroke-linejoin="round"/><path d="M11.7 3.02862L10.3953 4.5" stroke="currentColor" stroke-linecap="round" stroke-linejoin="round"/><path d="M11.6953 5.55597L13.5007 7.36133" stroke="currentColor" stroke-linecap="round" stroke-linejoin="round"/><path d="M11.694 5.55597L9.88867 7.36133" stroke="currentColor" stroke-linecap="round" stroke-linejoin="round"/><path d="M2.36926 9.52734H1.17158C0.801755 9.52734 0.501953 9.82715 0.501953 10.197V12.4159C0.501953 13.0142 0.986925 13.4991 1.58517 13.4991H12.0563C12.6545 13.4991 13.1395 13.0142 13.1395 12.4159V12.0548C13.1395 11.4566 12.6545 10.9716 12.0563 10.9716H5.85608C5.20218 10.9716 4.57505 10.7119 4.11267 10.2495C3.65029 9.78711 3.02317 9.52734 2.36926 9.52734Z" stroke="currentColor" stroke-linecap="round" stroke-linejoin="round"/><path d="M2.66797 3.75H3.7817C4.43479 3.75 5.04 4.09266 5.37601 4.65268V4.65268C5.71202 5.2127 6.31722 5.55536 6.97031 5.55536H7.72298" stroke="currentColor" stroke-linecap="round" stroke-linejoin="round"/></svg>