<svg xmlns="http://www.w3.org/2000/svg" viewBox="0 0 16 16" fill="none" aria-hidden="true" width="12" height="12"><path d="M1.33331 4L5.94199 6.61131C7.64105 7.574 8.35891 7.574 10.058 6.61131L14.6666 4" stroke="currentColor" stroke-linejoin="round"/><path d="M1.34383 8.98371C1.38741 11.0274 1.4092 12.0492 2.16329 12.8062C2.91737 13.5632 3.96687 13.5895 6.06587 13.6422C7.35951 13.6748 8.64045 13.6748 9.93411 13.6422C12.0331 13.5895 13.0826 13.5632 13.8367 12.8062C14.5908 12.0492 14.6126 11.0274 14.6561 8.98371C14.6702 8.32658 14.6702 7.67338 14.6561 7.01625C14.6126 4.97255 14.5908 3.95071 13.8367 3.19375C13.0826 2.4368 12.0331 2.41043 9.93411 2.35769C8.64045 2.32519 7.35951 2.32519 6.06586 2.35769C3.96687 2.41042 2.91737 2.43679 2.16328 3.19375C1.40919 3.9507 1.38741 4.97255 1.34382 7.01625C1.32981 7.67338 1.32981 8.32658 1.34383 8.98371Z" stroke="currentColor" stroke-linejoin="round"/></svg>