<svg xmlns="http://www.w3.org/2000/svg" viewBox="0 0 14 16" fill="none" aria-hidden="true" width="16" height="16"><path d="M11 1.33334V2.66668M3 1.33334V2.66668" stroke="currentColor" stroke-linecap="round" stroke-linejoin="round"/><path d="M0.666656 8.16213C0.666656 5.25729 0.666656 3.80485 1.5014 2.90243C2.33615 2 3.67965 2 6.36666 2H7.63332C10.3203 2 11.6639 2 12.4986 2.90243C13.3333 3.80485 13.3333 5.25729 13.3333 8.16213V8.50453C13.3333 11.4094 13.3333 12.8618 12.4986 13.7643C11.6639 14.6667 10.3203 14.6667 7.63332 14.6667H6.36666C3.67965 14.6667 2.33615 14.6667 1.5014 13.7643C0.666656 12.8618 0.666656 11.4094 0.666656 8.50453V8.16213Z" stroke="currentColor" stroke-linecap="round" stroke-linejoin="round"/><path d="M0.666656 8C0.666656 9.22727 1.66158 10.2222 2.88888 10.2222C3.33274 10.2222 3.85602 10.1445 4.28757 10.2601C4.671 10.3628 4.9705 10.6623 5.07324 11.0457C5.18888 11.4773 5.1111 12.0006 5.1111 12.4445C5.1111 13.6717 6.10606 14.6667 7.33332 14.6667" stroke="currentColor" stroke-linecap="round" stroke-linejoin="round"/><path d="M1 5.33334H13" stroke="currentColor" stroke-linecap="round" stroke-linejoin="round"/></svg>