<svg xmlns="http://www.w3.org/2000/svg" viewBox="0 0 16 16" fill="none" aria-hidden="true" width="16" height="16"><path d="M3.98766 7.49685C3.92964 9.31185 6.06838 11.549 8.07367 12.2522M3.98766 7.49685C3.78462 7.84531 1.71075 9.50785 1.67449 10.2121C1.49878 11.6106 3.87482 14.238 5.70684 14.3276C6.39098 14.4247 7.33994 13.2734 8.30187 12.4181C8.83167 11.947 9.5952 11.838 12.6515 11.0796C13.7605 10.8868 15.0929 8.97378 13.1177 7.35218M3.98766 7.49685C4.60647 6.02941 5.67626 3.19254 7.77427 2.07227C8.62627 1.58818 10.8392 1.14246 13.0076 3.20393C13.7536 3.83133 15.0467 5.20563 13.8431 6.78905C13.0407 7.72425 11.8273 7.45351 11.7095 9.07091" stroke="currentColor" stroke-linecap="round" stroke-linejoin="round"/></svg>