<svg xmlns="http://www.w3.org/2000/svg" viewBox="0 0 14 14" fill="none" aria-hidden="true" width="16" height="16"><path d="M10.3222 1.01408V13.093M3.67877 1.01408V13.093" stroke="currentColor" stroke-linecap="round" stroke-linejoin="round"/><path d="M0.96109 6.64947H13.04" stroke="currentColor" stroke-linecap="round" stroke-linejoin="round"/><path d="M10.624 3.62981L13.0398 3.62981" stroke="currentColor" stroke-linecap="round" stroke-linejoin="round"/><path d="M0.96109 3.62981L3.37688 3.62981" stroke="currentColor" stroke-linecap="round" stroke-linejoin="round"/><path d="M10.624 9.66912L13.0398 9.66912" stroke="currentColor" stroke-linecap="round" stroke-linejoin="round"/><path d="M0.96109 9.66912L3.37688 9.66912" stroke="currentColor" stroke-linecap="round" stroke-linejoin="round"/><path d="M0.625793 6.81283C0.625793 3.88888 0.625793 2.42688 1.46603 1.51852C2.30627 0.610157 3.65861 0.610157 6.36329 0.610157H7.63829C10.343 0.610157 11.6953 0.610157 12.5356 1.51852C13.3758 2.42688 13.3758 3.88888 13.3758 6.81283V7.15748C13.3758 10.0815 13.3758 11.5434 12.5356 12.4518C11.6953 13.3602 10.343 13.3602 7.63829 13.3602H6.36329C3.65861 13.3602 2.30627 13.3602 1.46603 12.4518C0.625793 11.5434 0.625793 10.0815 0.625793 7.15748V6.81283Z" stroke="currentColor" stroke-linecap="round" stroke-linejoin="round"/></svg>