<svg xmlns="http://www.w3.org/2000/svg" viewBox="0 0 16 16" fill="none" aria-hidden="true" width="16" height="16"><path d="M10.3333 10L9.33333 7C8.2288 6.99993 8 7.89533 8 8.99993V10" stroke="currentColor" stroke-linecap="round" stroke-linejoin="round"/><path d="M5.66666 10L6.66666 7C7.77119 6.99993 7.99999 7.89533 7.99999 8.99993V10" stroke="currentColor" stroke-linecap="round" stroke-linejoin="round"/><path d="M14.5 14.6666C13.7336 14.2196 12.5945 13.2095 10.8591 13.3387C10.4195 13.3713 10.1994 13.3877 9.9984 13.3723C9.79733 13.3568 9.79167 13.3555 9.7804 13.3529C8.75933 13.1163 8 12.2238 8 11.1588V2.1311C8 1.69052 8.35713 1.33335 8.79773 1.33333C9.12167 1.33331 9.41347 1.52921 9.53613 1.82904L11.3483 6.25866C11.7254 7.18071 12.177 7.98386 12.5177 8.53445C12.837 9.05043 13.3403 9.41571 13.9142 9.6128L14.5 9.814" stroke="currentColor" stroke-linecap="round" stroke-linejoin="round"/><path d="M1.5 14.5C2.26643 14.053 3.40547 13.2096 5.14085 13.3387C5.58054 13.3713 5.80063 13.3877 6.00163 13.3723C6.20267 13.3569 6.20831 13.3555 6.21959 13.3529C7.24067 13.1164 8 12.2238 8 11.1588V2.13109C8 1.6905 7.6428 1.33333 7.20227 1.33333C6.87833 1.33333 6.58653 1.52921 6.46388 1.82903L4.65175 6.25869C4.23878 7.26816 3.73662 8.13514 3.38848 8.6842C3.12287 9.10311 2.7319 9.42074 2.28302 9.63181L1.5 10" stroke="currentColor" stroke-linecap="round" stroke-linejoin="round"/><path d="M14.5 8.5V15" stroke="currentColor" stroke-linecap="round" stroke-linejoin="round"/><path d="M1.5 8.5V15" stroke="currentColor" stroke-linecap="round" stroke-linejoin="round"/></svg>