<svg xmlns="http://www.w3.org/2000/svg" viewBox="0 0 16 16" fill="none" aria-hidden="true" width="16" height="16"><g><path d="M14.6667 8C14.6667 11.6819 11.6819 14.6667 8 14.6667C4.3181 14.6667 1.33333 11.6819 1.33333 8C1.33333 4.3181 4.3181 1.33333 8 1.33333C11.6819 1.33333 14.6667 4.3181 14.6667 8Z" stroke="currentColor"/><path d="M4.33333 10.6598C4.59932 11.0433 4.92129 11.3831 5.28702 11.6667M10.6841 4.33333C11.0631 4.62719 11.3952 4.98145 11.6667 5.38214" stroke="currentColor" stroke-linecap="round"/><path d="M9.66667 8C9.66667 7.07953 8.92047 6.33333 8 6.33333C7.07953 6.33333 6.33333 7.07953 6.33333 8C6.33333 8.92047 7.07953 9.66667 8 9.66667C8.92047 9.66667 9.66667 8.92047 9.66667 8Z" stroke="currentColor"/></g></svg>