<svg xmlns="http://www.w3.org/2000/svg" viewBox="0 0 16 16" fill="none" aria-hidden="true" width="16" height="16"><g><path d="M9.33334 1.33334H6.66668C4.48052 1.33334 3.38745 1.33334 2.61262 1.87589C2.32595 2.07661 2.07661 2.32595 1.87589 2.61262C1.33334 3.38745 1.33334 4.48052 1.33334 6.66668C1.33334 8.85281 1.33334 9.94588 1.87589 10.7207C2.07661 11.0074 2.32595 11.2567 2.61262 11.4575C3.38745 12 4.48052 12 6.66668 12H9.33334C11.5195 12 12.6125 12 13.3874 11.4575C13.6741 11.2567 13.9234 11.0074 14.1241 10.7207C14.6667 9.94588 14.6667 8.85281 14.6667 6.66668C14.6667 4.48052 14.6667 3.38745 14.1241 2.61262C13.9234 2.32595 13.6741 2.07661 13.3874 1.87589C12.6125 1.33334 11.5195 1.33334 9.33334 1.33334Z" stroke="currentColor" stroke-linecap="round"/><path d="M7.33334 10H8.66668" stroke="currentColor" stroke-linecap="round" stroke-linejoin="round"/><path d="M9.66668 14.6667L9.45634 14.3874C8.98221 13.7579 8.86461 12.7963 9.16454 12M6.33334 14.6667L6.54368 14.3874C7.01781 13.7579 7.13541 12.7963 6.83548 12" stroke="currentColor" stroke-linecap="round"/><path d="M4.66666 14.6667H11.3333" stroke="currentColor" stroke-linecap="round"/></g></svg>