<svg xmlns="http://www.w3.org/2000/svg" xmlns:xlink="http://www.w3.org/1999/xlink" viewBox="0 0 1024 1024" width="1024" height="1024" preserveAspectRatio="xMidYMid meet" style="width: 100%; height: 100%; transform: translate3d(0px, 0px, 0px); content-visibility: visible;"><defs><clipPath id="__lottie_element_140"><rect width="1024" height="1024" x="0" y="0"/></clipPath><radialGradient id="__lottie_element_159" spreadMethod="pad" gradientUnits="userSpaceOnUse" cx="0" cy="0" r="56.224998474121094" fx="0" fy="0"><stop offset="48%" stop-color="rgb(253,224,48)"/><stop offset="69%" stop-color="rgb(250,208,45)"/><stop offset="90%" stop-color="rgb(247,192,43)"/><stop offset="97%" stop-color="rgb(246,177,39)"/><stop offset="100%" stop-color="rgb(244,162,35)"/></radialGradient><symbol id="__lottie_element_155"><g><g transform="matrix(8,0,0,8,496,488)" opacity="1" style="display: block;"><g opacity="1" transform="matrix(1,0,0,1,0,0)"><path fill="url(#__lottie_element_162)" fill-opacity="1" d=" M0,55.900001525878906 C-27.899999618530273,55.900001525878906 -58,38.400001525878906 -58,0 C-58,-38.400001525878906 -27.899999618530273,-55.900001525878906 0,-55.900001525878906 C15.5,-55.900001525878906 29.799999237060547,-50.79999923706055 40.400001525878906,-41.5 C51.900001525878906,-31.299999237060547 58,-16.899999618530273 58,0 C58,16.899999618530273 51.900001525878906,31.200000762939453 40.400001525878906,41.400001525878906 C29.799999237060547,50.70000076293945 15.399999618530273,55.900001525878906 0,55.900001525878906z"/></g></g></g></symbol><radialGradient id="__lottie_element_162" spreadMethod="pad" gradientUnits="userSpaceOnUse" cx="0" cy="0" r="56.224998474121094" fx="0" fy="0"><stop offset="48%" stop-color="rgb(253,224,48)"/><stop offset="69%" stop-color="rgb(250,208,45)"/><stop offset="90%" stop-color="rgb(247,192,43)"/><stop offset="97%" stop-color="rgb(246,177,39)"/><stop offset="100%" stop-color="rgb(244,162,35)"/></radialGradient><filter id="__lottie_element_166" filterUnits="objectBoundingBox" x="0%" y="0%" width="100%" height="100%"><feComponentTransfer in="SourceGraphic"><feFuncA type="table" tableValues="1.0 0.0"/></feComponentTransfer></filter><mask id="__lottie_element_155_2" mask-type="alpha"><g filter="url(#__lottie_element_166)"><rect width="1024" height="1024" x="0" y="0" fill="#ffffff" opacity="0"/><use xmlns:ns1="http://www.w3.org/1999/xlink" ns1:href="#__lottie_element_155"/></g></mask></defs><g clip-path="url(#__lottie_element_140)"><g transform="matrix(8,0,0,8,512,512)" opacity="1" style="display: block;"><g opacity="1" transform="matrix(1,0,0,1,0,0)"><path fill="url(#__lottie_element_159)" fill-opacity="1" d=" M0,55.900001525878906 C-27.899999618530273,55.900001525878906 -58,38.400001525878906 -58,0 C-58,-38.400001525878906 -27.899999618530273,-55.900001525878906 0,-55.900001525878906 C15.5,-55.900001525878906 29.799999237060547,-50.79999923706055 40.400001525878906,-41.5 C51.900001525878906,-31.299999237060547 58,-16.899999618530273 58,0 C58,16.899999618530273 51.900001525878906,31.200000762939453 40.400001525878906,41.400001525878906 C29.799999237060547,50.70000076293945 15.399999618530273,55.900001525878906 0,55.900001525878906z"/></g></g><g mask="url(#__lottie_element_155_2)" style="display: block;"><g transform="matrix(8,0,0,8,512,512)" opacity="1"><g opacity="1" transform="matrix(1,0,0,1,0,0)"><path fill="rgb(235,143,0)" fill-opacity="1" d=" M0,55.900001525878906 C-27.899999618530273,55.900001525878906 -58,38.400001525878906 -58,0 C-58,-38.400001525878906 -27.899999618530273,-55.900001525878906 0,-55.900001525878906 C15.5,-55.900001525878906 29.799999237060547,-50.79999923706055 40.400001525878906,-41.5 C51.900001525878906,-31.299999237060547 58,-16.899999618530273 58,0 C58,16.899999618530273 51.900001525878906,31.200000762939453 40.400001525878906,41.400001525878906 C29.799999237060547,50.70000076293945 15.399999618530273,55.900001525878906 0,55.900001525878906z"/></g></g></g><g transform="matrix(1,0,0,1,512,698.8560180664062)" opacity="1" style="display: block;"><g opacity="1" transform="matrix(1,0,0,1,22,12)"><path fill="rgb(66,43,13)" fill-opacity="1" d=" M-22.000999450683594,49.599998474121094 C-114.08100128173828,49.599998474121094 -179.84100341796875,1.600000023841858 -199.6009979248047,-28.31999969482422 C-207.04100036621094,-38 -208.56100463867188,-50.959999084472656 -203.6009979248047,-62.08000183105469 C-199.84100341796875,-69.19999694824219 -192.4010009765625,-73.5999984741211 -184.3209991455078,-73.36000061035156 C-181.36099243164062,-73.36000061035156 -178.4010009765625,-72.87999725341797 -175.6009979248047,-72 C-125.76100158691406,-56.959999084472656 -74.0009994506836,-49.439998626708984 -22.000999450683594,-49.7599983215332 C29.999000549316406,-49.439998626708984 81.83999633789062,-56.959999084472656 131.60000610351562,-72 C134.39999389648438,-72.87999725341797 137.35899353027344,-73.36000061035156 140.31900024414062,-73.36000061035156 C148.3990020751953,-73.5999984741211 155.83999633789062,-69.19999694824219 159.60000610351562,-62.08000183105469 C164.55999755859375,-50.959999084472656 163.0399932861328,-38 155.60000610351562,-28.31999969482422 C135.83999633789062,1.7599999904632568 70.0790023803711,49.599998474121094 -22.000999450683594,49.599998474121094z"/></g></g><g style="display: none;"><g><path/></g><g><path/></g><g><path/></g><g><path/></g></g><g transform="matrix(1,0,0,1,512,454)" opacity="1" style="display: block;"><g opacity="1" transform="matrix(1,0,0,1,0,0)"><path fill="rgb(66,43,13)" fill-opacity="1" d=" M480.1600036621094,-81.31999969482422 C480.1600036621094,-81.31999969482422 446.0799865722656,-80.5999984741211 446.0799865722656,-53.31999969482422 C446.0799865722656,14.039999961853027 446.8800048828125,158.60000610351562 270.0799865722656,158.60000610351562 C128.8000030517578,158.60000610351562 61.36000061035156,85.63999938964844 50,5.079999923706055 C45.36000061035156,-28.440000534057617 34,-64.91999816894531 -0.1599999964237213,-64.91999816894531 C-34.31999969482422,-64.91999816894531 -45.36000061035156,-28.68000030517578 -50,5.079999923706055 C-61.36000061035156,85.63999938964844 -128.8000030517578,158.60000610351562 -270.0799865722656,158.60000610351562 C-446.55999755859375,158.60000610351562 -446.0799865722656,14.039999961853027 -446.0799865722656,-53.31999969482422 C-446.0799865722656,-80.5999984741211 -480.1600036621094,-81.31999969482422 -480.1600036621094,-81.31999969482422 C-480.1600036621094,-81.31999969482422 -480.1600036621094,-148.0399932861328 -480.1600036621094,-148.0399932861328 C-425.3599853515625,-155.24000549316406 -370.1600036621094,-158.60000610351562 -314.9599914550781,-158.1199951171875 C-215.1199951171875,-158.1199951171875 -175.36000061035156,-158.1199951171875 -95.91999816894531,-150.1199951171875 C-48.959999084472656,-145.47999572753906 0.07999999821186066,-144.9199981689453 0.07999999821186066,-144.9199981689453 C0.07999999821186066,-144.9199981689453 48.880001068115234,-145.47999572753906 96.08000183105469,-150.1199951171875 C175.52000427246094,-158.1199951171875 215.27999877929688,-158.1199951171875 315.1199951171875,-158.1199951171875 C370.32000732421875,-158.60000610351562 425.44000244140625,-155.16000366210938 480.1600036621094,-148.0399932861328 C480.1600036621094,-148.0399932861328 480.1600036621094,-81.31999969482422 480.1600036621094,-81.31999969482422 C480.1600036621094,-81.31999969482422 480.1600036621094,-81.31999969482422 480.1600036621094,-81.31999969482422z"/></g><g opacity="1" transform="matrix(1,0,0,1,0,0)"><path fill="rgb(137,96,36)" fill-opacity="1" d=" M165.75999450683594,-28.68000030517578 C165.0399932861328,-15.880000114440918 159.97999572753906,-2.687000036239624 145.35000610351562,-1.3650000095367432 C131.625,-0.125 122,-9.479999542236328 120.16000366210938,-20.68000030517578 C115.27999877929688,-42.7599983215332 120.63999938964844,-65.87999725341797 134.72000122070312,-83.55999755859375 C147.75999450683594,-99.23999786376953 167.0399932861328,-108.27999877929688 187.44000244140625,-108.19999694824219 C199.52000427246094,-109.31999969482422 210.09500122070312,-101.09500122070312 211.36000061035156,-88.36000061035156 C212.625,-75.625 199.44000244140625,-66.12000274658203 187.44000244140625,-61.959999084472656 C174.39999389648438,-56.040000915527344 165.9199981689453,-43.08000183105469 165.75999450683594,-28.68000030517578z M-342.8800048828125,-28.68000030517578 C-343.67999267578125,-15.880000114440918 -350.25,-2 -363.6000061035156,-1.2400000095367432 C-374.3739929199219,-0.6269999742507935 -386.55999755859375,-9.479999542236328 -388.32000732421875,-20.68000030517578 C-393.20001220703125,-42.7599983215332 -387.8399963378906,-65.87999725341797 -373.760009765625,-83.55999755859375 C-360.79998779296875,-99.23999786376953 -341.44000244140625,-108.27999877929688 -321.1199951171875,-108.19999694824219 C-309.0400085449219,-109.31999969482422 -297.8999938964844,-102.47000122070312 -297.20001220703125,-88.36000061035156 C-296.5,-74.25 -309.1199951171875,-66.12000274658203 -321.1199951171875,-61.959999084472656 C-334.239990234375,-56.040000915527344 -342.7200012207031,-43.08000183105469 -342.8800048828125,-28.68000030517578z"/></g></g><g style="display: none;"><g><path/></g><g><path/></g></g></g></svg>