<svg xmlns="http://www.w3.org/2000/svg" viewBox="0 0 16 16" fill="none" aria-hidden="true" width="16" height="16"><path d="M1.56766 11.49C2.5 9.30444 4.67033 6.03623 6.70194 4.00464C8.88894 1.81763 12.2408 0.894369 13.9593 1.00954C14.2013 1.02577 14.3223 1.03388 14.4776 1.1891C14.6328 1.34432 14.6409 1.46534 14.6571 1.70736C14.7723 3.42589 13.8491 6.77774 11.6621 8.96474C10.7516 9.87524 10 10.7733 8.7 11.49" stroke="currentColor" stroke-linecap="round" stroke-linejoin="round"/><path d="M13.9 5.33333C11.5061 9.4224 6.56499 5.63547 3.29999 8.33333" stroke="currentColor" stroke-linecap="round" stroke-linejoin="round"/><path d="M4.66666 11.3333L5.33332 10.6667" stroke="currentColor" stroke-linecap="round" stroke-linejoin="round"/><path d="M14.0273 13.7474C13.5981 14.4057 13.0432 14.4057 12.6036 13.7474C11.1899 11.5849 9.84346 15.3028 8.84538 13.7717C7.32331 11.4776 6.22855 15.4565 5.08719 13.7474C3.59883 11.4705 2.67162 15.2409 1.50001 13.9923" stroke="currentColor" stroke-linecap="round"/></svg>