<svg xmlns="http://www.w3.org/2000/svg" viewBox="0 0 16 16" fill="none" aria-hidden="true" width="16" height="16"><path d="M2.5 8L1.67724 13.3479C1.58405 13.9537 2.05273 14.5 2.66561 14.5H13.3344C13.9473 14.5 14.416 13.9537 14.3228 13.3479L13.5 8" stroke="currentColor"/><path d="M7.4 3.95L2 8H14L8.6 3.95C8.24444 3.68333 7.75556 3.68333 7.4 3.95Z" stroke="currentColor" stroke-linecap="round" stroke-linejoin="round"/><path d="M5 14.5C6.5 14 7.5 9.66667 8 8.5C8.5 9.5 9.5 14 11 14.5" stroke="currentColor" stroke-linecap="round" stroke-linejoin="round"/><path d="M8 3.33333C8.994 3.78903 10.6667 3 10.6667 1.33333C9.57187 1.74859 9.007 1.74283 8 1.33333V3.33333Z" stroke="currentColor" stroke-linecap="round" stroke-linejoin="round"/></svg>