<svg xmlns="http://www.w3.org/2000/svg" viewBox="0 0 16 16" fill="none" aria-hidden="true" width="16" height="16"><path d="M14.2004 4.0346C14.0989 3.48469 13.8274 2.97084 13.4248 2.56674C13.0206 2.1643 12.5066 1.89287 11.9565 1.79138C9.15861 1.32546 6.21905 2.17394 4.19931 4.19038C2.18001 6.20636 1.32701 9.14369 1.7897 11.9415C1.8912 12.4914 2.16271 13.0053 2.56528 13.4094C2.96951 13.8118 3.48352 14.0832 4.03361 14.1848C6.81421 14.7159 9.79974 13.8018 11.7945 11.7863C13.8331 9.78195 14.6861 6.83315 14.2004 4.0346Z" stroke="currentColor"/><path d="M2.66666 13.3334L13.3333 2.66669" stroke="currentColor" stroke-linecap="round" stroke-linejoin="round"/><path d="M6 8L8 10M8 6L10 8" stroke="currentColor" stroke-linecap="round" stroke-linejoin="round"/></svg>