<svg xmlns="http://www.w3.org/2000/svg" viewBox="0 0 16 16" fill="none" aria-label="Water Sports" aria-hidden="false" width="18" height="18"><path d="M12.6667 2L12.4901 2.05887C11.6101 2.35221 11.17 2.49888 10.9183 2.84807C10.6667 3.19725 10.6667 3.66106 10.6667 4.58869V11.49" stroke="currentColor" stroke-linecap="round" stroke-linejoin="round"/><path d="M7.33334 2L7.15674 2.05887C6.27671 2.35221 5.8367 2.49888 5.58502 2.84807C5.33334 3.19725 5.33334 3.66106 5.33334 4.58869V11.49" stroke="currentColor" stroke-linecap="round" stroke-linejoin="round"/><path d="M5.33334 4.66667H10.6667M5.33334 7.33334H10.6667M5.33334 10H10.6667" stroke="currentColor" stroke-linecap="round" stroke-linejoin="round"/><path d="M14.5273 13.7474C14.0981 14.4057 13.5432 14.4057 13.1036 13.7474C11.6899 11.5849 10.3435 15.3028 9.34538 13.7717C7.82331 11.4776 6.72855 15.4565 5.58719 13.7474C4.09883 11.4705 3.17162 15.2409 2.00001 13.9923" stroke="currentColor" stroke-linecap="round"/></svg>