<svg xmlns="http://www.w3.org/2000/svg" viewBox="0 0 14 14" fill="none" aria-hidden="true" width="16" height="16"><path d="M12.7768 1.58333C12.7768 2.18162 12.292 2.66667 11.6941 2.66667C11.0961 2.66667 10.6113 2.18162 10.6113 1.58333C10.6113 0.985023 11.0961 0.5 11.6941 0.5C12.292 0.5 12.7768 0.985023 12.7768 1.58333Z" stroke="currentColor"/><path d="M7.34508 3.98071L8.12147 3.28199C8.51565 2.9272 9.10874 2.90998 9.52294 3.24129L10.6105 4.11133M7.34508 3.98071L9.38268 5.33911L10.6105 4.11133M7.34508 3.98071L2.66602 0.861328M10.6105 4.11133L10.9716 6.39839L13.4993 8.08355M7.36046 7.36133L6.35426 6.69053C5.86755 6.36603 5.74174 5.73402 6.01041 5.2576M7.36046 7.36133L9.06548 8.57921C9.4687 8.86723 9.4687 9.46653 9.06548 9.75456L7.36046 10.9724M7.36046 7.36133L8.08268 6.63911" stroke="currentColor" stroke-linecap="round" stroke-linejoin="round"/><path d="M0.5 7L10.6111 13.5L12.4167 13.1389" stroke="currentColor" stroke-linecap="round" stroke-linejoin="round"/></svg>