<svg xmlns="http://www.w3.org/2000/svg" viewBox="0 0 14 14" fill="none" aria-label="Tickets" aria-hidden="false" width="18" height="18"><path d="M4.99979 2.99961L10.6737 8.65745" stroke="currentColor" stroke-linecap="round" stroke-linejoin="round"/><path d="M1.99862 5.67747L1.64457 5.32442L1.99862 5.67747ZM5.65958 2.00609L6.01363 2.35914L5.65958 2.00609ZM2.02932 9.6787L2.32586 10.0813L2.02932 9.6787ZM4.33878 11.9812L4.74224 12.2766L4.33878 11.9812ZM11.9706 4.32834L12.2671 4.73088L11.9706 4.32834ZM9.66092 2.02597L9.25745 1.73067L9.66092 2.02597ZM0.0874471 7.67992C0.0880818 8.12606 0.274998 8.49559 0.545105 8.84857C0.806393 9.19002 1.18926 9.5703 1.65126 10.031L2.35736 9.32287C1.87534 8.84222 1.5502 8.5165 1.33926 8.24085C1.13715 7.97673 1.08764 7.81808 1.08745 7.6785L0.0874471 7.67992ZM1.64457 5.32442C1.18388 5.78642 0.802093 6.16779 0.541778 6.50999C0.272677 6.86373 0.0868124 7.23379 0.0874471 7.67992L1.08745 7.6785C1.08725 7.53893 1.1363 7.38013 1.33766 7.11544C1.54781 6.83919 1.87203 6.51254 2.35268 6.03052L1.64457 5.32442ZM5.30552 1.65304L1.64457 5.32442L2.35268 6.03052L6.01363 2.35914L5.30552 1.65304ZM7.65658 0.0892195C7.21045 0.0898547 6.84092 0.276771 6.48794 0.546877C6.14649 0.808165 5.76621 1.19103 5.30552 1.65304L6.01363 2.35914C6.49428 1.87712 6.82001 1.55197 7.09565 1.34104C7.35977 1.13892 7.51843 1.08942 7.65801 1.08922L7.65658 0.0892195ZM10.0121 1.64634C9.55008 1.18565 9.16871 0.803866 8.82652 0.543551C8.47278 0.274449 8.10272 0.0885851 7.65658 0.0892195L7.65801 1.08922C7.79758 1.08902 7.95638 1.13807 8.22107 1.33943C8.49732 1.54958 8.82397 1.8738 9.30599 2.35445L10.0121 1.64634ZM10.1817 3.81291C9.77475 3.40707 9.73509 2.77122 10.0644 2.32128L9.25745 1.73067C8.64096 2.57297 8.71371 3.76125 9.47564 4.52102L10.1817 3.81291ZM11.674 3.92579C11.225 4.25661 10.5888 4.21884 10.1817 3.81291L9.47564 4.52102C10.2377 5.28095 11.4266 5.35019 12.2671 4.73088L11.674 3.92579ZM13.9122 6.3271C13.9116 5.88097 13.7247 5.51143 13.4546 5.15846C13.1933 4.81701 12.8104 4.43673 12.3484 3.97604L11.6423 4.68415C12.1243 5.1648 12.4495 5.49052 12.6604 5.76617C12.8625 6.03029 12.912 6.18895 12.9122 6.32852L13.9122 6.3271ZM12.3551 8.6826C12.8158 8.2206 13.1976 7.83923 13.4579 7.49704C13.727 7.14329 13.9129 6.77323 13.9122 6.3271L12.9122 6.32852C12.9124 6.4681 12.8634 6.62689 12.662 6.89159C12.4519 7.16783 12.1277 7.49448 11.647 7.9765L12.3551 8.6826ZM8.69416 12.354L12.3551 8.6826L11.647 7.9765L7.98605 11.6479L8.69416 12.354ZM6.3431 13.9178C6.78923 13.9172 7.15877 13.7303 7.51174 13.4601C7.85319 13.1989 8.23347 12.816 8.69416 12.354L7.98605 11.6479C7.5054 12.1299 7.17968 12.4551 6.90403 12.666C6.63991 12.8681 6.48125 12.9176 6.34168 12.9178L6.3431 13.9178ZM3.9876 12.3607C4.4496 12.8214 4.83097 13.2032 5.17316 13.4635C5.52691 13.7326 5.89697 13.9184 6.3431 13.9178L6.34168 12.9178C6.2021 12.918 6.04331 12.8689 5.77861 12.6676C5.50237 12.4574 5.17572 12.1332 4.6937 11.6526L3.9876 12.3607ZM3.818 10.1942C4.22502 10.6001 4.26466 11.236 3.93531 11.6859L4.74224 12.2766C5.3588 11.4342 5.28606 10.2459 4.5241 9.48612L3.818 10.1942ZM2.32586 10.0813C2.77486 9.75053 3.41095 9.78833 3.818 10.1942L4.5241 9.48612C3.76206 8.72624 2.57335 8.65696 1.73278 9.27613L2.32586 10.0813ZM1.73278 9.27613C1.92014 9.13811 2.18591 9.15191 2.35736 9.32287L1.65126 10.031C1.83615 10.2153 2.12322 10.2305 2.32586 10.0813L1.73278 9.27613ZM4.6937 11.6526C4.86506 11.8234 4.87956 12.089 4.74224 12.2766L3.93531 11.6859C3.78661 11.8891 3.8026 12.1762 3.9876 12.3607L4.6937 11.6526ZM12.2671 4.73088C12.0797 4.86898 11.8138 4.85517 11.6423 4.68415L12.3484 3.97604C12.1636 3.79173 11.8766 3.77653 11.674 3.92579L12.2671 4.73088ZM9.30599 2.35445C9.13467 2.18363 9.12019 1.9182 9.25745 1.73067L10.0644 2.32128C10.2131 2.11809 10.1971 1.83087 10.0121 1.64634L9.30599 2.35445Z" fill="currentColor"/></svg>