<svg xmlns="http://www.w3.org/2000/svg" viewBox="0 0 16 16" fill="none" aria-hidden="true" width="16" height="16"><path d="M1 5.25C1 5.80228 1.44772 6.25 2 6.25C2.55228 6.25 3 5.80228 3 5.25C3 4.69772 2.55228 4.25 2 4.25C1.44772 4.25 1 4.69772 1 5.25Z" fill="currentColor"/><path d="M4 2C4 2.55228 4.44772 3 5 3C5.55228 3 6 2.55228 6 2C6 1.44772 5.55228 1 5 1C4.44772 1 4 1.44772 4 2Z" fill="currentColor"/><path d="M13 5.25C13 5.80228 13.4477 6.25 14 6.25C14.5523 6.25 15 5.80228 15 5.25C15 4.69772 14.5523 4.25 14 4.25C13.4477 4.25 13 4.69772 13 5.25Z" fill="currentColor"/><path d="M4.0323 13.0051C4.34386 11.9477 4.4183 9.63707 3.3403 8.11616C2.84689 7.42003 2.83167 6.60614 3.68484 6.59357C4.43401 6.58253 5.29246 6.69302 6 6.94011M8.23696 9C8 7.5 6 6.94011 6 6.94011M6 6.94011C6.55994 6.52445 6.69084 5.5263 6.26211 4.58206C5.92676 3.84347 5.99565 2.94792 6.80498 3.00237C8.46577 3.11411 10.7219 4.29289 11.5 6.94011M7.69479 12.2768C7.41301 10.7399 7.8229 6.75834 12.6909 6.8806C13.2096 6.89363 13.4484 7.57102 13.1668 8.00683C12.2814 9.37697 11.6081 11.4632 11.9677 13.0051" stroke="currentColor" stroke-linecap="round" stroke-linejoin="round"/><path d="M2.5 13.8586C2.5 14.4109 4.96243 14.8586 8 14.8586C11.0376 14.8586 13.5 14.4109 13.5 13.8586C13.5 13.3063 11.0376 12.8586 8 12.8586C4.96243 12.8586 2.5 13.3063 2.5 13.8586Z" stroke="currentColor"/></svg>