<svg xmlns="http://www.w3.org/2000/svg" viewBox="0 0 16 16" fill="none" aria-label="Transportation" aria-hidden="false" width="18" height="18"><path d="M1.66669 8.66666L3.00002 9.33332" stroke="currentColor" stroke-linecap="round" stroke-linejoin="round"/><path d="M14.3333 9L13 9.33333" stroke="currentColor" stroke-linecap="round" stroke-linejoin="round"/><path d="M5.33334 12.3333L5.49712 11.9239C5.74068 11.315 5.86246 11.0105 6.11641 10.8386C6.37036 10.6667 6.69827 10.6667 7.35408 10.6667H8.64594C9.30175 10.6667 9.62966 10.6667 9.88361 10.8386C10.1376 11.0105 10.2593 11.315 10.5029 11.9239L10.6667 12.3333" stroke="currentColor" stroke-linecap="round" stroke-linejoin="round"/><path d="M1.33334 12V13.9213C1.33334 14.1738 1.49385 14.4047 1.74793 14.5176C1.9128 14.5909 2.07027 14.6667 2.26039 14.6667H3.40629C3.59642 14.6667 3.75389 14.5909 3.91875 14.5176C4.17284 14.4047 4.33334 14.1738 4.33334 13.9213V12.6667" stroke="currentColor" stroke-linecap="round" stroke-linejoin="round"/><path d="M11.6667 12.6667V13.9213C11.6667 14.1738 11.8272 14.4047 12.0813 14.5176C12.2461 14.5909 12.4036 14.6667 12.5937 14.6667H13.7396C13.9298 14.6667 14.0872 14.5909 14.2521 14.5176C14.5062 14.4047 14.6667 14.1738 14.6667 13.9213V12" stroke="currentColor" stroke-linecap="round" stroke-linejoin="round"/><path d="M13.3333 6.33333L14 6" stroke="currentColor" stroke-linecap="round" stroke-linejoin="round"/><path d="M2.66669 6.33333L2.00002 6" stroke="currentColor" stroke-linecap="round" stroke-linejoin="round"/><path d="M3 7L3.72554 4.82339C4.01888 3.94337 4.16555 3.50335 4.51473 3.25168C4.86392 3 5.32773 3 6.25536 3H9.74464C10.6723 3 11.1361 3 11.4853 3.25168C11.8345 3.50335 11.9811 3.94337 12.2745 4.82339L13 7" stroke="currentColor" stroke-linejoin="round"/><path d="M10.3334 2.99998C10.1732 2.1956 10.0932 1.7934 9.90255 1.56336C9.71194 1.33331 9.45875 1.33331 8.95238 1.33331H7.04766C6.54129 1.33331 6.2881 1.33331 6.09749 1.56336C5.90688 1.7934 5.82682 2.19559 5.66669 2.99998" stroke="currentColor" stroke-linejoin="round"/><path d="M3.00001 7H13C13.6382 7.63814 14.6667 8.52682 14.6667 9.51828V11.7034C14.6667 12.0626 14.4136 12.365 14.0779 12.4069L12 12.6667H4.00001L1.92212 12.4069C1.58637 12.365 1.33334 12.0626 1.33334 11.7034V9.51828C1.33334 8.52682 2.36187 7.63814 3.00001 7Z" stroke="currentColor" stroke-linejoin="round"/></svg>