<svg xmlns="http://www.w3.org/2000/svg" viewBox="0 0 16 16" fill="none" aria-hidden="true" width="16" height="16"><path d="M1.3 8.5L0.900046 8.19994C0.795816 8.33888 0.771151 8.52194 0.834895 8.68351L1.3 8.5ZM2.01458 11.6735C2.11593 11.9304 2.40632 12.0565 2.6632 11.9551C2.92007 11.8538 3.04615 11.5634 2.9448 11.3065L2.01458 11.6735ZM12.0624 11.1737C11.8877 11.3876 11.9195 11.7026 12.1334 11.8772C12.3472 12.0519 12.6622 12.0202 12.8369 11.8063L12.0624 11.1737ZM14.1596 9.3966L13.7723 9.0803L14.1596 9.3966ZM2.95464 8.02764L3.0919 8.50843L3.092 8.5084L2.95464 8.02764ZM13.1737 8.27144L13.0915 7.77824L13.1737 8.27144ZM10.4213 8.30344L10.492 7.80846L10.4213 8.30344ZM6.69992 7.77181L6.77063 7.27683L6.69992 7.77181ZM13.8 7.00039L14.0774 6.58436L14.0675 6.57776L14.0573 6.57164L13.8 7.00039ZM11.8851 5.85142L11.6278 6.28017V6.28017L11.8851 5.85142ZM10.6224 5.58011L10.564 5.08353L10.6224 5.58011ZM3.65175 6.40018L3.59333 5.90361L3.65175 6.40018ZM2.28543 7.18648L2.68539 7.48654L2.68543 7.48648L2.28543 7.18648ZM0.834895 8.68351L2.01458 11.6735L2.9448 11.3065L1.76511 8.31649L0.834895 8.68351ZM12.8369 11.8063L14.5468 9.7129L13.7723 9.0803L12.0624 11.1737L12.8369 11.8063ZM2.81738 7.54684L1.16275 8.01921L1.43726 8.98079L3.0919 8.50843L2.81738 7.54684ZM13.2559 8.76463L14.5809 8.5438L14.4165 7.55741L13.0915 7.77824L13.2559 8.76463ZM14.5809 8.5438L14.8822 8.49359L14.7178 7.50719L14.4165 7.55741L14.5809 8.5438ZM10.3506 8.79841C11.3151 8.93619 12.2949 8.92479 13.2559 8.76463L13.0915 7.77824C12.2317 7.92154 11.355 7.93173 10.492 7.80846L10.3506 8.79841ZM6.77063 7.27683C5.44851 7.08796 4.10143 7.17997 2.81728 7.54687L3.092 8.5084C4.24098 8.18012 5.44626 8.09779 6.62921 8.26678L6.77063 7.27683ZM14.0573 6.57164L12.1423 5.42268L11.6278 6.28017L13.5428 7.42913L14.0573 6.57164ZM10.564 5.08353L3.59333 5.90361L3.71017 6.89676L10.6808 6.07668L10.564 5.08353ZM1.88547 6.88643L0.900046 8.19994L1.69996 8.80006L2.68539 7.48654L1.88547 6.88643ZM3.59333 5.90361C2.91347 5.98359 2.29616 6.33885 1.88543 6.88648L2.68543 7.48648C2.93187 7.1579 3.30226 6.94475 3.71017 6.89676L3.59333 5.90361ZM12.1423 5.42268C11.6682 5.1382 11.1131 5.01893 10.564 5.08353L10.6808 6.07668C11.0103 6.03792 11.3433 6.10948 11.6278 6.28017L12.1423 5.42268ZM10.492 7.80846L6.77063 7.27683L6.62921 8.26678L10.3506 8.79841L10.492 7.80846ZM14.5468 9.7129C14.9665 9.19902 15.105 8.55252 14.9896 7.95571L14.0078 8.1455C14.0695 8.46494 13.9956 8.80699 13.7723 9.0803L14.5468 9.7129ZM14.9896 7.95571C14.8856 7.41749 14.5745 6.91579 14.0774 6.58436L13.5227 7.41641C13.7875 7.59299 13.9522 7.85815 14.0078 8.1455L14.9896 7.95571Z" fill="currentColor"/><path d="M13.8 7L11.3 5.5L10.8804 3.40194C10.8336 3.16823 10.6291 3.00033 10.3912 3.01455C9.41897 3.07266 7.48117 3.31883 6.8 4C6 4.8 5.8 5.66667 5.8 6" stroke="currentColor" stroke-linecap="round"/><path d="M7.8 3.5L8.3 5.5" stroke="currentColor" stroke-linecap="round"/><circle cx="0.5" cy="0.5" r="0.5" transform="matrix(-1 0 0 1 8.3 9)" fill="currentColor"/><circle cx="0.5" cy="0.5" r="0.5" transform="matrix(-1 0 0 1 6.3 9)" fill="currentColor"/><circle cx="0.5" cy="0.5" r="0.5" transform="matrix(-1 0 0 1 4.3 9)" fill="currentColor"/><path d="M14.8333 13.7955C14.3765 14.4962 13.786 14.4962 13.318 13.7955C11.8134 11.4939 10.3803 15.4509 9.318 13.8214C7.698 11.3796 6.53279 15.6145 5.318 13.7955C3.73386 11.3721 2.747 15.3851 1.5 14.0561" stroke="currentColor" stroke-linecap="round"/></svg>