<svg xmlns="http://www.w3.org/2000/svg" viewBox="0 0 16 16" fill="none" aria-hidden="true" width="16" height="16"><path d="M11.8143 4.72696L10.7407 2.97192C10.0581 2.20791 9.04521 2.4959 8.53494 2.53763" stroke="currentColor" stroke-linecap="round" stroke-linejoin="round"/><path d="M2.11499 7.40832L6.70786 7.03273C7.0365 7.00585 7.34631 6.8579 7.59079 6.61102L8.72072 5.47013C8.9652 5.22327 9.27501 5.0753 9.60365 5.04843L11.5202 4.89169" stroke="currentColor" stroke-linecap="round" stroke-linejoin="round"/><path d="M1.95462 9.27491C2.36519 10.6037 2.49488 11.6 2.49488 11.6M14.5816 8.22095C14.3764 9.62383 13 11.5 13 11.5" stroke="currentColor" stroke-linecap="round" stroke-linejoin="round"/><path d="M11.8289 4.88138C13.1208 4.77573 15.8596 8.30371 13.8586 8.46734L2.33043 9.41009C1.85838 9.44869 1.45078 8.82197 1.49998 8.2749C1.53201 7.91872 1.96617 7.4867 1.96617 7.4867" stroke="currentColor" stroke-linecap="round" stroke-linejoin="round"/><path d="M14.5273 13.7474C14.0981 14.4057 13.5432 14.4057 13.1036 13.7474C11.6899 11.5849 10.3435 15.3028 9.34538 13.7717C7.82331 11.4776 6.72855 15.4565 5.58719 13.7474C4.09883 11.4705 3.17162 15.2409 2.00001 13.9923" stroke="currentColor" stroke-linecap="round"/></svg>