<svg xmlns="http://www.w3.org/2000/svg" viewBox="0 0 10 16" fill="none" aria-hidden="true" width="16" height="16"><path d="M1.17508 3.11451C1.41681 2.32013 1.53767 1.92294 1.93553 1.62814C2.33338 1.33334 2.80613 1.33334 3.75162 1.33334H5.96736C6.91286 1.33334 7.3856 1.33334 7.78346 1.62814C8.18131 1.92294 8.30218 2.32013 8.54391 3.11451C9.33888 5.72697 9.85466 10.0183 4.85949 10.0183C-0.135681 10.0183 0.380104 5.72697 1.17508 3.11451Z" stroke="currentColor" stroke-linecap="round"/><path d="M9 7C8.1641 5.75192 6.99998 5.33335 5.38655 6.06223C3.77312 6.79111 1.83379 6.68107 0.997898 5.43299" stroke="currentColor" stroke-linecap="round" stroke-linejoin="round"/><path d="M4.85924 10.0195V14.6547M2.54166 14.6547H7.17683" stroke="currentColor" stroke-linecap="round"/></svg>