<svg xmlns="http://www.w3.org/2000/svg" viewBox="0 0 16 16" fill="none" aria-label="Adventure" aria-hidden="false" width="18" height="18"><g><path d="M3.33334 5.11111C3.33334 4.69779 3.33334 4.49112 3.37878 4.32157C3.50206 3.86145 3.86146 3.50205 4.32158 3.37876C4.49114 3.33333 4.6978 3.33333 5.11112 3.33333H10.8889C11.3022 3.33333 11.5089 3.33333 11.6784 3.37876C12.1385 3.50205 12.4979 3.86145 12.6213 4.32157C12.6667 4.49112 12.6667 4.69779 12.6667 5.11111C12.6667 5.93775 12.6667 6.35107 12.5758 6.6902C12.3292 7.6104 11.6104 8.3292 10.6902 8.5758C10.3511 8.66666 9.93774 8.66666 9.11114 8.66666H6.88888C6.06226 8.66666 5.64894 8.66666 5.30982 8.5758C4.38958 8.3292 3.67079 7.6104 3.42421 6.6902C3.33334 6.35107 3.33334 5.93775 3.33334 5.11111Z" stroke="currentColor"/><path d="M12 7.33333C12.2477 7.72259 12.3716 7.91726 12.4593 8.12646C12.5375 8.31293 12.5942 8.50766 12.6283 8.70693C12.6667 8.93059 12.6667 9.16126 12.6667 9.62273V10.6667C12.6667 12.5523 12.6667 13.4951 12.0809 14.0809C11.4951 14.6667 10.5523 14.6667 8.66668 14.6667H7.33334C5.44772 14.6667 4.50492 14.6667 3.91913 14.0809C3.33334 13.4951 3.33334 12.5523 3.33334 10.6667V9.62273C3.33334 9.16126 3.33334 8.93059 3.37168 8.70693C3.40584 8.50766 3.46254 8.31293 3.54071 8.12646C3.62843 7.91726 3.75229 7.72259 4.00001 7.33333" stroke="currentColor"/><path d="M3.33334 13.3333C2.88235 13.3333 2.65686 13.3333 2.46813 13.2813C2.05525 13.1675 1.72046 12.8775 1.56105 12.4955C1.48819 12.321 1.46575 12.1062 1.42087 11.6767L1.37795 11.2657C1.32664 10.7746 1.30099 10.5291 1.40594 10.3473C1.64051 9.941 2.16751 10.0035 2.57137 10.0035H3.33334" stroke="currentColor"/><path d="M12.6667 13.3333C13.1177 13.3333 13.3431 13.3333 13.5319 13.2813C13.9447 13.1673 14.2795 12.877 14.4389 12.4947C14.5118 12.3199 14.5343 12.1049 14.5791 11.6749L14.6221 11.2636C14.6637 10.865 14.7686 10.3751 14.3806 10.1182C14.2021 10 13.9443 10 13.4287 10H12.6667" stroke="currentColor"/><path d="M6 9.66667V9" stroke="currentColor" stroke-linecap="round" stroke-linejoin="round"/><path d="M10 9.66667V9" stroke="currentColor" stroke-linecap="round" stroke-linejoin="round"/><path d="M10 3.33333C10 2.22876 9.1046 1.33333 8 1.33333C6.8954 1.33333 6 2.22876 6 3.33333" stroke="currentColor"/></g></svg>