<svg xmlns="http://www.w3.org/2000/svg" viewBox="0 0 17 13" fill="none" aria-hidden="true" width="100%" height="14"><g><mask id="mask0_905_118" style="mask-type:luminance" maskUnits="userSpaceOnUse" x="0" y="0" width="17" height="13"><path d="M16.9825 0.234283H0V12.6841H16.9825V0.234283Z" fill="white"/></mask><g mask="url(#mask0_905_118)"><path d="M2.77127 12.4648C2.06601 11.3904 1.6551 10.1081 1.6551 8.72959C1.6551 4.96433 4.71801 1.90142 8.48327 1.90142C12.2485 1.90142 15.3114 4.96433 15.3114 8.72959C15.3114 10.1071 14.8996 11.3904 14.1953 12.4648H16.107C16.6617 11.3369 16.9745 10.0692 16.9745 8.72959C16.9745 4.0473 13.1656 0.239304 8.48424 0.239304C3.80292 0.239304 -0.00604248 4.04827 -0.00604248 8.72959C-0.00604248 10.0692 0.306757 11.3369 0.861443 12.4648H2.77127Z" fill="#4A4AF4"/><path d="M8.59809 4.69507C7.35466 4.69507 5.92374 5.28084 5.1466 5.90061L5.85574 7.3937C6.47843 6.82347 7.4858 6.33678 8.39409 6.33678C9.25769 6.33678 9.73371 6.6253 9.73371 7.20718C9.73371 7.59867 9.417 7.81918 8.82054 7.87358C6.58043 8.07953 4.83963 8.77895 4.83963 10.4984C4.83963 11.8623 5.82272 12.686 7.44014 12.686C8.52232 12.686 9.37232 12.0847 9.83085 11.2911V12.4636H11.8475V7.54913C11.8485 5.51981 10.437 4.69507 8.59809 4.69507ZM8.0094 11.1104C7.35563 11.1104 6.99717 10.8306 6.99717 10.3711C6.99717 9.4133 8.16774 9.1821 9.69192 9.1821C9.69192 10.1846 9.02066 11.1104 8.0094 11.1104Z" fill="black"/></g></g></svg>