<svg xmlns="http://www.w3.org/2000/svg" viewBox="0 0 12 15" fill="none" aria-hidden="true" width="16" height="16"><path d="M10.0501 14.5007C10.0501 13.5881 9.63924 12.6932 8.80882 12.3146C7.79592 11.8529 6.58115 11.584 5.27506 11.584C3.96897 11.584 2.75419 11.8529 1.74128 12.3146C0.910853 12.6932 0.5 13.5881 0.5 14.5007" stroke="currentColor" stroke-linecap="round" stroke-linejoin="round"/><path d="M5.29883 10.5C7.23182 10.5 8.79883 8.933 8.79883 7C8.79883 5.067 7.23182 3.5 5.29883 3.5C3.36583 3.5 1.79883 5.067 1.79883 7C1.79883 8.933 3.36583 10.5 5.29883 10.5Z" stroke="currentColor" stroke-linecap="round" stroke-linejoin="round"/><rect x="4.70001" y="7.73581" width="0.5" height="1" rx="0.25" fill="currentColor" stroke="currentColor" stroke-linecap="round" stroke-linejoin="round"/><path d="M3.90353 5.95117H3.90039M6.70039 5.95117H6.69724" stroke="currentColor" stroke-linecap="round" stroke-linejoin="round"/><path d="M9.83333 3.55C9.83333 3.79852 9.64679 4 9.41667 4C9.18655 4 9 3.79852 9 3.55C9 3.30148 9.18655 3.1 9.41667 3.1C9.64679 3.1 9.83333 3.30148 9.83333 3.55ZM9.83333 3.55V2.2C9.83333 1.93186 9.83333 1.7978 9.89617 1.7149C9.959 1.632 10.1011 1.60108 10.3851 1.53925C10.9036 1.4264 11.3218 1.1796 11.5 1V2.95M11.5 3.025C11.5 3.23212 11.3446 3.4 11.1528 3.4C10.961 3.4 10.8056 3.23212 10.8056 3.025C10.8056 2.81788 10.961 2.65 11.1528 2.65C11.3446 2.65 11.5 2.81788 11.5 3.025Z" stroke="currentColor" stroke-width="0.7" stroke-linecap="round" stroke-linejoin="round"/></svg>