<svg xmlns="http://www.w3.org/2000/svg" viewBox="0 0 14 12" fill="none" aria-hidden="true" width="16" height="16"><path d="M3.43945 9.37947C4.26452 10.4259 5.54362 11.0977 6.97962 11.0977C8.24037 11.0977 9.38018 10.5798 10.198 9.74526M4.72679 2.68911C5.38951 2.30575 6.15895 2.08633 6.97962 2.08633C8.24037 2.08633 9.38018 2.60414 10.198 3.43868" stroke="currentColor" stroke-linecap="round"/><path d="M9.55558 6.59264C9.55558 8.01457 8.40284 9.16731 6.98092 9.16731C5.55896 9.16731 4.40625 8.01457 4.40625 6.59264C4.40625 5.17072 5.55896 4.01797 6.98092 4.01797C8.40284 4.01797 9.55558 5.17072 9.55558 6.59264Z" stroke="currentColor"/><path d="M3.11764 2.73023C3.11764 3.61892 2.6606 4.5 1.8303 4.5C1 4.5 0.542969 3.61892 0.542969 2.73023C0.542969 1.8415 1.11933 0.799225 1.8303 0.799225C2.54128 0.799225 3.11764 1.8415 3.11764 2.73023Z" stroke="currentColor"/><path d="M11.8066 6.59223V0.799225H12.1285C12.8395 0.799225 13.4158 1.37558 13.4158 2.08656V6.59223H11.8066ZM11.8066 6.59223V11.0979" stroke="currentColor" stroke-linecap="round" stroke-linejoin="round"/><path d="M1.82812 4.5L1.82813 11.0983" stroke="currentColor" stroke-linecap="round" stroke-linejoin="round"/></svg>