<svg xmlns="http://www.w3.org/2000/svg" viewBox="0 0 16 16" fill="none" aria-hidden="true" width="16" height="16"><path d="M4.00001 13.3351C5.47277 13.3351 6.66668 12.1412 6.66668 10.6684C6.66668 9.19567 5.47277 8.00173 4.00001 8.00173C2.52725 8.00173 1.33334 9.19567 1.33334 10.6684C1.33334 12.1412 2.52725 13.3351 4.00001 13.3351Z" stroke="currentColor" stroke-linecap="round" stroke-linejoin="round"/><path d="M12 13.3351C13.4727 13.3351 14.6667 12.1412 14.6667 10.6684C14.6667 9.19567 13.4727 8.00173 12 8.00173C10.5273 8.00173 9.33334 9.19567 9.33334 10.6684C9.33334 12.1412 10.5273 13.3351 12 13.3351Z" stroke="currentColor" stroke-linecap="round" stroke-linejoin="round"/><path d="M4 10.6684H6.91373C7.15347 10.6684 7.3748 10.5397 7.49327 10.3312L10.3333 5.33508" stroke="currentColor" stroke-linecap="round" stroke-linejoin="round"/><path d="M8.00001 8.6684L4.66668 4.66841M4.66668 4.66841H3.33334M4.66668 4.66841H6.00001" stroke="currentColor" stroke-linecap="round" stroke-linejoin="round"/><path d="M13.3359 4.14579C13.1999 3.76179 12.9599 3.16179 12.1599 2.88179C11.6399 2.68179 10.3599 2.60179 10.1999 2.72179C9.96848 2.77966 9.95995 3.04179 10.0719 3.40179C10.1629 3.78775 10.3039 4.28549 10.4319 4.76179C10.7599 5.98232 11.4799 8.6258 12.0159 10.6658" stroke="currentColor" stroke-linecap="round"/></svg>