<svg xmlns="http://www.w3.org/2000/svg" viewBox="0 0 16 14" fill="none" aria-hidden="true" width="16" height="16"><path d="M13.8672 1.81592C13.6639 2.2741 13.1276 2.48068 12.6695 2.27736C12.2113 2.07404 12.0047 1.53778 12.208 1.0796C12.4113 0.621425 12.9476 0.414836 13.4058 0.618156C13.8639 0.821477 14.0706 1.35774 13.8672 1.81592Z" stroke="currentColor"/><path d="M5.72371 2.64085C5.72371 2.64085 6.17449 1.66595 7.5 1.49999C8.81635 1.33518 10.0874 1.80071 10.222 1.85206C10.4919 1.95509 10.6909 2.18368 11.089 2.64085L11.8322 3.49447C11.9959 3.68243 12.0777 3.77641 12.1381 3.88392C12.1809 3.96012 12.2156 4.0411 12.2415 4.12551C12.2781 4.24461 12.2911 4.37213 12.317 4.62715C12.317 4.62715 12.1961 5.55257 12.5 6C12.9523 6.666 14.5 6.5 14.5 6.5" stroke="currentColor" stroke-linecap="round" stroke-linejoin="round"/><path d="M10.6462 2.36977C10.6462 2.36977 8.49409 4.03724 7.11512 5.10569M7.11512 5.10569C6.30476 5.73356 7.67926 6.2667 7.5 7C7.18978 8.26892 5.16168 8.42442 4.56745 8.60901M7.11512 5.10569C7.87107 5.44116 9.05086 5.96472 9.05086 5.96472M9.05086 5.96472L9 6C9.34816 6.1545 10.4578 7.29628 10.6462 7.98026C11.0746 9.53544 10.1633 12.0825 10.1633 12.0825M9.05086 5.96472L12.2138 4.0584" stroke="currentColor" stroke-linecap="round" stroke-linejoin="round"/><path d="M1.25 6.83203L10.1243 12.537C10.9973 13.0981 12.0542 13.2981 13.0718 13.0946L13.313 13.0463" stroke="currentColor" stroke-linecap="round" stroke-linejoin="round"/></svg>