<svg xmlns="http://www.w3.org/2000/svg" viewBox="0 0 16 16" fill="none" aria-hidden="true" width="16" height="16"><path d="M7.5 3V7.3" stroke="currentColor" stroke-linecap="round"/><path d="M6.70001 7L9.70001 9.6" stroke="currentColor" stroke-linecap="round"/><path d="M4.75 6.25C4.75 6.94036 4.19036 7.5 3.5 7.5C2.80964 7.5 2.25 6.94036 2.25 6.25C2.25 5.55964 2.80964 5 3.5 5C4.19036 5 4.75 5.55964 4.75 6.25Z" stroke="currentColor"/><path d="M3.5 1.5L5.81178 2.36692C6.9319 2.78696 8.10464 3.05039 9.29679 3.14973L13.5 3.5" stroke="currentColor" stroke-linecap="round"/><path d="M10 11.6V11.6C11.231 11.9078 12.1922 12.869 12.5 14.1V14.1" stroke="currentColor" stroke-linecap="round"/><path d="M1.5 10.5C4.04155 9.54692 6.54692 7.54155 7.5 5" stroke="currentColor" stroke-linecap="round"/><path d="M5 8.5L7.39447 10.0963C7.77684 10.3512 8.25514 10.4178 8.68705 10.2608C9.21397 10.0693 9.94298 9.78619 10.5 9.49999C12.2454 8.60316 15 9.99999 15 9.99999" stroke="currentColor" stroke-linecap="round"/></svg>