<svg xmlns="http://www.w3.org/2000/svg" viewBox="0 0 16 14" fill="none" aria-hidden="true" width="16" height="16"><path d="M6 5.66667C6 8.244 8 10.3333 8 10.3333C8 10.3333 10 8.244 10 5.66667C10 3.08934 8 1 8 1C8 1 6 3.08934 6 5.66667Z" stroke="currentColor" stroke-linejoin="round"/><path d="M4.22064 4.33335C2.74281 3.69748 1.33334 3.66669 1.33334 3.66669C1.33334 3.66669 1.39716 6.58764 3.23811 8.42859C5.07906 10.2695 8.00001 10.3334 8.00001 10.3334C8.00001 10.3334 10.921 10.2695 12.7619 8.42859C14.6029 6.58764 14.6667 3.66669 14.6667 3.66669C14.6667 3.66669 13.2572 3.69748 11.7794 4.33335" stroke="currentColor" stroke-linecap="round" stroke-linejoin="round"/><path d="M8.01382 10.3333C7.90293 11.2222 8.44027 13 10.3423 13C11.6729 13 12.3382 11.6666 14.6667 13C14.4 11.6666 13.8666 10.8133 13.0886 10.3333M7.9862 10.3333C8.09708 11.2222 7.55975 13 5.6577 13C4.32713 13 3.66184 11.6666 1.33334 13C1.60004 11.6666 2.13346 10.8133 2.91139 10.3333" stroke="currentColor" stroke-linecap="round" stroke-linejoin="round"/></svg>