<svg xmlns="http://www.w3.org/2000/svg" viewBox="0 0 16 14" fill="none" aria-hidden="true" width="16" height="16"><path d="M10 4.5H8C6.759 4.5 6.5 4.759 6.5 6V12.5H11.5V6C11.5 4.759 11.241 4.5 10 4.5Z" stroke="currentColor" stroke-linejoin="round"/><path d="M8.5 7.5H9.5M8.5 9.5H9.5" stroke="currentColor" stroke-linecap="round" stroke-linejoin="round"/><path d="M6 7H5C4.58634 7 4.5 7.08635 4.5 7.5V12.5" stroke="currentColor" stroke-linecap="round" stroke-linejoin="round"/><path d="M1.33398 7.00065C1.33398 4.32936 1.33398 2.99371 2.11503 2.16385C2.89608 1.33398 4.15316 1.33398 6.66732 1.33398H9.33398C11.8481 1.33398 13.1053 1.33398 13.8863 2.16385C14.6673 2.99371 14.6673 4.32936 14.6673 7.00065C14.6673 9.67192 14.6673 11.0076 13.8863 11.8375C13.1053 12.6673 11.8481 12.6673 9.33398 12.6673H6.66732C4.15316 12.6673 2.89608 12.6673 2.11503 11.8375C1.33398 11.0076 1.33398 9.67192 1.33398 7.00065Z" stroke="currentColor"/></svg>