<svg xmlns="http://www.w3.org/2000/svg" viewBox="0 0 16 16" fill="none" aria-hidden="true" width="16" height="16"><path d="M8 12C10.2091 12 12 10.2091 12 8C12 5.79086 10.2091 4 8 4C5.79086 4 4 5.79086 4 8C4 10.2091 5.79086 12 8 12Z" stroke="currentColor"/><path d="M5.33334 14.6667L7.12288 9.56787C7.48974 8.5226 7.67314 8 8.00001 8C8.32688 8 8.51028 8.5226 8.87714 9.56787L10.6667 14.6667" stroke="currentColor" stroke-linecap="round" stroke-linejoin="round"/><path d="M9.33332 2.66667C9.33332 3.40305 8.73639 4 7.99999 4C7.26359 4 6.66666 3.40305 6.66666 2.66667C6.66666 1.93029 7.26359 1.33333 7.99999 1.33333C8.73639 1.33333 9.33332 1.93029 9.33332 2.66667Z" stroke="currentColor"/><path d="M12.6667 6.66667C11.9303 6.66667 11.3333 6.06971 11.3333 5.33333C11.3333 4.59695 11.9303 4 12.6667 4C13.4031 4 14 4.59695 14 5.33333C14 6.06971 13.4031 6.66667 12.6667 6.66667Z" stroke="currentColor"/><path d="M4.66667 10.6667C4.66667 11.4031 4.06971 12 3.33333 12C2.59695 12 2 11.4031 2 10.6667C2 9.93027 2.59695 9.33333 3.33333 9.33333C4.06971 9.33333 4.66667 9.93027 4.66667 10.6667Z" stroke="currentColor"/><path d="M4.66667 5.16667C4.66667 5.90305 4.06971 6.5 3.33333 6.5C2.59695 6.5 2 5.90305 2 5.16667C2 4.43029 2.59695 3.83333 3.33333 3.83333C4.06971 3.83333 4.66667 4.43029 4.66667 5.16667Z" stroke="currentColor"/><path d="M14 10.6667C14 11.4031 13.4031 12 12.6667 12C11.9303 12 11.3333 11.4031 11.3333 10.6667C11.3333 9.93027 11.9303 9.33333 12.6667 9.33333C13.4031 9.33333 14 9.93027 14 10.6667Z" stroke="currentColor"/></svg>