<svg xmlns="http://www.w3.org/2000/svg" viewBox="0 0 16 16" fill="none" aria-hidden="true" width="16" height="16"><path d="M2.66666 7.33334V6.66668C2.66666 4.15252 2.66666 2.89544 3.4477 2.11439C4.22876 1.33334 5.48583 1.33334 7.99999 1.33334C10.5141 1.33334 11.7713 1.33334 12.5523 2.11439C13.3333 2.89544 13.3333 4.15252 13.3333 6.66668V7.33334C13.3333 9.84748 13.3333 11.1046 12.5523 11.8856C11.7713 12.6667 10.5141 12.6667 7.99999 12.6667C5.48583 12.6667 4.22876 12.6667 3.4477 11.8856C2.66666 11.1046 2.66666 9.84748 2.66666 7.33334Z" stroke="currentColor" stroke-linejoin="round"/><path d="M2.66666 8C2.66666 8 5.15554 8.66667 7.99999 8.66667C10.8445 8.66667 13.3333 8 13.3333 8" stroke="currentColor" stroke-linejoin="round"/><path d="M4.66668 12.6667L3.33334 14.6667" stroke="currentColor" stroke-linecap="round" stroke-linejoin="round"/><path d="M11.3333 12.6667L12.6667 14.6667" stroke="currentColor" stroke-linecap="round" stroke-linejoin="round"/><path d="M3 10.6667H4.33333" stroke="currentColor" stroke-linecap="round"/><path d="M11.6667 10.6667H13" stroke="currentColor" stroke-linecap="round"/><path d="M3.33334 3.33334H12.6667" stroke="currentColor" stroke-linecap="round"/></svg>