<svg xmlns="http://www.w3.org/2000/svg" viewBox="0 0 16 14" fill="none" aria-hidden="true" width="16" height="16"><path d="M1.33984 7C1.33984 4.17157 1.33984 2.75736 2.31616 1.87868C3.29246 1 4.86382 1 8.00651 1C11.1492 1 12.7206 1 13.6968 1.87868C14.6732 2.75736 14.6732 4.17157 14.6732 7C14.6732 9.8284 14.6732 11.2427 13.6968 12.1213C12.7206 13 11.1492 13 8.00651 13C4.86382 13 3.29246 13 2.31616 12.1213C1.33984 11.2427 1.33984 9.8284 1.33984 7Z" stroke="currentColor" stroke-linecap="round" stroke-linejoin="round"/><path d="M5.83603 5.29883V8.63216" stroke="currentColor" stroke-linecap="round" stroke-linejoin="round"/><path d="M10.17 5.29883V8.63216" stroke="currentColor" stroke-linecap="round" stroke-linejoin="round"/><path d="M4.17001 5.96484V6.96484M4.17001 6.96484V7.96484M4.17001 6.96484H3.17001" stroke="currentColor" stroke-linecap="round" stroke-linejoin="round"/><path d="M11.836 5.96484V6.96484M11.836 6.96484V7.96484M11.836 6.96484H12.836" stroke="currentColor" stroke-linecap="round" stroke-linejoin="round"/><path d="M10.1701 7L6.1701 7" stroke="currentColor" stroke-linecap="round" stroke-linejoin="round"/></svg>