<svg xmlns="http://www.w3.org/2000/svg" viewBox="0 0 15 15" fill="none" aria-hidden="true" width="16" height="16"><path d="M0.999994 9.89221L10.3504 13.5666C11.6783 14.0885 13.0921 13.0335 12.97 11.612L12.9461 11.3347" stroke="currentColor" stroke-linecap="round"/><path d="M1.69573 8.16126L12.4886 12.391" stroke="currentColor" stroke-linecap="round"/><path d="M8.15777 1.575C8.15777 2.1687 7.67646 2.64999 7.08278 2.64999C6.48909 2.64999 6.00778 2.1687 6.00778 1.575C6.00778 0.98129 6.48909 0.5 7.08278 0.5C7.67646 0.5 8.15777 0.98129 8.15777 1.575Z" stroke="currentColor"/><path d="M10.5 10.3591C10.3465 8.39424 8.90367 7.29906 5.81035 8.52572M5.81035 8.52572C5 9 4.33613 8.52572 4 8.00001C3.61877 7.40377 3.97163 6.0331 4.28016 4.97717C4.46794 4.33451 4.95449 3.7373 5.62302 3.77391C5.96797 3.7928 6.39605 3.87838 6.90724 4.09424M5.81035 8.52572L6.90724 4.09424M6.90724 4.09424C6.90724 4.09424 7.81665 5.32301 9 5.57287C10.2816 5.84347 11.5 4.85914 11.5 4.85914" stroke="currentColor" stroke-linecap="round" stroke-linejoin="round"/></svg>