<svg xmlns="http://www.w3.org/2000/svg" viewBox="0 0 16 16" fill="none" aria-hidden="true" width="16" height="16"><path d="M1.66663 8L2.99996 8.66667" stroke="currentColor" stroke-linecap="round" stroke-linejoin="round"/><path d="M14.3333 8.33337L13 8.66671" stroke="currentColor" stroke-linecap="round" stroke-linejoin="round"/><path d="M5.33337 11.6667L5.49715 11.2572C5.74071 10.6483 5.86249 10.3439 6.11645 10.1719C6.37039 10 6.69831 10 7.35411 10H8.64597C9.30177 10 9.62971 10 9.88364 10.1719C10.1376 10.3439 10.2594 10.6483 10.5029 11.2572L10.6667 11.6667" stroke="currentColor" stroke-linecap="round" stroke-linejoin="round"/><path d="M1.33337 11.3334V13.2547C1.33337 13.5072 1.49387 13.738 1.74796 13.851C1.91283 13.9242 2.07029 14 2.26043 14H3.40632C3.59645 14 3.75392 13.9242 3.91879 13.851C4.17287 13.738 4.33337 13.5072 4.33337 13.2547V12" stroke="currentColor" stroke-linecap="round" stroke-linejoin="round"/><path d="M11.6666 12V13.2547C11.6666 13.5072 11.8272 13.738 12.0812 13.851C12.2461 13.9242 12.4036 14 12.5937 14H13.7396C13.9297 14 14.0872 13.9242 14.252 13.851C14.5061 13.738 14.6666 13.5072 14.6666 13.2547V11.3334" stroke="currentColor" stroke-linecap="round" stroke-linejoin="round"/><path d="M13.3334 5.66671L14 5.33337" stroke="currentColor" stroke-linecap="round" stroke-linejoin="round"/><path d="M2.66667 5.66671L2 5.33337" stroke="currentColor" stroke-linecap="round" stroke-linejoin="round"/><path d="M3 6L3.72553 3.82339C4.01888 2.94337 4.16555 2.50335 4.51473 2.25168C4.86391 2 5.32773 2 6.25536 2H9.74467C10.6723 2 11.1361 2 11.4853 2.25168C11.8345 2.50335 11.9811 2.94337 12.2745 3.82339L13 6" stroke="currentColor" stroke-linejoin="round"/><path d="M3.00004 6H13C13.6382 6.67567 14.6667 7.6166 14.6667 8.6664V10.9801C14.6667 11.3605 14.4137 11.6805 14.0779 11.725L12 12H4.00004L1.92215 11.725C1.58641 11.6805 1.33337 11.3605 1.33337 10.9801V8.6664C1.33337 7.6166 2.3619 6.67567 3.00004 6Z" stroke="currentColor" stroke-linejoin="round"/></svg>