<svg xmlns="http://www.w3.org/2000/svg" viewBox="0 0 14 13" fill="none" aria-hidden="true" width="16" height="16"><path d="M1.5 4.5V4H0.5V4.5H1.5ZM13.5 4.5V4H12.5V4.5H13.5ZM11.1351 6.42854L11.3745 6.86755L11.3745 6.86755L11.1351 6.42854ZM2.86485 6.42854L2.62553 6.86755H2.62553L2.86485 6.42854ZM11.3558 11.8026L11.0965 11.3751V11.3751L11.3558 11.8026ZM2.64422 11.8026L2.90352 11.3751H2.90352L2.64422 11.8026ZM1.5 9.5V4.5H0.5V9.5H1.5ZM3.5 11.5932V6.65275H2.5V11.5932H3.5ZM11.5 11.5932V6.65275H10.5V11.5932H11.5ZM13.5 9.5V4.5H12.5V9.5H13.5ZM1.5 3.93767C1.5 3.24458 1.99475 2.52006 3.00592 1.94071C4.0032 1.36932 5.41426 1 7 1V0C5.27204 0 3.68309 0.400227 2.50879 1.07303C1.3484 1.73788 0.5 2.73219 0.5 3.93767H1.5ZM7 1C8.58574 1 9.9968 1.36932 10.9941 1.94071C12.0053 2.52006 12.5 3.24458 12.5 3.93767H13.5C13.5 2.73219 12.6516 1.73788 11.4912 1.07303C10.3169 0.400227 8.72796 0 7 0V1ZM12.5 3.93767C12.5 4.65332 11.9712 5.40332 10.8958 5.98953L11.3745 6.86755C12.5967 6.20129 13.5 5.18247 13.5 3.93767H12.5ZM3.10417 5.98953C2.0288 5.40332 1.5 4.65332 1.5 3.93767H0.5C0.5 5.18247 1.40334 6.20129 2.62553 6.86755L3.10417 5.98953ZM12.5 9.5C12.5 10.069 12.044 10.8004 11.0965 11.3751L11.6151 12.2301C12.7058 11.5686 13.5 10.5685 13.5 9.5H12.5ZM2.90352 11.3751C1.95598 10.8004 1.5 10.069 1.5 9.5H0.5C0.5 10.5685 1.29425 11.5686 2.38491 12.2301L2.90352 11.3751ZM11.5 6.65275C11.5 6.74934 11.4463 6.82841 11.3745 6.86755L10.8958 5.98953C10.6594 6.11844 10.5 6.36862 10.5 6.65275H11.5ZM10.5 11.5932C10.5 12.1354 11.0939 12.5462 11.6151 12.2301L11.0965 11.3751C11.1862 11.3207 11.2958 11.3279 11.3741 11.3746C11.4495 11.4195 11.5 11.5024 11.5 11.5932H10.5ZM3.5 6.65275C3.5 6.36862 3.34064 6.11844 3.10417 5.98953L2.62553 6.86755C2.55373 6.82841 2.5 6.74934 2.5 6.65275H3.5ZM2.5 11.5932C2.5 11.5024 2.55045 11.4195 2.62586 11.3746C2.70417 11.3279 2.81383 11.3207 2.90352 11.3751L2.38491 12.2301C2.90606 12.5462 3.5 12.1354 3.5 11.5932H2.5Z" fill="currentColor"/><path d="M3 10.5C3 10.5 3.33871 10.1262 4 9.75181M11 10.5C11 10.5 10.6262 10.1262 9.94081 9.75181" stroke="currentColor" stroke-linecap="round" stroke-linejoin="round"/><path d="M9.5 10.4166V9.57096C9.5 9.05333 9.28488 8.54575 8.85012 8.33104C8.31981 8.06917 7.68381 7.91663 7 7.91663C6.31619 7.91663 5.68019 8.06917 5.14988 8.33104C4.7151 8.54575 4.5 9.05333 4.5 9.57096V10.4166" stroke="currentColor" stroke-linecap="round" stroke-linejoin="round"/><path d="M6.95833 6.66666C7.76374 6.66666 8.41666 6.01374 8.41666 5.20833C8.41666 4.40292 7.76374 3.75 6.95833 3.75C6.15292 3.75 5.5 4.40292 5.5 5.20833C5.5 6.01374 6.15292 6.66666 6.95833 6.66666Z" stroke="currentColor" stroke-linecap="round" stroke-linejoin="round"/></svg>