<svg xmlns="http://www.w3.org/2000/svg" viewBox="0 0 12 10" fill="none" aria-hidden="true" width="100%" height="14"><path d="M0.628052 4.84848C0.627988 3.93845 0.897786 3.04884 1.40332 2.29215C1.90886 1.53546 2.62744 0.94567 3.46818 0.597373C4.30892 0.249076 5.23406 0.157913 6.12661 0.335412C7.01916 0.512911 7.83903 0.9511 8.48254 1.59457C9.12605 2.23803 9.5643 3.05787 9.74186 3.95041C9.91942 4.84295 9.82832 5.7681 9.48008 6.60886C9.13185 7.44962 8.54211 8.16824 7.78545 8.67383C7.02879 9.17942 6.1392 9.44928 5.22917 9.44928C4.00893 9.44928 2.83867 8.96457 1.9758 8.10176C1.11293 7.23895 0.628137 6.06872 0.628052 4.84848Z" fill="white"/><path d="M8.01171 4.75728C8.0111 4.19799 7.84108 3.65201 7.52405 3.19126C7.20701 2.7305 6.75784 2.3766 6.23571 2.17616V7.33824C6.75782 7.13781 7.20697 6.78393 7.524 6.32321C7.84103 5.86249 8.01106 5.31654 8.01171 4.75728ZM4.2557 7.33728V2.17664C3.73343 2.37655 3.28412 2.73024 2.96715 3.19096C2.65018 3.65167 2.48048 4.19774 2.48048 4.75696C2.48048 5.31619 2.65018 5.86225 2.96715 6.32297C3.28412 6.78369 3.73343 7.13737 4.2557 7.33728ZM5.24611 0.39408C4.3833 0.394238 3.53991 0.65023 2.82258 1.12969C2.10525 1.60914 1.54619 2.29053 1.21609 3.0877C0.885998 3.88487 0.799688 4.76202 0.968076 5.60824C1.13646 6.45446 1.55199 7.23175 2.16211 7.84182C2.77223 8.4519 3.54955 8.86737 4.39578 9.03569C5.24201 9.20402 6.11915 9.11764 6.9163 8.78749C7.71344 8.45734 8.39479 7.89823 8.8742 7.18086C9.3536 6.4635 9.60953 5.62009 9.60963 4.75728C9.60958 3.60016 9.14992 2.49043 8.33174 1.67219C7.51356 0.853952 6.40387 0.394207 5.24675 0.39408H5.24611ZM5.23539 9.5312C2.59858 9.54368 0.428345 7.40752 0.428345 4.8072C0.428345 1.96528 2.59858 -0.000479912 5.23539 8.78855e-08H6.47107C9.07667 8.78855e-08 11.4547 1.96432 11.4547 4.8072C11.4547 7.40672 9.07667 9.5312 6.47107 9.5312H5.23539Z" fill="#2969A5"/></svg>