<svg xmlns="http://www.w3.org/2000/svg" viewBox="0 0 16 16" fill="none" aria-hidden="true" width="16" height="16"><path d="M11.8455 8.60527C11.3793 8.77727 10.8618 8.5386 10.6897 8.07214C10.5176 7.60563 10.756 7.08809 11.2222 6.91609C11.6884 6.74408 12.2058 6.98275 12.378 7.44927C12.5501 7.91572 12.3116 8.43327 11.8455 8.60527Z" stroke="currentColor"/><path d="M14.1711 11.231C12.9916 11.3595 10.764 10.7428 9.49999 8.50001C8.37817 6.75798 7.32887 13 13 13.5" stroke="currentColor" stroke-linecap="round" stroke-linejoin="round"/><path d="M9.16707 8.47257C9.32418 8.64606 3.51512 10.9312 0.913696 6.65795M10.4043 10.1632C10.2514 10.5938 4.67566 12.8006 3.02543 4.29708" stroke="currentColor" stroke-linecap="round" stroke-linejoin="round"/><path d="M7.39605 7.3812L6.05412 7.99702L7.93517 7.66287L7.39605 7.3812Z" stroke="currentColor" stroke-linecap="round" stroke-linejoin="round"/><path d="M12.5 8V8C12.7297 7.88514 13 8.05218 13 8.30902V8.375C13 8.66215 12.6978 8.84891 12.441 8.72049L12 8.5" stroke="currentColor"/><mask id="path-6-inside-1_7152_998" fill="white"><path d="M14 3.5C14 3.77614 13.7761 4 13.5 4C13.2239 4 13 3.77614 13 3.5C13 3.22386 13.2239 3 13.5 3C13.7761 3 14 3.22386 14 3.5Z"/></mask><path d="M14 3.5C14 3.77614 13.7761 4 13.5 4C13.2239 4 13 3.77614 13 3.5C13 3.22386 13.2239 3 13.5 3C13.7761 3 14 3.22386 14 3.5Z" fill="currentColor"/><path d="M13 3.5C13 3.22386 13.2239 3 13.5 3V5C14.3284 5 15 4.32843 15 3.5H13ZM13.5 3C13.7761 3 14 3.22386 14 3.5H12C12 4.32843 12.6716 5 13.5 5V3ZM14 3.5C14 3.77614 13.7761 4 13.5 4V2C12.6716 2 12 2.67157 12 3.5H14ZM13.5 4C13.2239 4 13 3.77614 13 3.5H15C15 2.67157 14.3284 2 13.5 2V4Z" fill="currentColor" mask="url(#path-6-inside-1_7152_998)"/><path d="M14 5.5C14 5.77614 13.7761 6 13.5 6C13.2239 6 13 5.77614 13 5.5C13 5.22386 13.2239 5 13.5 5C13.7761 5 14 5.22386 14 5.5Z" stroke="currentColor" stroke-width="0.5"/></svg>