<svg xmlns="http://www.w3.org/2000/svg" viewBox="0 0 12 14" fill="none" aria-hidden="true" width="16" height="16"><path d="M9.2526 6.04102V9.33268C9.2526 11.2183 9.2526 12.1611 8.66682 12.7469C8.08103 13.3327 7.13822 13.3327 5.2526 13.3327H5.08594C3.20032 13.3327 2.25751 13.3327 1.67172 12.7469C1.08594 12.1611 1.08594 11.2183 1.08594 9.33268V6.04102" stroke="currentColor" stroke-miterlimit="10" stroke-linecap="round" stroke-linejoin="round"/><path d="M8.37868 3.41667C8.20368 1.78333 6.86201 0.5 5.17035 0.5C3.47868 0.5 2.13701 1.78333 1.96201 3.41667C1.08701 3.41667 0.445347 4.175 0.50368 5.05C0.562014 5.80833 1.26201 6.33333 2.02035 6.33333H2.66667V7.66667C2.66667 8.30833 3.19167 8.83333 3.83333 8.83333C4.475 8.83333 5 8.30833 5 7.66667V6.33333H8.32035C9.07868 6.33333 9.77868 5.80833 9.83701 5.05C9.89535 4.175 9.25368 3.41667 8.37868 3.41667Z" stroke="currentColor" stroke-miterlimit="10" stroke-linecap="round" stroke-linejoin="round"/><path d="M9.5 6.91797H10.5C11.0523 6.91797 11.5 7.36568 11.5 7.91797V10.2513C11.5 11.168 11.05 11.918 10.5 11.918H9.5" stroke="currentColor" stroke-miterlimit="10" stroke-linecap="round" stroke-linejoin="round"/></svg>