<svg xmlns="http://www.w3.org/2000/svg" viewBox="0 0 16 16" fill="none" aria-hidden="true" width="16" height="16"><path d="M10 14.3341V13.0851C10 12.3207 9.65582 11.571 8.96019 11.2539C8.11169 10.8671 7.09409 10.6418 6 10.6418C4.90591 10.6418 3.88831 10.8671 3.0398 11.2539C2.34417 11.571 2 12.3207 2 13.0851V14.3341" stroke="currentColor" stroke-linecap="round" stroke-linejoin="round"/><path d="M5.99867 8.84221C7.09674 8.84221 7.9869 7.95205 7.9869 6.85398C7.9869 5.75591 7.09674 4.86575 5.99867 4.86575C4.9006 4.86575 4.01044 5.75591 4.01044 6.85398C4.01044 7.95205 4.9006 8.84221 5.99867 8.84221Z" stroke="currentColor" stroke-linecap="round" stroke-linejoin="round"/><path d="M10.5071 9.5C10.5125 8.90938 10.5125 6.45244 10.5105 5.89669M10.5105 5.89669C10.5037 4.03895 10.4751 2.47383 10.5556 1.85481C10.6603 1.05062 11.7551 1.78241 13.063 2.38418L13.6522 2.68665C14.086 2.90926 14.7054 3.30467 14.4332 3.76654C14.3211 3.95681 14.0886 4.17445 13.6593 4.41516L10.5105 5.89669Z" stroke="currentColor" stroke-linecap="round" stroke-linejoin="round"/></svg>