<svg xmlns="http://www.w3.org/2000/svg" viewBox="0 0 14 15" fill="none" aria-hidden="true" width="16" height="16"><path d="M10.3216 12.5278V13.8" stroke="currentColor" stroke-width="0.748444" stroke-linecap="round" stroke-linejoin="round"/><path d="M3.70627 12.5278V13.8" stroke="currentColor" stroke-width="0.891304" stroke-linecap="round" stroke-linejoin="round"/><path d="M2.20279 7.1153C2.20279 3.81556 2.20279 4.8 2.20279 4.8C4.09799 4.8 11.8251 4.8 11.8251 4.8C11.8251 4.8 11.8251 5.97229 11.8251 7.1153V8.91948C11.8251 10.6205 11.8251 11.4709 11.2966 11.9994C10.7682 12.5278 9.91768 12.5278 8.2167 12.5278H5.81114C4.11014 12.5278 3.25965 12.5278 2.73122 11.9994C2.20279 11.4709 2.20279 10.6205 2.20279 8.91948V7.1153Z" stroke="currentColor" stroke-width="0.891304" stroke-linejoin="round"/><path d="M2.20279 4.40905C2.20279 2.14106 2.20279 1.90916 2.90736 1.20458C3.61194 0.500008 4.74593 0.500008 7.01392 0.500008C9.28189 0.500008 10.4159 0.500008 11.1205 1.20458C11.8251 1.90916 11.8251 2.14106 11.8251 4.40905V8.91949C11.8251 10.6205 11.8251 11.4709 11.2966 11.9994C10.7682 12.5278 9.91768 12.5278 8.2167 12.5278H5.81114C4.11014 12.5278 3.25965 12.5278 2.73122 11.9994C2.20279 11.4709 2.20279 10.6205 2.20279 8.91949V4.40905Z" stroke="currentColor" stroke-width="0.891304" stroke-linejoin="round"/><path d="M2.20279 8.31809C3.31956 8.66401 5.09499 8.91948 7.01392 8.91948C8.93284 8.91948 10.7083 8.66401 11.8251 8.31809" stroke="currentColor" stroke-width="0.891304" stroke-linecap="round" stroke-linejoin="round"/><path d="M13.0278 7.7167H12.7104C12.5236 7.7167 12.3395 7.76018 12.1725 7.84365L11.825 8.01739" stroke="currentColor" stroke-width="0.891304" stroke-linecap="round" stroke-linejoin="round"/><path d="M2.20278 8.01739L1.85535 7.84365C1.68834 7.76018 1.50418 7.7167 1.31745 7.7167H1" stroke="currentColor" stroke-width="0.891304" stroke-linecap="round" stroke-linejoin="round"/><path d="M2.50348 10.7237H3.40557" stroke="currentColor" stroke-width="0.891304" stroke-linecap="round" stroke-linejoin="round"/><path d="M10.6223 10.7237H11.5243" stroke="currentColor" stroke-width="0.891304" stroke-linecap="round" stroke-linejoin="round"/><path d="M5.81113 10.7237H8.21669" stroke="currentColor" stroke-width="0.891304" stroke-linecap="round"/><path d="M7.01392 4.322L7.01392 0.499997" stroke="currentColor" stroke-width="0.891304" stroke-linecap="round"/></svg>