<svg xmlns="http://www.w3.org/2000/svg" viewBox="0 0 14 8" fill="none" aria-hidden="true" width="16" height="16"><path d="M3.23695 7.44345C4.74853 7.44345 5.9739 6.21807 5.9739 4.70649C5.9739 3.19492 4.74853 1.96954 3.23695 1.96954C1.72537 1.96954 0.5 3.19492 0.5 4.70649C0.5 6.21807 1.72537 7.44345 3.23695 7.44345Z" stroke="currentColor"/><path d="M10.7643 7.44345C12.2759 7.44345 13.5012 6.21807 13.5012 4.70649C13.5012 3.19492 12.2759 1.96954 10.7643 1.96954C9.25272 1.96954 8.02734 3.19492 8.02734 4.70649C8.02734 6.21807 9.25272 7.44345 10.7643 7.44345Z" stroke="currentColor"/><path d="M9.39513 1.9534C9.07164 1.34831 8.90985 1.04576 8.63087 0.857072C8.56902 0.815215 8.50347 0.777984 8.43492 0.745746C8.12597 0.600403 7.75518 0.600403 7.0136 0.600403C6.2534 0.600403 5.87334 0.600403 5.55924 0.751839C5.48964 0.785403 5.42321 0.824142 5.36066 0.867654C5.07843 1.06399 4.92078 1.3776 4.60547 2.00484" stroke="currentColor" stroke-linecap="round"/><path d="M5.97266 4.02228H8.36749" stroke="currentColor"/><path d="M5.63086 6.07306H8.36781" stroke="currentColor"/><path d="M2.03906 4.59064C2.03906 5.32375 2.77217 6.05686 3.74966 5.56812" stroke="currentColor" stroke-linecap="round" stroke-linejoin="round"/><path d="M9.73633 4.59064C9.73633 5.32375 10.4694 6.05686 11.4469 5.56812" stroke="currentColor" stroke-linecap="round" stroke-linejoin="round"/></svg>