<svg xmlns="http://www.w3.org/2000/svg" viewBox="0 0 16 16" fill="none" aria-hidden="true" width="16" height="16"><path d="M12 1.33333V2.66667M4 1.33333V2.66667" stroke="currentColor" stroke-linecap="round" stroke-linejoin="round"/><path d="M1.66667 8.16213C1.66667 5.25729 1.66667 3.80485 2.50142 2.90243C3.33617 2 4.67967 2 7.36667 2H8.63334C11.3203 2 12.6639 2 13.4986 2.90243C14.3333 3.80485 14.3333 5.25729 14.3333 8.16213V8.50453C14.3333 11.4094 14.3333 12.8618 13.4986 13.7643C12.6639 14.6667 11.3203 14.6667 8.63334 14.6667H7.36667C4.67967 14.6667 3.33617 14.6667 2.50142 13.7643C1.66667 12.8618 1.66667 11.4094 1.66667 8.50453V8.16213Z" stroke="currentColor" stroke-linecap="round" stroke-linejoin="round"/><path d="M1.66667 8C1.66667 9.22727 2.66159 10.2222 3.88889 10.2222C4.33275 10.2222 4.85603 10.1445 5.28758 10.2601C5.67102 10.3628 5.97051 10.6623 6.07326 11.0457C6.18889 11.4773 6.11112 12.0006 6.11112 12.4445C6.11112 13.6717 7.10607 14.6667 8.33334 14.6667" stroke="currentColor" stroke-linecap="round" stroke-linejoin="round"/><path d="M2 5.33333H14" stroke="currentColor" stroke-linecap="round" stroke-linejoin="round"/></svg>