<svg xmlns="http://www.w3.org/2000/svg" viewBox="0 0 16 16" fill="none" aria-hidden="true" width="16" height="16"><path d="M10 1.33333L10.3592 2.92772C10.6638 4.2801 11.7199 5.33621 13.0723 5.64085L14.6667 6L13.0723 6.35915C11.7199 6.66379 10.6638 7.7199 10.3592 9.07228L10 10.6667L9.64085 9.07228C9.33621 7.7199 8.2801 6.66379 6.92772 6.35915L5.33334 6L6.92772 5.64085C8.2801 5.33621 9.33621 4.2801 9.64085 2.92772L10 1.33333Z" stroke="currentColor" stroke-linejoin="round"/><path d="M4.66667 8L4.92321 9.13885C5.14081 10.1048 5.89517 10.8592 6.86116 11.0768L8 11.3333L6.86116 11.5899C5.89517 11.8075 5.14081 12.5618 4.92321 13.5278L4.66667 14.6667L4.41013 13.5278C4.19253 12.5618 3.43817 11.8075 2.47218 11.5899L1.33334 11.3333L2.47218 11.0768C3.43817 10.8592 4.19253 10.1048 4.41013 9.13885L4.66667 8Z" stroke="currentColor" stroke-linejoin="round"/></svg>