<svg xmlns="http://www.w3.org/2000/svg" viewBox="0 0 16 16" fill="none" aria-hidden="true" width="16" height="16"><path d="M4 11.3334V13.3334M12 11.3334V13.3334" stroke="currentColor" stroke-linecap="round" stroke-linejoin="round"/><path d="M13.3333 5.99996C13.3333 4.75381 13.3333 4.13073 13.0654 3.66663C12.8898 3.36259 12.6374 3.11011 12.3333 2.93457C11.8692 2.66663 11.2461 2.66663 9.99996 2.66663H5.99996C4.75381 2.66663 4.13073 2.66663 3.66663 2.93457C3.36259 3.11011 3.11011 3.36259 2.93457 3.66663C2.66663 4.13073 2.66663 4.75381 2.66663 5.99996" stroke="currentColor" stroke-linecap="round" stroke-linejoin="round"/><path d="M13.3334 6C12.597 6 12 6.59695 12 7.33333V8.66667C12 9.2182 11.8849 9.33333 11.3334 9.33333H4.66671C4.11515 9.33333 4.00004 9.2182 4.00004 8.66667V7.33333C4.00004 6.59695 3.40309 6 2.66671 6C1.93033 6 1.33337 6.59695 1.33337 7.33333C1.33337 7.82687 1.60151 8.25773 2.00004 8.48827V8.66667C2.00004 9.92373 2.00004 10.5523 2.39057 10.9428C2.78109 11.3333 3.40963 11.3333 4.66671 11.3333H11.3334C12.5904 11.3333 13.219 11.3333 13.6095 10.9428C14 10.5523 14 9.92373 14 8.66667V8.48827C14.3986 8.25773 14.6667 7.82687 14.6667 7.33333C14.6667 6.59695 14.0698 6 13.3334 6Z" stroke="currentColor" stroke-linejoin="round"/></svg>