<svg xmlns="http://www.w3.org/2000/svg" viewBox="0 0 16 16" fill="none" aria-hidden="true" width="16" height="16"><g><path d="M12.6667 14.6667L9.33333 8.66667L6 14.6667" stroke="currentColor" stroke-linecap="round" stroke-linejoin="round"/><path d="M10.6131 2.66667L4.68477 6.1706C4.02995 6.55763 3.80559 7.4148 4.18365 8.0852L4.86819 9.299C5.24625 9.96933 6.08357 10.199 6.7384 9.812L12.6667 6.30806" stroke="currentColor" stroke-linejoin="round"/><path d="M10.813 2.97048C10.5118 2.44852 10.6905 1.78108 11.2123 1.47973C11.734 1.17837 12.4011 1.35721 12.7023 1.87917L14.5203 5.02952C14.8215 5.55149 14.6428 6.21892 14.1211 6.52028C13.5993 6.82167 12.9322 6.64279 12.631 6.12083L10.813 2.97048Z" stroke="currentColor" stroke-linecap="round" stroke-linejoin="round"/><path d="M1.33333 9.50967L1.82544 10.4215M1.82544 10.4215L2.31755 11.3333M1.82544 10.4215L4.33333 9" stroke="currentColor" stroke-linecap="round" stroke-linejoin="round"/></g></svg>