<svg xmlns="http://www.w3.org/2000/svg" viewBox="0 0 16 16" fill="none" aria-hidden="true" width="16" height="16"><path d="M6.81684 11.8014C7.82814 11.8014 8.67758 11.1188 8.91614 10.196C9.02713 9.76663 8.86601 9.66807 8.44142 9.66807H5.19223C4.76764 9.66807 4.60654 9.76663 4.71753 10.196C4.95608 11.1188 5.80553 11.8014 6.81684 11.8014Z" stroke="currentColor" stroke-linecap="round" stroke-linejoin="round"/><path d="M4.14896 7.26741C4.14896 6.82559 4.50713 6.46741 4.94896 6.46741C5.39079 6.46741 5.74896 6.82559 5.74896 7.26741M7.88229 7.26741C7.88229 6.82559 8.24048 6.46741 8.68229 6.46741C9.1241 6.46741 9.48229 6.82559 9.48229 7.26741" stroke="currentColor" stroke-linecap="round" stroke-linejoin="round"/><path d="M1.405 4.83915C1.35121 4.19366 1.90952 3.66467 2.55117 3.75317C5.20382 4.11905 7.89334 4.13081 10.5491 3.78813L10.8277 3.75219C11.534 3.66104 12.1446 4.24457 12.0854 4.95434L11.667 9.97575C11.4539 12.533 9.31612 14.5 6.75 14.5C4.18388 14.5 2.04615 12.533 1.83305 9.97575L1.405 4.83915Z" stroke="currentColor"/><path d="M4.23333 4L4.17363 3.64184C4.03787 2.82727 4.73081 2.1146 5.54887 2.22743V2.22743C7.66247 2.51896 9.80544 2.52833 11.9215 2.25529L12.2447 2.21358C13.0965 2.10367 13.8327 2.80733 13.7614 3.66322L13.2383 9.94048C13.1413 11.1046 12.1681 12 11 12V12" stroke="currentColor"/></svg>