<svg xmlns="http://www.w3.org/2000/svg" viewBox="0 0 16 16" fill="none" aria-hidden="true" width="16" height="16"><path d="M2.0411 9.62753L2.28459 8.199C2.57238 6.51055 2.71627 5.66634 3.2861 5.1665C3.85593 4.66666 4.67448 4.66666 6.31156 4.66666H9.68847C11.3255 4.66666 12.1441 4.66666 12.7139 5.1665C13.2837 5.66634 13.4276 6.51055 13.7154 8.199L13.9589 9.62753C14.3571 11.964 14.5563 13.1322 13.9431 13.8994C13.33 14.6667 12.1973 14.6667 9.93194 14.6667H6.06807C3.80271 14.6667 2.67003 14.6667 2.05689 13.8994C1.44375 13.1322 1.64287 11.964 2.0411 9.62753Z" stroke="currentColor"/><path d="M5 6L5.14334 3.99322C5.25039 2.49451 6.49747 1.33334 8 1.33334C9.50253 1.33334 10.7496 2.49451 10.8567 3.99322L11 6" stroke="currentColor" stroke-linecap="round"/></svg>