<svg xmlns="http://www.w3.org/2000/svg" viewBox="0 0 14 12" fill="none" aria-hidden="true" width="16" height="16"><path d="M13.214 10.758C12.7784 11.4257 12.2153 11.4257 11.7691 10.758C10.3344 8.56478 8.96781 12.3356 7.95485 10.7827C6.4101 8.45589 5.29902 12.4914 4.14065 10.758C2.6301 8.44877 1.68908 12.2728 0.5 11.0064" stroke="currentColor" stroke-width="0.926646" stroke-linecap="round"/><circle cx="7" cy="2.5" r="1.5" stroke="currentColor" stroke-width="0.926646" stroke-linecap="round" stroke-linejoin="round"/><path d="M1 8.5C1.5 7.32771 3.79257 5.5 6 5.5M12.9 2C12.6176 3.12973 11.5704 4.88899 8.5 5.5M6 5.5C6.11425 6.5436 5.5 8.5 5.5 8.5M6 5.5C6 5.5 7.5 5.5 8.5 5.5M8.5 5.5L8.3357 8.60643" stroke="currentColor" stroke-linecap="round" stroke-linejoin="round"/></svg>