<svg xmlns="http://www.w3.org/2000/svg" viewBox="0 0 16 16" fill="none" aria-hidden="true" width="16" height="16"><path d="M11.3333 3C11.3333 3.55229 10.8856 4 10.3333 4C9.78106 4 9.33333 3.55229 9.33333 3C9.33333 2.44771 9.78106 2 10.3333 2C10.8856 2 11.3333 2.44771 11.3333 3Z" stroke="currentColor"/><path d="M10 14.0005L9.55727 12.2565C9.41073 11.6794 9.10767 11.1523 8.68047 10.7316L7.66667 9.7332M7.66667 9.7332C6.9948 9.20393 6.65889 8.93933 6.52875 8.5856C6.47078 8.428 6.44309 8.26093 6.44713 8.09313C6.45619 7.71633 6.6888 7.35747 7.15393 6.63971L8 5.33424M7.66667 9.7332L10 6.18495M4 7.4356C4.66667 6.12244 5.69178 5.36153 8 5.33424M8 5.33424C8.14573 5.33251 8.36293 5.33199 8.57987 5.33203C8.91647 5.33209 9.08473 5.33212 9.2188 5.39476C9.35287 5.45739 9.4904 5.62171 9.76547 5.95032C9.84427 6.04448 9.9252 6.12884 10 6.18495M10 6.18495C10.7698 6.7622 11.9751 6.99473 13.3333 5.46609" stroke="currentColor" stroke-linecap="round" stroke-linejoin="round"/><path d="M2.66667 11.8202L3.11882 11.9277C4.27109 12.2019 5.46883 11.6776 6 10.6667" stroke="currentColor" stroke-linecap="round" stroke-linejoin="round"/><circle cx="12.5" cy="12" r="1" fill="currentColor"/></svg>