<svg xmlns="http://www.w3.org/2000/svg" viewBox="0 0 16 16" fill="none" aria-hidden="true" width="16" height="16"><g><path d="M11.3333 13.6666V14.6666" stroke="currentColor" stroke-linecap="round" stroke-linejoin="round"/><path d="M4.66669 13.6666V14.6666" stroke="currentColor" stroke-linecap="round" stroke-linejoin="round"/><path d="M2.66669 4.52128C2.66669 4.09505 2.66669 3.88193 2.7826 3.62241C2.89851 3.36289 3.0162 3.25741 3.25159 3.04647C4.02293 2.35522 5.57355 1.33337 8.00002 1.33337C10.4265 1.33337 11.9771 2.35522 12.7484 3.04647C12.9838 3.25741 13.1016 3.36289 13.2174 3.62241C13.3334 3.88193 13.3334 4.09505 13.3334 4.52128V9.33337C13.3334 11.219 13.3334 12.1618 12.7476 12.7476C12.1618 13.3334 11.219 13.3334 9.33335 13.3334H6.66669C4.78107 13.3334 3.83826 13.3334 3.25247 12.7476C2.66669 12.1618 2.66669 11.219 2.66669 9.33337V4.52128Z" stroke="currentColor" stroke-linejoin="round"/><path d="M2.66669 9.33337C2.66669 9.33337 5.15557 10 8.00002 10C10.8445 10 13.3334 9.33337 13.3334 9.33337" stroke="currentColor" stroke-linecap="round" stroke-linejoin="round"/><path d="M3 11.6666H4" stroke="currentColor" stroke-linecap="round" stroke-linejoin="round"/><path d="M12 11.6666H13" stroke="currentColor" stroke-linecap="round" stroke-linejoin="round"/><path d="M7.33331 11.6666H8.66665" stroke="currentColor" stroke-linecap="round" stroke-linejoin="round"/><path d="M2.66669 4H13.3334" stroke="currentColor" stroke-linejoin="round"/><path d="M1.33337 6V6.66667" stroke="currentColor" stroke-linecap="round" stroke-linejoin="round"/><path d="M14.6667 6V6.66667" stroke="currentColor" stroke-linecap="round" stroke-linejoin="round"/></g></svg>