<svg xmlns="http://www.w3.org/2000/svg" viewBox="0 0 16 16" fill="none" aria-hidden="true" width="16" height="16"><path d="M1.33333 5.71271C1.33333 4.91526 1.65491 4.42655 2.32041 4.05619L5.05991 2.53163C6.49539 1.73277 7.21313 1.33333 7.99999 1.33333C8.78686 1.33333 9.5046 1.73277 10.9401 2.53163L13.6796 4.05619C14.3451 4.42655 14.6667 4.91527 14.6667 5.71271C14.6667 5.92895 14.6667 6.03707 14.6431 6.12596C14.519 6.59297 14.0958 6.66667 13.6871 6.66667H2.31285C1.90417 6.66667 1.48101 6.59296 1.35694 6.12596C1.33333 6.03707 1.33333 5.92895 1.33333 5.71271Z" stroke="currentColor"/><path d="M3 7V12M6 7V12" stroke="currentColor"/><path d="M10 7V12M13 7V12" stroke="currentColor"/><path d="M12.6667 12.3333H3.33333C2.22876 12.3333 1.33333 13.1008 1.33333 14.0476C1.33333 14.2054 1.48257 14.3333 1.66666 14.3333H14.3333C14.5174 14.3333 14.6667 14.2054 14.6667 14.0476C14.6667 13.1008 13.7713 12.3333 12.6667 12.3333Z" stroke="currentColor"/></svg>