<svg xmlns="http://www.w3.org/2000/svg" viewBox="0 0 16 12" fill="none" aria-hidden="true" width="16" height="16"><path d="M4.04402 6.14392H4.03803" stroke="currentColor" stroke-linecap="round" stroke-linejoin="round"/><path d="M7.33985 8.81234C7.64586 8.91329 7.93905 9.02955 8.20465 9.21553M8.20465 9.21553L10 10C7.40413 11.5016 5.35925 9.35041 5.35925 9.35041C3.71434 9.01826 2.20235 7.96774 1.39804 6.19893C3.37865 1.84331 9.65056 1.84331 11.6312 6.19893M8.20465 9.21553C9.5 9 10.9149 7.77411 11.6312 6.19893M11.6312 6.19893C11.8512 5.7634 13.0176 4.23891 14.6021 4.23891C14.0519 4.78336 13.1496 6.85227 13.9419 8.15901C13.1496 8.15901 11.9613 6.63453 11.6312 6.19893ZM8.70096 3.35895C9.38809 2.87795 9.4855 1.68757 9.32046 1.04862C7.00974 1.19242 5.35925 3.04748 5.35925 3.04748" stroke="currentColor" stroke-linecap="round" stroke-linejoin="round"/></svg>