<svg xmlns="http://www.w3.org/2000/svg" viewBox="0 0 16 10" fill="none" aria-hidden="true" width="28"><g><path d="M0 0.999999C0 0.447715 0.447715 0 1 0H15C15.5523 0 16 0.447715 16 1V8.41177C16 8.96405 15.5523 9.41177 15 9.41177H1C0.447715 9.41177 0 8.96405 0 8.41177V0.999999Z" fill="#26A6D1"/><path d="M2.12874 2.7677L0.411621 6.49303H2.46714L2.72202 5.89899H3.30458L3.55946 6.49303H5.82186V6.0397L6.02346 6.49303H7.19386L7.39546 6.03013V6.49303H12.1011L12.6732 5.91452L13.2091 6.49303L15.6259 6.4979L13.9035 4.6408L15.6259 2.7677H13.2465L12.6895 3.33554L12.1707 2.7677H7.05162L6.6121 3.72927L6.16218 2.7677H4.11082V3.20566L3.88266 2.7677H2.12874ZM2.5265 3.29664H3.52842L4.6673 5.82213V3.29664H5.7649L6.6449 5.10793L7.45562 3.29664H8.54778V5.9699H7.88298L7.87802 3.87515L6.90874 5.9699H6.31418L5.33994 3.87531V5.9699H3.9729L3.7137 5.37068H2.31338L2.05402 5.96927H1.32234L2.5265 3.29664ZM9.15562 3.29664H11.8577L12.6841 4.17193L13.5372 3.29664H14.3636L13.1079 4.6397L14.3636 5.9677H13.4996L12.6732 5.08237L11.8158 5.9677H9.15546V3.29664H9.15562ZM3.01402 3.74903L2.55274 4.81664H3.47482L3.01402 3.74903ZM9.82298 3.85021V4.33821H11.2971V4.88205H9.82282V5.41539H11.4763L12.2443 4.63107L11.5083 3.85068H9.82282L9.82298 3.85021Z" fill="white"/></g></svg>