<svg xmlns="http://www.w3.org/2000/svg" viewBox="0 0 14 14" fill="none" aria-hidden="true" width="16" height="16"><path d="M3.20833 4.00601H8.625C9.63748 4.00601 10.1437 4.00601 10.5208 4.22372C10.7679 4.36635 10.973 4.57146 11.1156 4.81851C11.3333 5.19562 11.3333 5.70186 11.3333 6.71435C11.3333 7.72683 11.3333 8.23307 11.1156 8.61018C10.973 8.85723 10.7679 9.06236 10.5208 9.20498C10.1437 9.42268 9.63748 9.42268 8.625 9.42268H8.41175C8.03967 9.42268 7.85361 9.42268 7.67957 9.384C7.44655 9.33227 7.22782 9.22979 7.03889 9.08392C6.89773 8.97494 6.77862 8.83205 6.54045 8.54621C6.35065 8.31844 6.25575 8.20458 6.14682 8.15344C6.001 8.08503 5.83233 8.08503 5.68651 8.15344C5.57758 8.20458 5.48268 8.31844 5.29288 8.54621C5.05471 8.83205 4.9356 8.97494 4.79446 9.08392C4.60552 9.22979 4.38678 9.33227 4.15377 9.384C3.9797 9.42268 3.79366 9.42268 3.42158 9.42268H3.20833C2.19583 9.42268 1.68958 9.42268 1.3125 9.20498C1.06547 9.06236 0.860333 8.85723 0.717707 8.61018C0.5 8.23307 0.5 7.72683 0.5 6.71435C0.5 5.70186 0.5 5.19562 0.717707 4.81851C0.860333 4.57146 1.06547 4.36635 1.3125 4.22372C1.68958 4.00601 2.19583 4.00601 3.20833 4.00601Z" stroke="currentColor" stroke-linecap="round" stroke-linejoin="round"/><path d="M8.08333 12.5682L8.8766 12.5682C9.65775 12.5682 10.0483 12.5682 10.4123 12.4686C10.6122 12.4139 10.8049 12.3372 10.9866 12.2402C11.3173 12.0636 11.5935 11.7985 12.1458 11.2682C12.6982 10.7379 12.9744 10.4728 13.1584 10.1553C13.2594 9.98093 13.3393 9.79587 13.3963 9.60392C13.5 9.25455 13.5 8.87963 13.5 8.12972L13.5 0.839996" stroke="currentColor" stroke-linecap="round" stroke-linejoin="round"/><path d="M3.75073 12.3796C3.75073 12.1131 3.7244 11.8054 3.98762 11.6535C4.09756 11.59 4.24516 11.59 4.54035 11.59H6.75131C7.0465 11.59 7.1941 11.59 7.30405 11.6535C7.56728 11.8054 7.54093 12.1131 7.54093 12.3796C7.54093 12.6462 7.56728 12.9538 7.30405 13.1058C7.1941 13.1692 7.0465 13.1692 6.75131 13.1692H4.54035C4.24516 13.1692 4.09756 13.1692 3.98762 13.1058C3.7244 12.9538 3.75073 12.6462 3.75073 12.3796Z" stroke="currentColor" stroke-linecap="round" stroke-linejoin="round"/><path d="M2.93865 3.62185C2.93865 3.203 2.89727 2.71956 3.3109 2.48078C3.48366 2.38101 3.71561 2.38101 4.17948 2.38101H7.65384C8.11772 2.38101 8.34966 2.38101 8.52243 2.48078C8.93608 2.71956 8.89468 3.203 8.89468 3.62185" stroke="currentColor" stroke-linecap="round" stroke-linejoin="round"/></svg>