<svg xmlns="http://www.w3.org/2000/svg" viewBox="0 0 15 14" fill="none" aria-hidden="true" width="16" height="16"><path d="M13.3734 5.40143C13.0271 5.85833 12.376 5.94802 11.9192 5.6018C11.4623 5.25558 11.3726 4.6045 11.7188 4.1476C12.065 3.6907 12.7161 3.601 13.173 3.94723C13.6299 4.29345 13.7196 4.94453 13.3734 5.40143Z" stroke="currentColor"/><path d="M2.04956 12.3213C5.51069 13.3595 6.3341 11.6301 6.3341 10.1341L6.1213 8.67261M6.1213 8.67261C5.89728 7.81355 5.78527 7.38406 5.89937 7.00984C5.95021 6.84311 6.03203 6.68754 6.14057 6.55125C6.38429 6.24521 6.8017 6.09415 7.63648 5.79196L9.15483 5.24237M6.1213 8.67261L10.2761 7.19998M9.6357 1.5957C9.6357 1.5957 7.22816 3.8179 9.15483 5.24237M9.15483 5.24237C9.27648 5.3323 9.45649 5.46804 9.63593 5.60407C9.91436 5.81513 10.0535 5.92065 10.1252 6.05652C10.1968 6.19238 10.2076 6.41454 10.2291 6.85884C10.2353 6.98614 10.2494 7.10666 10.2761 7.19998M10.2761 7.19998C10.551 8.16013 11.4024 9.10814 13.4844 8.69498" stroke="currentColor" stroke-linecap="round" stroke-linejoin="round"/><path d="M0.558856 7.83708L0.968798 8.09139C2.01349 8.73956 3.36502 8.61646 4.21991 7.79533" stroke="currentColor" stroke-linecap="round" stroke-linejoin="round"/><path d="M6.54688 5.74796L6.50636 5.68719C5.63035 4.37317 5.16289 2.82925 5.16289 1.25V1.25M5.16289 1.25H6.54688M5.16289 1.25H2.74091" stroke="currentColor" stroke-linecap="round" stroke-linejoin="round"/></svg>