<svg xmlns="http://www.w3.org/2000/svg" viewBox="0 0 14 14" fill="none" aria-label="Classes" aria-hidden="false" width="18" height="18"><path d="M7.65035 9.00159C6.16067 12.9018 1.98966 9.00159 0.5 12.9018" stroke="currentColor" stroke-width="0.949936" stroke-linecap="round" stroke-linejoin="round"/><path d="M9.27309 9.00119H10.249C11.7811 9.00119 12.5472 9.00119 13.0232 8.52523C13.4991 8.04921 13.4991 7.28315 13.4991 5.75103V4.45096C13.4991 2.91883 13.4991 2.15276 13.0232 1.67678C12.5472 1.20081 11.7811 1.20081 10.249 1.20081H7.64885C6.11673 1.20081 5.35064 1.20081 4.87467 1.67678C4.47138 2.08006 4.4098 2.69161 4.40039 3.80093" stroke="currentColor" stroke-width="0.949936" stroke-linecap="round" stroke-linejoin="round"/><path d="M4.07625 8.99979C4.97376 8.99979 5.70133 8.27222 5.70133 7.37471C5.70133 6.47721 4.97376 5.74963 4.07625 5.74963C3.17874 5.74963 2.45117 6.47721 2.45117 7.37471C2.45117 8.27222 3.17874 8.99979 4.07625 8.99979Z" stroke="currentColor" stroke-width="0.949936" stroke-linecap="round" stroke-linejoin="round"/><path d="M7 3.80042H10.9002M10.9002 6.40054H8.95009" stroke="currentColor" stroke-width="0.949936" stroke-linecap="round" stroke-linejoin="round"/></svg>