<svg xmlns="http://www.w3.org/2000/svg" viewBox="0 0 16 16" fill="none" aria-hidden="true" width="16" height="16"><path d="M5 11.5V14.5" stroke="currentColor" stroke-linecap="round" stroke-linejoin="round"/><path d="M11 11V14.5" stroke="currentColor" stroke-linecap="round" stroke-linejoin="round"/><path d="M3.65134 7.69048V2.56906C3.65134 1.97863 4.15391 1.5 4.77385 1.5C5.3938 1.5 5.89636 1.97863 5.89636 2.56906V6.39936M5.5 9.11905L7.90848 8.79868C8.53432 8.71543 8.9463 8.13386 8.79304 7.55001C8.66934 7.07877 8.21177 6.75753 7.70252 6.78442L5.15461 6.91893C4.15028 6.97196 3.35943 7.75465 3.34237 8.71249C3.31509 10.2443 4.61142 11.5 6.22003 11.5H9.18224C10.8391 11.5 12.1822 10.2208 12.1822 8.64286V2.53916C12.1822 1.96525 11.6937 1.5 11.0911 1.5C10.4885 1.5 10 1.96525 10 2.53916V6.9015C10 7.40667 9.71403 7.79039 9.18711 7.73234C9.00982 7.71281 8.875 7.69048 8.875 7.69048" stroke="currentColor" stroke-linecap="round" stroke-linejoin="round"/><path d="M6 3.88101C6 3.88101 7 3.40476 8 3.881" stroke="currentColor" stroke-linecap="round"/><path d="M8 3.88101C8 3.88101 9 3.40476 10 3.881" stroke="currentColor" stroke-linecap="round"/><path d="M8 3.88095V6.73809" stroke="currentColor" stroke-linecap="round"/><path d="M5 13.25H11" stroke="currentColor" stroke-linecap="round" stroke-linejoin="round"/><path d="M13.3884 11.2885C13.4396 11.1759 13.5995 11.1759 13.6507 11.2885L13.9527 11.953C13.9796 12.0121 14.027 12.0595 14.0861 12.0864L14.7505 12.3884C14.8631 12.4396 14.8631 12.5995 14.7505 12.6507L14.0861 12.9527C14.027 12.9796 13.9796 13.027 13.9527 13.0861L13.6507 13.7505C13.5995 13.8631 13.4396 13.8631 13.3884 13.7505L13.0864 13.0861C13.0595 13.027 13.0121 12.9796 12.953 12.9527L12.2885 12.6507C12.1759 12.5995 12.1759 12.4396 12.2885 12.3884L12.953 12.0864C13.0121 12.0595 13.0595 12.0121 13.0864 11.953L13.3884 11.2885Z" fill="currentColor"/></svg>