<svg xmlns="http://www.w3.org/2000/svg" xmlns:xlink="http://www.w3.org/1999/xlink" viewBox="0 0 1024 1024" width="1024" height="1024" preserveAspectRatio="xMidYMid meet" style="width: 100%; height: 100%; transform: translate3d(0px, 0px, 0px); content-visibility: visible;"><defs><clipPath id="__lottie_element_6"><rect width="1024" height="1024" x="0" y="0"/></clipPath><symbol id="__lottie_element_15"><g><g style="display: none;"><g><path/></g></g></g></symbol><mask id="__lottie_element_15_1" mask-type="alpha"><use xmlns:ns1="http://www.w3.org/1999/xlink" ns1:href="#__lottie_element_15"/></mask><symbol id="__lottie_element_21"><g><g transform="matrix(1,0,0,1,0,0)" opacity="1" style="display: block;"><g opacity="1" transform="matrix(1,0,0,1,511.5199890136719,212.47999572753906)"><path fill="rgb(91,91,91)" fill-opacity="1" d=" M-167.52000427246094,-132 C-167.52000427246094,-132 167.52000427246094,-132 167.52000427246094,-132 C167.52000427246094,-132 339.6000061035156,-41.040000915527344 339.6000061035156,-41.040000915527344 C339.6000061035156,-41.040000915527344 231.27999877929688,82.72000122070312 231.27999877929688,82.72000122070312 C231.27999877929688,82.72000122070312 0,132 0,132 C0,132 -231.27999877929688,82.72000122070312 -231.27999877929688,82.72000122070312 C-231.27999877929688,82.72000122070312 -339.6000061035156,-41.040000915527344 -339.6000061035156,-41.040000915527344 C-339.6000061035156,-41.040000915527344 -167.52000427246094,-132 -167.52000427246094,-132z"/></g></g></g></symbol><mask id="__lottie_element_21_1" mask-type="alpha"><use xmlns:ns2="http://www.w3.org/1999/xlink" ns2:href="#__lottie_element_21"/></mask><filter id="__lottie_element_35"><feMorphology operator="erode" in="SourceGraphic" radius="1"/></filter><mask id="__lottie_element_34"><path fill="#ffffff" clip-rule="nonzero" stroke="#ffffff" d=" M678,81 C678,81 340,81 340,81 C340,81 239.3780059814453,134.5469970703125 239.3780059814453,134.5469970703125 C239.3780059814453,134.5469970703125 169,172 169,172 C169,172 31,383 31,383 C31,383 350.06500244140625,752.47900390625 350.06500244140625,752.47900390625 C350.06500244140625,752.47900390625 512,940 512,940 C512,940 937.7490234375,444.77801513671875 937.7490234375,444.77801513671875 C937.7490234375,444.77801513671875 990,384 990,384 C990,384 931.5759887695312,294.24700927734375 931.5759887695312,294.24700927734375 C931.5759887695312,294.24700927734375 852,172 852,172 C852,172 678,81 678,81" fill-opacity="1" filter="url(#__lottie_element_35)"/></mask></defs><g clip-path="url(#__lottie_element_6)"><g mask="url(#__lottie_element_34)" transform="matrix(1,0,0,1,0,0)" opacity="1" style="display: block;"><rect width="1024" height="1024" fill="#ddf3fd"/></g><g transform="matrix(1,0,0,1,0,0)" opacity="1" style="display: block;"><g opacity="1" transform="matrix(1,0,0,1,751.239990234375,660.8400268554688)"><path fill="rgb(179,228,251)" fill-opacity="1" d=" M-239.72000122070312,277.32000732421875 C-239.72000122070312,277.32000732421875 239.72000122070312,-277.32000732421875 239.72000122070312,-277.32000732421875 C239.72000122070312,-277.32000732421875 -81.08000183105469,-114.76000213623047 -81.08000183105469,-114.76000213623047 C-81.08000183105469,-114.76000213623047 -239.72000122070312,277.32000732421875 -239.72000122070312,277.32000732421875z"/></g><g opacity="1" transform="matrix(1,0,0,1,830.5599975585938,420.6400146484375)"><path fill="rgb(129,211,249)" fill-opacity="1" d=" M-160.39999389648438,125.44000244140625 C-160.39999389648438,125.44000244140625 160.39999389648438,-37.119998931884766 160.39999389648438,-37.119998931884766 C160.39999389648438,-37.119998931884766 -87.76000213623047,-125.44000244140625 -87.76000213623047,-125.44000244140625 C-87.76000213623047,-125.44000244140625 -160.39999389648438,125.44000244140625 -160.39999389648438,125.44000244140625z"/></g><g opacity="1" transform="matrix(1,0,0,1,866.8800048828125,277.4800109863281)"><path fill="rgb(2,135,209)" fill-opacity="1" d=" M124.08000183105469,106.04000091552734 C124.08000183105469,106.04000091552734 -15.760000228881836,-106.04000091552734 -15.760000228881836,-106.04000091552734 C-15.760000228881836,-106.04000091552734 -124.08000183105469,17.719999313354492 -124.08000183105469,17.719999313354492 C-124.08000183105469,17.719999313354492 124.08000183105469,106.04000091552734 124.08000183105469,106.04000091552734z"/></g><g opacity="1" transform="matrix(1,0,0,1,156.16000366210938,277.4800109863281)"><path fill="rgb(100,181,246)" fill-opacity="1" d=" M-36.08000183105469,2.0399999618530273 C-36.08000183105469,2.0399999618530273 187.25999450683594,-196.5399932861328 187.25999450683594,-196.5399932861328 C187.25999450683594,-196.5399932861328 14.079999923706055,-106.27999877929688 14.079999923706055,-106.27999877929688 C14.079999923706055,-106.27999877929688 -36.08000183105469,2.0399999618530273 -36.08000183105469,2.0399999618530273z"/></g><g opacity="1" transform="matrix(1,0,0,1,271.79998779296875,660.8400268554688)"><path fill="rgb(30,136,229)" fill-opacity="1" d=" M239.72000122070312,237.32000732421875 C239.72000122070312,237.32000732421875 -151.72000122070312,-381.32000732421875 -151.72000122070312,-381.32000732421875 C-151.72000122070312,-381.32000732421875 -238.9199981689453,-277.510009765625 -238.9199981689453,-277.510009765625 C-238.9199981689453,-277.510009765625 239.72000122070312,237.32000732421875 239.72000122070312,237.32000732421875z"/></g><g opacity="1" transform="matrix(1,0,0,1,192.47999572753906,420.6400146484375)"><path fill="rgb(224,245,253)" fill-opacity="1" d=" M-159.60000610351562,-37.310001373291016 C-159.60000610351562,-37.310001373291016 -72.4000015258789,-141.1199951171875 -72.4000015258789,-141.1199951171875 C-72.4000015258789,-141.1199951171875 -22.239999771118164,-249.44000244140625 -22.239999771118164,-249.44000244140625 C-22.239999771118164,-249.44000244140625 -159.60000610351562,-37.310001373291016 -159.60000610351562,-37.310001373291016z"/></g><g opacity="1" transform="matrix(1,0,0,1,156.16000366210938,277.4800109863281)"><path fill="rgb(224,245,253)" fill-opacity="1" d=" M-124.08000183105469,106.04000091552734 C-124.08000183105469,106.04000091552734 15.760000228881836,-106.04000091552734 15.760000228881836,-106.04000091552734 C15.760000228881836,-106.04000091552734 124.08000183105469,17.719999313354492 124.08000183105469,17.719999313354492 C124.08000183105469,17.719999313354492 -124.08000183105469,106.04000091552734 -124.08000183105469,106.04000091552734z"/></g><g opacity="1" transform="matrix(1,0,0,1,192.47999572753906,420.6400146484375)"><path fill="rgb(129,211,249)" fill-opacity="1" d=" M160.39999389648438,125.44000244140625 C160.39999389648438,125.44000244140625 -160.39999389648438,-37.119998931884766 -160.39999389648438,-37.119998931884766 C-160.39999389648438,-37.119998931884766 87.76000213623047,-125.44000244140625 87.76000213623047,-125.44000244140625 C87.76000213623047,-125.44000244140625 160.39999389648438,125.44000244140625 160.39999389648438,125.44000244140625z"/></g><g opacity="1" transform="matrix(1,0,0,1,271.79998779296875,660.8400268554688)"><path fill="rgb(30,135,228)" fill-opacity="1" d=" M239.72000122070312,277.32000732421875 C239.72000122070312,277.32000732421875 -239.72000122070312,-277.32000732421875 -239.72000122070312,-277.32000732421875 C-239.72000122070312,-277.32000732421875 81.08000183105469,-114.76000213623047 81.08000183105469,-114.76000213623047 C81.08000183105469,-114.76000213623047 239.72000122070312,277.32000732421875 239.72000122070312,277.32000732421875z"/></g><g opacity="1" transform="matrix(1,0,0,1,395.8800048828125,420.6400146484375)"><path fill="rgb(99,181,246)" fill-opacity="1" d=" M115.63999938964844,-76.16000366210938 C115.63999938964844,-76.16000366210938 -115.63999938964844,-125.44000244140625 -115.63999938964844,-125.44000244140625 C-115.63999938964844,-125.44000244140625 -43,125.44000244140625 -43,125.44000244140625 C-43,125.44000244140625 115.63999938964844,-76.16000366210938 115.63999938964844,-76.16000366210938z"/></g><g opacity="1" transform="matrix(1,0,0,1,511.5199890136719,742.1199951171875)"><path fill="rgb(224,245,253)" fill-opacity="1" d=" M158.63999938964844,-196.0399932861328 C158.63999938964844,-196.0399932861328 158.63999938964844,-196.0399932861328 158.63999938964844,-196.0399932861328 C158.63999938964844,-196.0399932861328 0,196.0399932861328 0,196.0399932861328 C0,196.0399932861328 -158.63999938964844,-196.0399932861328 -158.63999938964844,-196.0399932861328 C-158.63999938964844,-196.0399932861328 158.63999938964844,-196.0399932861328 158.63999938964844,-196.0399932861328z"/></g><g opacity="1" transform="matrix(1,0,0,1,511.5199890136719,445.2799987792969)"><path fill="rgb(177,235,241)" fill-opacity="1" d=" M158.63999938964844,100.80000305175781 C158.63999938964844,100.80000305175781 0,-100.80000305175781 0,-100.80000305175781 C0,-100.80000305175781 -158.63999938964844,100.80000305175781 -158.63999938964844,100.80000305175781 C-158.63999938964844,100.80000305175781 158.63999938964844,100.80000305175781 158.63999938964844,100.80000305175781z"/></g><g opacity="1" transform="matrix(1,0,0,1,627.1599731445312,420.6400146484375)"><path fill="rgb(224,245,253)" fill-opacity="1" d=" M-115.63999938964844,-76.16000366210938 C-115.63999938964844,-76.16000366210938 115.63999938964844,-125.44000244140625 115.63999938964844,-125.44000244140625 C115.63999938964844,-125.44000244140625 43,125.44000244140625 43,125.44000244140625 C43,125.44000244140625 -115.63999938964844,-76.16000366210938 -115.63999938964844,-76.16000366210938z"/></g><g opacity="1" transform="matrix(1,0,0,1,511.5199890136719,212.47999572753906)"><path fill="rgb(179,228,251)" fill-opacity="1" d=" M-167.52000427246094,-132 C-167.52000427246094,-132 167.52000427246094,-132 167.52000427246094,-132 C167.52000427246094,-132 339.6000061035156,-41.040000915527344 339.6000061035156,-41.040000915527344 C339.6000061035156,-41.040000915527344 231.27999877929688,82.72000122070312 231.27999877929688,82.72000122070312 C231.27999877929688,82.72000122070312 0,132 0,132 C0,132 -231.27999877929688,82.72000122070312 -231.27999877929688,82.72000122070312 C-231.27999877929688,82.72000122070312 -339.6000061035156,-41.040000915527344 -339.6000061035156,-41.040000915527344 C-339.6000061035156,-41.040000915527344 -167.52000427246094,-132 -167.52000427246094,-132z"/></g></g><g style="display: none;"><g><path/></g><g><path/></g><g><path/></g><g><path/></g><g><path/></g><g><path/></g><g><path/></g><g><path/></g><g><path/></g><g><path/></g><g><path/></g><g><path/></g><g><path/></g><g><path/></g></g><g mask="url(#__lottie_element_21_1)" style="display: block;"><g transform="matrix(1,0,0,1,512,512)" opacity="1"><g opacity="1" transform="matrix(1,0,0,1,0,0)"><path fill="rgb(225,245,254)" fill-opacity="1" d=" M-2,-624 C-2,-624 -702,-388 -702,-388 C-702,-388 -562,-272 -562,-272 C-562,-272 50,-576 50,-576 C50,-576 -2,-624 -2,-624z"/></g></g></g><g mask="url(#__lottie_element_15_1)" style="display: none;"><g><g><path/></g></g></g><g transform="matrix(0,0,0,0,168,172)" opacity="1" style="display: block;"><g opacity="1" transform="matrix(1,0,0,1,0,0)"><path fill="rgb(255,255,255)" fill-opacity="1" d=" M51.94599914550781,12.236000061035156 C51.94599914550781,12.236000061035156 117.5770034790039,0 117.5770034790039,0 C117.5770034790039,0 51.94599914550781,-12.236000061035156 51.94599914550781,-12.236000061035156 C31.775999069213867,-15.996000289916992 15.996000289916992,-31.775999069213867 12.236000061035156,-51.94599914550781 C12.236000061035156,-51.94599914550781 0,-117.5770034790039 0,-117.5770034790039 C0,-117.5770034790039 -12.236000061035156,-51.94599914550781 -12.236000061035156,-51.94599914550781 C-15.996000289916992,-31.775999069213867 -31.775999069213867,-15.996000289916992 -51.94599914550781,-12.236000061035156 C-51.94599914550781,-12.236000061035156 -117.5770034790039,0 -117.5770034790039,0 C-117.5770034790039,0 -51.94599914550781,12.236000061035156 -51.94599914550781,12.236000061035156 C-31.775999069213867,15.996000289916992 -15.996000289916992,31.775999069213867 -12.236000061035156,51.94599914550781 C-12.236000061035156,51.94599914550781 0,117.5770034790039 0,117.5770034790039 C0,117.5770034790039 12.236000061035156,51.94599914550781 12.236000061035156,51.94599914550781 C15.996000289916992,31.775999069213867 31.775999069213867,15.996000289916992 51.94599914550781,12.236000061035156z"/></g></g><g style="display: none;"><g><path/></g></g></g></svg>