<svg xmlns="http://www.w3.org/2000/svg" viewBox="0 0 16 16" fill="none" aria-hidden="true" width="16" height="16"><path d="M10 3.5L7 3.5" stroke="currentColor"/><path d="M9.5 5.5H7.5" stroke="currentColor"/><path d="M7.5 5C7.5 6.38071 6.38071 7.5 5 7.5C3.61929 7.5 2.5 6.38071 2.5 5C2.5 3.61929 3.61929 2.5 5 2.5C6.38071 2.5 7.5 3.61929 7.5 5Z" stroke="currentColor"/><path d="M14.5 5C14.5 6.38071 13.3807 7.5 12 7.5C10.6193 7.5 9.5 6.38071 9.5 5C9.5 3.61929 10.6193 2.5 12 2.5C13.3807 2.5 14.5 3.61929 14.5 5Z" stroke="currentColor"/><path d="M4 5C4 5.5 4.5 6 5 6" stroke="currentColor" stroke-width="0.7" stroke-linecap="round"/><path d="M11 5C11 5.5 11.5 6 12 6" stroke="currentColor" stroke-width="0.7" stroke-linecap="round"/><path d="M1.5 4V13.5" stroke="currentColor" stroke-linecap="round"/></svg>