<svg xmlns="http://www.w3.org/2000/svg" viewBox="0 0 16 16" fill="none" aria-label="Specials" aria-hidden="false" width="18" height="18"><path d="M10 1.33334L10.3592 2.92773C10.6638 4.28011 11.7199 5.33622 13.0723 5.64086L14.6667 6.00001L13.0723 6.35916C11.7199 6.6638 10.6638 7.71991 10.3592 9.07229L10 10.6667L9.64086 9.07229C9.33622 7.71991 8.28011 6.6638 6.92773 6.35916L5.33334 6.00001L6.92773 5.64086C8.28011 5.33622 9.33622 4.28011 9.64086 2.92773L10 1.33334Z" stroke="currentColor" stroke-linejoin="round"/><path d="M4.66668 8L4.92321 9.13885C5.14081 10.1048 5.89518 10.8592 6.86116 11.0768L8.00001 11.3333L6.86116 11.5899C5.89518 11.8075 5.14081 12.5618 4.92321 13.5278L4.66668 14.6667L4.41014 13.5278C4.19254 12.5618 3.43818 11.8075 2.47219 11.5899L1.33334 11.3333L2.47219 11.0768C3.43818 10.8592 4.19254 10.1048 4.41014 9.13885L4.66668 8Z" stroke="currentColor" stroke-linejoin="round"/></svg>