<svg xmlns="http://www.w3.org/2000/svg" viewBox="0 0 16 16" fill="none" aria-hidden="true" width="28"><g><path fill-rule="evenodd" clip-rule="evenodd" d="M2.14096 8.70961C1.97176 8.84345 1.76049 8.90626 1.54896 8.88561H1.4328V7.42444H1.54896C1.76097 7.40262 1.97292 7.46653 2.14096 7.60294C2.21602 7.67163 2.27611 7.75623 2.3172 7.8511C2.35829 7.94596 2.37943 8.04887 2.3792 8.15294C2.3796 8.25806 2.35858 8.36207 2.31751 8.45809C2.27643 8.55411 2.21626 8.63996 2.14096 8.70994V8.70961ZM1.63536 7.05011H1V9.26011H1.63072C1.91534 9.27641 2.19612 9.18568 2.42192 9.00444C2.54588 8.90351 2.64642 8.77479 2.71608 8.62784C2.78574 8.48089 2.82274 8.31949 2.82432 8.15561C2.82432 7.50328 2.33536 7.05011 1.63456 7.05011H1.63536Z" fill="#1A1918"/><path fill-rule="evenodd" clip-rule="evenodd" d="M3.02478 7.05011H3.45566V9.26011H3.02478V7.05011Z" fill="#1A1918"/><path fill-rule="evenodd" clip-rule="evenodd" d="M4.51339 7.89708C4.25339 7.80208 4.17739 7.73875 4.17739 7.61925C4.17739 7.48042 4.31323 7.37508 4.49995 7.37508C4.56724 7.37596 4.63351 7.39237 4.69399 7.42311C4.75447 7.45386 4.80765 7.49819 4.84971 7.55292L5.07451 7.25842C4.89292 7.09794 4.66191 7.01097 4.42379 7.01342C4.03147 7.01342 3.73243 7.28542 3.73243 7.64525C3.73243 7.95075 3.87147 8.10575 4.27643 8.25275C4.37991 8.28458 4.48017 8.32684 4.57579 8.37892C4.61491 8.40138 4.64754 8.43434 4.6703 8.47437C4.69306 8.5144 4.70512 8.56006 4.70523 8.60658C4.7039 8.65042 4.69402 8.69351 4.67619 8.73324C4.65836 8.77296 4.63296 8.8085 4.60152 8.83767C4.57009 8.86684 4.53328 8.88905 4.49335 8.90293C4.45341 8.91681 4.41118 8.92208 4.36923 8.91842C4.27181 8.92089 4.17572 8.89444 4.0922 8.84214C4.00867 8.78984 3.94116 8.71386 3.89755 8.62308L3.61963 8.89175C3.70122 9.02567 3.81504 9.135 3.94978 9.20889C4.08451 9.28278 4.23546 9.31864 4.38763 9.31292C4.83643 9.31292 5.15275 9.01292 5.15275 8.58675C5.15275 8.23525 5.00603 8.07592 4.51419 7.89658" fill="#1A1918"/><path fill-rule="evenodd" clip-rule="evenodd" d="M5.28792 8.15558C5.29012 8.312 5.32237 8.46638 5.38278 8.60961C5.44318 8.75285 5.53051 8.88203 5.63961 8.98954C5.74871 9.09705 5.87737 9.18071 6.01801 9.23559C6.15865 9.29047 6.30842 9.31546 6.45848 9.30908C6.6459 9.30942 6.83093 9.26537 6.9996 9.18024V8.67241C6.89945 8.78419 6.76933 8.86198 6.62616 8.89567C6.48299 8.92936 6.33339 8.91739 6.19685 8.86131C6.0603 8.80523 5.94311 8.70764 5.86053 8.58124C5.77796 8.45483 5.73381 8.30547 5.73384 8.15258C5.73273 8.05295 5.75069 7.95409 5.78667 7.86178C5.82265 7.76946 5.87592 7.68554 5.94338 7.61491C6.01085 7.54428 6.09114 7.48836 6.17958 7.45041C6.26802 7.41247 6.36283 7.39326 6.45848 7.39391C6.56028 7.39404 6.66094 7.4162 6.75409 7.45897C6.84724 7.50175 6.93084 7.56421 6.9996 7.64241V7.13524C6.8253 7.04205 6.63142 6.99568 6.43555 7.00032C6.23969 7.00496 6.04803 7.06047 5.87798 7.16182C5.70793 7.26317 5.56486 7.40714 5.46177 7.58068C5.35867 7.75422 5.2988 7.95183 5.2876 8.15558" fill="#1A1918"/><path fill-rule="evenodd" clip-rule="evenodd" d="M10.5023 8.53378L9.91026 7.05044H9.4397L10.3795 9.31578H10.6114L11.5695 7.05011H11.1018L10.5023 8.53344" fill="#1A1918"/><path fill-rule="evenodd" clip-rule="evenodd" d="M11.7654 9.26011H12.9915V8.88561H12.198V8.28911H12.9614V7.91478H12.198V7.42444H12.9915V7.05011H11.7654V9.26011Z" fill="#1A1918"/><path fill-rule="evenodd" clip-rule="evenodd" d="M13.8369 8.06628H13.7114V7.39794H13.8441C14.1141 7.39794 14.2589 7.51094 14.2589 7.72628C14.2589 7.94744 14.1149 8.06644 13.837 8.06644L13.8369 8.06628ZM14.7039 7.70211C14.7039 7.28828 14.4191 7.05011 13.9199 7.05011H13.2769V9.26011H13.7103V8.37161H13.7665L14.3649 9.26011H14.8961L14.1985 8.32861C14.3436 8.31135 14.4768 8.23675 14.5707 8.12019C14.6646 8.00363 14.712 7.85399 14.7031 7.70211H14.7039Z" fill="#1A1918"/><path d="M9.50008 8.16075C9.48697 8.47085 9.35948 8.76373 9.14419 8.97834C8.92889 9.19295 8.64239 9.31273 8.3444 9.31273C8.04641 9.31273 7.75991 9.19295 7.54461 8.97834C7.32932 8.76373 7.20183 8.47085 7.18872 8.16075C7.20183 7.85064 7.32932 7.55776 7.54461 7.34315C7.75991 7.12854 8.04641 7.00876 8.3444 7.00876C8.64239 7.00876 8.92889 7.12854 9.14419 7.34315C9.35948 7.55776 9.48697 7.85064 9.50008 8.16075Z" fill="#E6772F"/><path d="M0.565657 3.25H15.4343C15.6015 3.25 15.75 3.39193 15.75 3.58333V12.25C15.75 12.4414 15.6015 12.5833 15.4343 12.5833H0.565657C0.39852 12.5833 0.25 12.4414 0.25 12.25V3.58333C0.25 3.39193 0.39852 3.25 0.565657 3.25Z" stroke="#E6772F" stroke-width="0.5"/></g></svg>