<svg xmlns="http://www.w3.org/2000/svg" viewBox="0 0 16 16" fill="none" aria-hidden="true" width="16" height="16"><path d="M10 10L11 11" stroke="currentColor" stroke-linecap="round" stroke-linejoin="round"/><path d="M11.2927 12.7062C10.9024 12.3159 10.9024 11.6831 11.2927 11.2927C11.6831 10.9024 12.3159 10.9024 12.7062 11.2927L14.0406 12.6271C14.4309 13.0174 14.4309 13.6503 14.0406 14.0406C13.6503 14.4309 13.0174 14.4309 12.6271 14.0406L11.2927 12.7062Z" stroke="currentColor" stroke-linecap="round"/><path d="M3.59548 2.3849L5.45437 3.01144C5.71139 3.10041 6.1014 3.04224 6.32224 2.88491L7.62627 1.95491C8.46061 1.36056 9.15114 1.71504 9.15187 2.74535L9.15901 4.48952C9.16021 4.7849 9.36567 5.15145 9.61594 5.31072L10.9483 6.14607C12.0023 6.808 11.8824 7.59167 10.6813 7.89614L9.00954 8.31827C8.70747 8.3944 8.39587 8.70607 8.31627 9.01167L7.89421 10.6837C7.59327 11.8816 6.80274 12.0014 6.14448 10.9508L5.30928 9.61814C5.15004 9.36787 4.78356 9.1624 4.48823 9.1612L2.74439 9.154C1.71777 9.14974 1.35985 8.4626 1.9541 7.62814L2.88393 6.32386C3.03772 6.10648 3.09589 5.7164 3.00693 5.45934L2.38051 3.6001C2.04236 2.5895 2.58857 2.04318 3.59548 2.3849Z" stroke="currentColor" stroke-linecap="round" stroke-linejoin="round"/></svg>