<svg xmlns="http://www.w3.org/2000/svg" viewBox="0 0 16 16" fill="none" aria-hidden="true" width="16" height="16"><path d="M9.63827 2.575C9.63827 3.1687 9.15696 3.64999 8.56328 3.64999C7.96959 3.64999 7.48828 3.1687 7.48828 2.575C7.48828 1.98129 7.96959 1.5 8.56328 1.5C9.15696 1.5 9.63827 1.98129 9.63827 2.575Z" stroke="currentColor"/><path d="M10.1764 14.1768C10.0229 12.2119 9.29479 11.706 8.29084 9.94345M8.29084 9.94345C7.42047 9.6471 6.98533 9.49895 6.72692 9.18687C6.6118 9.04782 6.52399 8.88835 6.46809 8.71679C6.34256 8.33155 6.45007 7.88457 6.66499 6.9906L6.88477 6.07659C6.99726 5.60881 7.19496 5.09792 7.65689 4.96345C8.49669 4.71897 9.38773 5.51199 9.38773 5.51199M8.29084 9.94345L9.38773 5.51199M9.38773 5.51199C9.38773 5.51199 10.0781 7.1298 11 7.27692C11.8623 7.41453 13 6.27692 13 6.27692" stroke="currentColor" stroke-linecap="round" stroke-linejoin="round"/><path d="M3.61096 12.17L4.10786 12.118C5.37421 11.9855 6.32142 10.2146 6.5 9" stroke="currentColor" stroke-linecap="round" stroke-linejoin="round"/><path d="M7.99999 14.5497L11.0939 14.5113C11.6587 14.5042 12.1813 14.2108 12.4812 13.7322V13.7322" stroke="currentColor" stroke-linecap="round"/><path d="M13.25 5.99997L6.28961 14.5" stroke="currentColor" stroke-linecap="round"/><path d="M1.99999 11.1602L4.17828 13.2212C4.56582 13.5879 5.14822 13.6564 5.61026 13.3896V13.3896" stroke="currentColor" stroke-linecap="round"/></svg>