<svg xmlns="http://www.w3.org/2000/svg" viewBox="0 0 14 14" fill="none" aria-hidden="true" width="16" height="16"><path d="M0.701172 1.96523V12.6319" stroke="currentColor" stroke-linecap="round" stroke-linejoin="round"/><path d="M0.701172 1.29922V5.71084C0.701172 7.14036 1.86003 8.29922 3.28955 8.29922H3.41165C4.04047 8.29922 4.66065 8.15281 5.22308 7.8716C6.3634 7.30144 7.70561 7.30144 8.84593 7.8716C9.40836 8.15281 10.0285 8.29922 10.6574 8.29922H10.7795C12.209 8.29922 13.3678 7.14036 13.3678 5.71084V1.29922C12.3572 1.80453 10.7322 1.00333 8.52095 2.83558C8.41868 2.92031 8.30975 2.99908 8.19444 3.06497V3.06497C7.57896 3.41667 6.82338 3.41667 6.20791 3.06497L6.03451 2.96588C3.28955 0.965884 1.73499 1.81613 0.701172 1.29922Z" stroke="currentColor" stroke-linecap="round" stroke-linejoin="round"/><path d="M10.3802 5.18801C9.97119 5.51755 9.4184 5.62358 8.91648 5.46878C9.32549 5.13924 9.87828 5.0332 10.3802 5.18801ZM5.15269 5.42967C4.65077 5.58447 4.09797 5.47844 3.68896 5.14889C4.19088 4.99409 4.74367 5.10013 5.15269 5.42967Z" stroke="currentColor" stroke-width="1.31319"/></svg>