<svg xmlns="http://www.w3.org/2000/svg" viewBox="0 0 16 14" fill="none" aria-hidden="true" width="16" height="16"><path d="M11.5 7.00007C11.1587 7.17072 10.0866 7.19161 9.72796 7.05328C8.57598 6.60898 7.42399 6.60898 6.27201 7.05328C5.91334 7.19161 4.84132 7.1707 4.50002 7.00005" stroke="currentColor" stroke-linejoin="round"/><path d="M2.5 7L0.999969 7M13.5 7L15 7" stroke="currentColor" stroke-linecap="round" stroke-linejoin="round"/><path d="M12.5888 4.81917C13.3884 4.79704 13.3622 5.35565 13.3361 5.65517L13.3307 8.32591C13.3636 8.62475 13.4119 9.18334 12.6136 9.17955C12.4848 9.17894 12.3542 9.18261 12.226 9.17015C11.7527 9.12409 11.6806 8.69783 11.7113 8.40306L11.7112 5.69008C11.6967 5.41895 11.6824 4.93971 12.2015 4.83741C12.3294 4.82188 12.46 4.82272 12.5888 4.81917Z" stroke="currentColor" stroke-linecap="round" stroke-linejoin="round"/><path d="M2.67024 5.6525L2.6644 8.35796M4.30457 5.6517C4.33068 5.35217 4.35685 4.79356 3.55731 4.81568C3.42855 4.81922 3.29793 4.81838 3.17004 4.83392C2.65089 4.93623 2.66518 5.41546 2.67974 5.68656L2.67976 8.39958C2.64909 8.69434 2.72122 9.1206 3.19448 9.16665C3.32269 9.17914 3.45326 9.17546 3.58209 9.17605C4.38041 9.17987 4.33211 8.62127 4.29921 8.32244L4.30457 5.6517Z" stroke="currentColor" stroke-linecap="round" stroke-linejoin="round"/></svg>