<svg xmlns="http://www.w3.org/2000/svg" viewBox="0 0 16 16" fill="none" aria-hidden="true" width="16" height="16"><path d="M5.12782 13.0774C5.52184 13.0774 5.71885 13.0774 5.89833 13.144C5.92326 13.1532 5.94783 13.1634 5.972 13.1745C6.146 13.2543 6.28531 13.3936 6.56392 13.6722C7.20519 14.3135 7.52582 14.6341 7.92034 14.6637C7.97339 14.6677 8.02666 14.6677 8.0797 14.6637C8.47422 14.6341 8.79485 14.3135 9.43612 13.6722C9.71473 13.3936 9.85404 13.2543 10.028 13.1745C10.0522 13.1634 10.0768 13.1532 10.1017 13.144C10.2812 13.0774 10.4782 13.0774 10.8722 13.0774H10.9449C11.9502 13.0774 12.4528 13.0774 12.7651 12.7651C13.0774 12.4528 13.0774 11.9502 13.0774 10.9449V10.8722C13.0774 10.4782 13.0774 10.2812 13.144 10.1017C13.1532 10.0768 13.1634 10.0522 13.1745 10.028C13.2543 9.85404 13.3936 9.71473 13.6722 9.43612C14.3135 8.79485 14.6341 8.47422 14.6637 8.0797C14.6677 8.02666 14.6677 7.97339 14.6637 7.92034C14.6341 7.52582 14.3135 7.20519 13.6722 6.56392C13.3936 6.28531 13.2543 6.146 13.1745 5.972C13.1634 5.94783 13.1532 5.92326 13.144 5.89833C13.0774 5.71885 13.0774 5.52184 13.0774 5.12782V5.05515C13.0774 4.04988 13.0774 3.54724 12.7651 3.23494C12.4528 2.92265 11.9502 2.92265 10.9449 2.92265H10.8722C10.4782 2.92265 10.2812 2.92265 10.1017 2.85605C10.0768 2.8468 10.0522 2.83663 10.028 2.82554C9.85404 2.74572 9.71473 2.60641 9.43612 2.3278C8.79485 1.68653 8.47422 1.3659 8.0797 1.33633C8.02666 1.33236 7.97339 1.33236 7.92034 1.33633C7.52582 1.3659 7.20519 1.68653 6.56392 2.3278C6.28531 2.60641 6.146 2.74572 5.972 2.82554C5.94783 2.83663 5.92326 2.8468 5.89833 2.85605C5.71885 2.92265 5.52184 2.92265 5.12782 2.92265H5.05515C4.04988 2.92265 3.54724 2.92265 3.23494 3.23494C2.92265 3.54724 2.92265 4.04988 2.92265 5.05514V5.12782C2.92265 5.52184 2.92265 5.71885 2.85605 5.89833C2.8468 5.92326 2.83663 5.94783 2.82554 5.972C2.74572 6.146 2.60641 6.28531 2.3278 6.56392C1.68653 7.20519 1.3659 7.52582 1.33633 7.92034C1.33236 7.97339 1.33236 8.02666 1.33633 8.0797C1.3659 8.47422 1.68653 8.79485 2.3278 9.43612C2.60641 9.71473 2.74572 9.85404 2.82554 10.028C2.83663 10.0522 2.8468 10.0768 2.85605 10.1017C2.92265 10.2812 2.92265 10.4782 2.92265 10.8722V10.9449C2.92265 11.9502 2.92265 12.4528 3.23494 12.7651C3.54724 13.0774 4.04988 13.0774 5.05514 13.0774H5.12782Z" stroke="currentColor"/><path d="M10 6L6 10" stroke="currentColor" stroke-linecap="round" stroke-linejoin="round"/><path d="M10 10H9.99283M6.00717 6H6" stroke="currentColor" stroke-linecap="round" stroke-linejoin="round"/></svg>