<svg xmlns="http://www.w3.org/2000/svg" viewBox="0 0 16 16" fill="none" aria-hidden="true" width="16" height="16"><path d="M6.07061 1.61862C6.07061 1.34248 5.84675 1.11862 5.57061 1.11862C5.29447 1.11862 5.07061 1.34248 5.07061 1.61862H6.07061ZM5.07061 3.97564C5.07061 4.25178 5.29447 4.47564 5.57061 4.47564C5.84675 4.47564 6.07061 4.25178 6.07061 3.97564H5.07061ZM5.071 11.5C5.071 11.7761 5.29486 12 5.571 12C5.84714 12 6.071 11.7761 6.071 11.5H5.071ZM4.5 1.61944C4.5 1.3433 4.27614 1.11944 4 1.11944C3.72386 1.11944 3.5 1.3433 3.5 1.61944L4.5 1.61944ZM4 3.97646H3.5V3.97648L4 3.97646ZM4.05829 4.79182L3.58448 4.95155L3.58451 4.95161L4.05829 4.79182ZM4.75599 5.48952L4.59619 5.9633L4.59626 5.96332L4.75599 5.48952ZM6.38673 5.48952L6.22691 5.01574L6.22687 5.01576L6.38673 5.48952ZM7.08444 4.7918L6.61069 4.63194L6.61067 4.63199L7.08444 4.7918ZM7.1427 3.97647H7.6427V3.97647L7.1427 3.97647ZM7.64269 1.61944C7.64269 1.3433 7.41883 1.11944 7.14269 1.11944C6.86655 1.11944 6.64269 1.3433 6.64269 1.61944L7.64269 1.61944ZM10.6942 6.35475L10.6942 5.85475H10.6942L10.6942 6.35475ZM8.75234 4.41285L9.25234 4.41286V4.41285L8.75234 4.41285ZM10.6942 1.5L10.6942 1H10.6942V1.5ZM12.6361 4.41285H12.1361V4.41285L12.6361 4.41285ZM10.1942 11.5C10.1942 11.7761 10.4181 12 10.6942 12C10.9704 12 11.1942 11.7761 11.1942 11.5H10.1942ZM5.07061 1.61862V3.97564H6.07061V1.61862H5.07061ZM5.071 5.54737V11.5H6.071V5.54737H5.071ZM3.5 1.61944L3.5 3.97646H4.5L4.5 1.61944L3.5 1.61944ZM3.5 3.97648C3.50002 4.36451 3.49343 4.68145 3.58448 4.95155L4.53209 4.63209C4.50663 4.55657 4.50002 4.44514 4.5 3.97644L3.5 3.97648ZM3.58451 4.95161C3.74528 5.4283 4.1195 5.80252 4.59619 5.9633L4.91578 5.01574C4.73497 4.95476 4.59304 4.81283 4.53206 4.63203L3.58451 4.95161ZM4.59626 5.96332C4.86653 6.05443 5.18384 6.04734 5.57097 6.04737L5.57103 5.04737C5.1014 5.04734 4.99105 5.04112 4.91571 5.01572L4.59626 5.96332ZM5.57104 6.04737C5.95793 6.04733 6.27624 6.0545 6.54658 5.96327L6.22687 5.01576C6.15168 5.04113 6.04085 5.04732 5.57095 5.04737L5.57104 6.04737ZM6.54654 5.96329C7.02323 5.80249 7.39742 5.42831 7.55822 4.95161L6.61067 4.63199C6.54967 4.81282 6.40775 4.95475 6.22691 5.01574L6.54654 5.96329ZM7.5582 4.95166C7.64936 4.68149 7.6427 4.36435 7.6427 3.97647H6.6427C6.6427 4.44529 6.63612 4.55657 6.61069 4.63194L7.5582 4.95166ZM7.6427 3.97647L7.64269 1.61944L6.64269 1.61944L6.6427 3.97647L7.6427 3.97647ZM10.6942 5.85475C10.2468 5.85476 9.89292 5.72958 9.65653 5.51573C9.42864 5.30957 9.25233 4.96926 9.25234 4.41286L8.25234 4.41285C8.25233 5.19702 8.51072 5.82766 8.98566 6.25731C9.4521 6.67928 10.0692 6.85476 10.6942 6.85475L10.6942 5.85475ZM9.25234 4.41285C9.25234 3.83967 9.44151 3.20304 9.74476 2.71925C10.0592 2.21756 10.4124 2 10.6942 2V1C9.90357 1 9.28582 1.56856 8.89745 2.18815C8.49787 2.82563 8.25234 3.64543 8.25234 4.41285L9.25234 4.41285ZM10.6942 2C10.9761 2 11.3293 2.21756 11.6437 2.71925C11.947 3.20304 12.1361 3.83967 12.1361 4.41285H13.1361C13.1361 3.64543 12.8906 2.82563 12.491 2.18815C12.1027 1.56856 11.4849 1 10.6942 1L10.6942 2ZM12.1361 4.41285C12.1361 4.96925 11.9598 5.30956 11.7319 5.51573C11.4956 5.72958 11.1417 5.85475 10.6942 5.85475L10.6942 6.85475C11.3193 6.85476 11.9364 6.67927 12.4028 6.2573C12.8777 5.82766 13.1361 5.19702 13.1361 4.41285L12.1361 4.41285ZM10.1942 6.35475V11.5H11.1942V6.35475H10.1942Z" fill="currentColor"/><path d="M14.5273 13.7474C14.0981 14.4057 13.5432 14.4057 13.1036 13.7474C11.6899 11.5849 10.3435 15.3028 9.34538 13.7717C7.82331 11.4776 6.72855 15.4565 5.58719 13.7474C4.09883 11.4705 3.17162 15.2409 2.00001 13.9923" stroke="currentColor" stroke-linecap="round"/></svg>