<svg xmlns="http://www.w3.org/2000/svg" viewBox="0 0 16 16" fill="none" aria-hidden="true" width="16" height="16"><path d="M9.33334 2.66667V5.33333" stroke="currentColor" stroke-linecap="round" stroke-linejoin="round"/><path d="M9.45588 5.21478L4.70111 5.36425C4.22433 5.37923 3.98595 5.38673 3.78115 5.29588C3.38921 5.12202 3.23013 4.70788 3.05484 4.34421C2.85917 3.93827 2.48682 4.00392 2.10065 4.00392C1.69151 4.00392 1.48695 4.00392 1.38599 4.14277C1.28503 4.28161 1.34123 4.48565 1.45363 4.89373L1.49143 5.03097C1.68246 5.72455 1.77798 6.07134 2.00839 6.32098C2.23881 6.57063 2.56865 6.68467 3.22833 6.9128L6.11187 7.90987C6.72235 8.12093 7.03428 8.3902 7.34615 8.97253C7.82701 9.87027 8.06741 10.3192 8.41688 10.638C8.67295 10.8715 8.96935 11.0525 9.29048 11.1712C9.72888 11.3333 10.2239 11.3333 11.2139 11.3333H13.8237C14.4041 11.3333 14.6667 10.9893 14.6667 10.4589C14.6667 9.44833 14.6667 8.943 14.5843 8.5266C14.2508 6.8396 12.9558 5.53634 11.3202 5.24161C10.9165 5.16887 10.4296 5.18417 9.45588 5.21478Z" stroke="currentColor" stroke-linejoin="round"/><path d="M14.3333 9H12.6667C10.8257 9 9.33334 7.5076 9.33334 5.66667" stroke="currentColor" stroke-linecap="round" stroke-linejoin="round"/><path d="M8 13.3333H9.33333M9.33333 13.3333H12.6667M9.33333 13.3333L10 11.3333M14 13.3333H12.6667M12.6667 13.3333L13.3333 11.3333" stroke="currentColor" stroke-linecap="round" stroke-linejoin="round"/><path d="M6.33334 2.66667H12.3333" stroke="currentColor" stroke-linecap="round"/></svg>