<svg xmlns="http://www.w3.org/2000/svg" viewBox="0 0 12 16" fill="none" aria-hidden="true" width="16" height="16"><path d="M7 2.35036C7 2.90264 6.55227 3.35036 6 3.35036C5.44773 3.35036 5 2.90264 5 2.35036C5 1.79807 5.44773 1.35036 6 1.35036C6.55227 1.35036 7 1.79807 7 2.35036Z" stroke="currentColor"/><path d="M9.43673 12.8069C8.89125 11.0565 8.12627 10.7482 6.85131 9.35714M6.85131 9.35714C6.00065 9.26831 5.57535 9.2239 5.27646 8.99428C5.1433 8.89197 5.03069 8.76549 4.94452 8.62145C4.75102 8.298 4.75612 7.87037 4.76622 7.01513L4.78467 5.45959M6.85131 9.35714L6.92997 5.11116M0.5 5.10006C1.72106 5.95728 2.84749 6.71497 4.78467 5.45959M4.78467 5.45959C4.90697 5.38032 5.09035 5.26392 5.2738 5.14814C5.55845 4.96849 5.70074 4.87868 5.84755 4.86007C6.21541 4.81342 6.92997 5.11116 6.92997 5.11116M6.92997 5.11116L10.2503 2.8777" stroke="currentColor" stroke-linecap="round" stroke-linejoin="round"/><path d="M4.75024 14.599C4.75024 14.599 5.36415 11.735 5.25022 10.5987" stroke="currentColor" stroke-linecap="round" stroke-linejoin="round"/><rect x="0.835938" y="9.05934" width="2" height="2" rx="0.65" transform="rotate(-43.3691 0.835938 9.05934)" fill="currentColor"/><rect x="0.835938" y="2.4734" width="2" height="2" rx="0.65" transform="rotate(-43.3691 0.835938 2.4734)" fill="currentColor"/><rect x="8.25" y="6.4734" width="2" height="2" rx="0.65" transform="rotate(-43.3691 8.25 6.4734)" fill="currentColor"/></svg>