<svg xmlns="http://www.w3.org/2000/svg" viewBox="0 0 16 10" fill="none" aria-hidden="true" width="28"><path d="M14.5692 0.00942993L1.43082 0.00942993C1.37281 0.00942993 1.32447 0.00942993 1.26647 0.00942993C1.21813 0.00942993 1.16979 0.00942993 1.13112 0.00942993C1.03444 0.00942993 0.928097 0.0188639 0.83142 0.0377318C0.734743 0.0565997 0.638066 0.0849016 0.54139 0.132071C0.454381 0.169807 0.367372 0.235845 0.299698 0.301883C0.232024 0.36792 0.16435 0.452826 0.12568 0.537732C0.0773414 0.622637 0.0483384 0.716977 0.029003 0.820751C0.00966768 0.91509 0.00966767 1.01886 0 1.1132C0 1.16037 0 1.20754 0 1.24528C0 1.30188 0 1.34905 0 1.40566L0 8.60377C0 8.66037 0 8.70754 0 8.76415C0 8.81132 0 8.85849 0 8.89622C0 8.99056 0.00966768 9.09434 0.029003 9.18868C0.0483384 9.28302 0.0773414 9.37735 0.12568 9.47169C0.174018 9.5566 0.232024 9.64151 0.299698 9.70754C0.367372 9.77358 0.454381 9.83962 0.54139 9.87735C0.628399 9.92452 0.725076 9.95283 0.83142 9.97169C0.928097 9.99056 1.03444 9.99056 1.13112 10C1.17946 10 1.22779 10 1.26647 10C1.32447 10 1.37281 10 1.43082 10L14.5692 10C14.6272 10 14.6755 10 14.7335 10C14.7819 10 14.8302 10 14.8689 10C14.9656 10 15.0719 9.99056 15.1686 9.97169C15.2653 9.95283 15.3619 9.92452 15.4586 9.87735C15.5456 9.83018 15.6326 9.77358 15.7003 9.70754C15.768 9.64151 15.8356 9.5566 15.8743 9.47169C15.9227 9.38679 15.9517 9.29245 15.971 9.18868C15.9903 9.09434 15.9903 8.99056 16 8.89622C16 8.84905 16 8.80188 16 8.76415C16 8.70754 16 8.66037 16 8.60377L16 1.40566C16 1.34905 16 1.30188 16 1.24528C16 1.19811 16 1.15094 16 1.1132C16 1.01886 15.9903 0.91509 15.971 0.820751C15.9517 0.726411 15.9227 0.632071 15.8743 0.537732C15.826 0.452826 15.768 0.36792 15.7003 0.301883C15.6326 0.235845 15.5456 0.169807 15.4586 0.132071C15.3716 0.0849016 15.2749 0.0565997 15.1686 0.0377318C15.0719 0.0188639 14.9656 0.0188639 14.8689 0.00942993C14.8205 0.00942993 14.7722 0.00942993 14.7335 0.00942993C14.6755 0.00942993 14.6272 0.00942993 14.5692 0.00942993Z" fill="black"/><path d="M14.5692 0.3396L14.7335 0.3396C14.7819 0.3396 14.8206 0.3396 14.8689 0.3396C14.9462 0.3396 15.0332 0.349034 15.1203 0.358468C15.1976 0.367902 15.2556 0.386769 15.3136 0.415071C15.3716 0.443373 15.42 0.481109 15.4683 0.528279C15.5166 0.575449 15.5553 0.622618 15.5843 0.679222C15.6133 0.735826 15.6326 0.79243 15.6423 0.867902C15.6616 0.952807 15.6616 1.03771 15.6616 1.11318C15.6616 1.15092 15.6616 1.19809 15.6616 1.24526C15.6616 1.30186 15.6616 1.34903 15.6616 1.40564L15.6616 8.60375C15.6616 8.66035 15.6616 8.70752 15.6616 8.76413C15.6616 8.80186 15.6616 8.84903 15.6616 8.8962C15.6616 8.97167 15.652 9.05658 15.6423 9.14149C15.6326 9.20752 15.6133 9.27356 15.5843 9.33017C15.5553 9.38677 15.5166 9.43394 15.4683 9.48111C15.42 9.52828 15.3716 9.56601 15.3136 9.59432C15.2556 9.62262 15.1976 9.64149 15.1203 9.65092C15.0332 9.66979 14.9462 9.66979 14.8689 9.66979C14.8206 9.66979 14.7819 9.66979 14.7335 9.66979C14.6755 9.66979 14.6272 9.66979 14.5692 9.66979L1.43083 9.66979C1.38249 9.66979 1.32448 9.66979 1.26648 9.66979C1.21814 9.66979 1.17947 9.66979 1.13113 9.66979C1.06345 9.66979 0.966778 9.66035 0.879769 9.65092C0.812095 9.64149 0.744421 9.62262 0.686415 9.58488C0.628409 9.55658 0.580071 9.51885 0.531732 9.47168C0.483394 9.42451 0.444723 9.37734 0.41572 9.32073C0.386717 9.26413 0.367382 9.20752 0.357714 9.13205C0.338379 9.04715 0.338379 8.96224 0.338379 8.88677C0.338379 8.8396 0.338379 8.80186 0.338379 8.75469L0.338379 8.63205V8.59432L0.338379 1.40564V1.3679V1.24526C0.338379 1.19809 0.338379 1.16035 0.338379 1.11318C0.338379 1.03771 0.348047 0.952807 0.357714 0.867902C0.367382 0.801864 0.386717 0.735826 0.41572 0.679222C0.444723 0.622618 0.483394 0.575449 0.531732 0.528279C0.580071 0.481109 0.628409 0.443373 0.686415 0.415071C0.744421 0.386769 0.802427 0.367902 0.879769 0.358468C0.966778 0.3396 1.05379 0.3396 1.13113 0.3396C1.17947 0.3396 1.21814 0.3396 1.26648 0.3396H1.43083L14.5692 0.3396Z" fill="white"/><path d="M4.20555 3.38677C4.3409 3.21696 4.43758 2.99997 4.40857 2.77356C4.20555 2.78299 3.96386 2.90564 3.82851 3.06601C3.70283 3.20752 3.58682 3.44337 3.61582 3.66035C3.84785 3.66979 4.0702 3.54714 4.20555 3.38677Z" fill="black"/><path d="M4.40851 3.69807C4.08948 3.67921 3.80912 3.87732 3.65443 3.87732C3.49975 3.87732 3.26773 3.70751 3.0067 3.70751C2.678 3.71694 2.36863 3.89619 2.19462 4.18864C1.84658 4.77355 2.10761 5.64147 2.43631 6.1226C2.60066 6.35845 2.79401 6.6226 3.05504 6.61317C3.29673 6.60374 3.39341 6.45279 3.69311 6.45279C3.9928 6.45279 4.07981 6.61317 4.34084 6.60374C4.61153 6.5943 4.77588 6.36789 4.94024 6.13204C5.12392 5.86789 5.20126 5.60374 5.21093 5.5943C5.20126 5.58487 4.68888 5.39619 4.68888 4.81128C4.67921 4.33015 5.09492 4.0943 5.11425 4.07543C4.8919 3.74524 4.53419 3.70751 4.40851 3.69807Z" fill="black"/><path d="M7.63743 3.03769C8.34317 3.03769 8.82656 3.50939 8.82656 4.19807C8.82656 4.88675 8.32384 5.36788 7.6181 5.36788H6.83502V6.57542H6.27429V3.03769H7.63743ZM6.83502 4.90561H7.48275C7.9758 4.90561 8.25617 4.6509 8.25617 4.19807C8.25617 3.75467 7.9758 3.49995 7.49242 3.49995H6.84468V4.90561H6.83502Z" fill="black"/><path d="M8.97144 5.83957C8.97144 5.38674 9.32914 5.12259 9.97687 5.08486L10.6826 5.04712V4.84901C10.6826 4.56599 10.4893 4.40561 10.1412 4.40561C9.86086 4.40561 9.64817 4.54712 9.6095 4.7641H9.09711C9.11645 4.30184 9.55149 3.97165 10.1509 3.97165C10.7986 3.97165 11.2143 4.30184 11.2143 4.81127V6.57542H10.6923V6.15089H10.6826C10.5376 6.42448 10.2089 6.60372 9.85119 6.60372C9.32914 6.60372 8.97144 6.30184 8.97144 5.83957ZM10.6729 5.61316V5.41505L10.0445 5.45278C9.69651 5.47165 9.51282 5.60372 9.51282 5.83014C9.51282 6.04712 9.70618 6.18863 10.0059 6.18863C10.3829 6.18863 10.6729 5.94335 10.6729 5.61316Z" fill="black"/><path d="M11.6978 7.52824V7.10371C11.7365 7.11314 11.8138 7.11314 11.8622 7.11314C12.1135 7.11314 12.2489 7.00937 12.3359 6.74522L12.3842 6.58484L11.4271 4.00937H12.0169L12.6839 6.09427H12.6936L13.3607 4.00937H13.9311L12.9449 6.71692C12.7226 7.33956 12.4616 7.53767 11.9105 7.53767C11.8718 7.53767 11.7365 7.53767 11.6978 7.52824Z" fill="black"/></svg>