<svg xmlns="http://www.w3.org/2000/svg" viewBox="0 0 16 16" fill="none" aria-label="Entertainment" aria-hidden="false" width="18" height="18"><path d="M2.00199 13.2C2.00199 12.7274 1.93054 12.182 2.64463 11.9126C2.94288 11.8 3.3433 11.8 4.14413 11.8H11.8559C12.6567 11.8 13.0571 11.8 13.3554 11.9126C14.0695 12.182 13.998 12.7274 13.998 13.2C13.998 13.6726 14.0695 14.218 13.3554 14.4874C13.0571 14.6 12.6567 14.6 11.8559 14.6H4.14413C3.3433 14.6 2.94288 14.6 2.64463 14.4874C1.93054 14.218 2.00199 13.6726 2.00199 13.2Z" stroke="currentColor" stroke-linecap="round" stroke-linejoin="round"/><path d="M4.00132 10.4C4.00132 9.92742 3.95369 9.38198 4.42975 9.11256C4.62858 9 4.89553 9 5.42942 9H10.5706C11.1045 9 11.3714 9 11.5702 9.11256C12.0463 9.38198 11.9987 9.92742 11.9987 10.4C11.9987 10.8726 12.0463 11.418 11.5702 11.6874C11.3714 11.8 11.1045 11.8 10.5706 11.8H5.42942C4.89553 11.8 4.62858 11.8 4.42975 11.6874C3.95369 11.418 4.00132 10.8726 4.00132 10.4Z" stroke="currentColor" stroke-linecap="round" stroke-linejoin="round"/><path d="M8.47509 1.89715L8.95903 2.87304C9.02503 3.00889 9.20103 3.13919 9.34948 3.16413L10.2267 3.31109C10.7876 3.40536 10.9196 3.81566 10.5154 4.22041L9.83342 4.90802C9.71798 5.02445 9.65473 5.24902 9.69048 5.40978L9.88567 6.26091C10.0397 6.93465 9.68498 7.19524 9.09378 6.84313L8.27165 6.35243C8.12315 6.26371 7.87839 6.26371 7.7272 6.35243L6.90502 6.84313C6.31659 7.19524 5.95913 6.93185 6.11311 6.26091L6.30834 5.40978C6.34409 5.24902 6.28084 5.02445 6.16535 4.90802L5.48343 4.22041C5.08198 3.81566 5.21121 3.40536 5.77215 3.31109L6.6493 3.16413C6.79504 3.13919 6.97102 3.00889 7.03701 2.87304L7.52095 1.89715C7.78495 1.36762 8.21389 1.36762 8.47509 1.89715Z" stroke="currentColor" stroke-linecap="round" stroke-linejoin="round"/></svg>