<svg xmlns="http://www.w3.org/2000/svg" viewBox="0 0 16 12" fill="none" aria-hidden="true" width="28"><path fill-rule="evenodd" clip-rule="evenodd" d="M14.5671 0.858856L1.43287 0.858856C1.37816 0.858856 1.32335 0.858856 1.26874 0.859146C1.22263 0.859533 1.17661 0.860016 1.13051 0.861272C1.03007 0.863978 0.928767 0.869874 0.829589 0.887753C0.728865 0.905826 0.6351 0.9354 0.543656 0.981983C0.453661 1.0277 0.3714 1.08752 0.299965 1.15885C0.228627 1.23027 0.168791 1.31242 0.123069 1.40249C0.076477 1.49392 0.0468977 1.58766 0.0289181 1.68847C0.0109385 1.78772 0.00504201 1.88891 0.00233541 1.98923C0.00107877 2.03533 0.000498788 2.08133 0.000208795 2.12734C-8.11981e-05 2.18204 1.54663e-05 2.23674 1.54663e-05 2.29154L1.54663e-05 9.66738C1.54663e-05 9.72217 -8.11981e-05 9.77678 0.000208795 9.83158C0.000498788 9.87758 0.00107877 9.92368 0.00233541 9.96969C0.00504201 10.0699 0.0109385 10.1712 0.0289181 10.2704C0.0468977 10.3712 0.076477 10.4649 0.123069 10.5564C0.168791 10.6464 0.228627 10.7286 0.299965 10.8C0.3714 10.8714 0.453661 10.9312 0.543656 10.9768C0.6351 11.0235 0.728865 11.0531 0.829589 11.0713C0.928767 11.0889 1.03007 11.0949 1.13051 11.0976C1.17661 11.0987 1.22263 11.0994 1.26874 11.0996C1.32335 11.1 1.37816 11.1 1.43287 11.1L14.5671 11.1C14.6218 11.1 14.6766 11.1 14.7312 11.0996C14.7772 11.0994 14.8232 11.0987 14.8695 11.0976C14.9698 11.0949 15.0711 11.0889 15.1704 11.0713C15.2711 11.0531 15.3648 11.0235 15.4564 10.9768C15.5464 10.9312 15.6284 10.8714 15.7 10.8C15.7712 10.7286 15.831 10.6464 15.8769 10.5564C15.9235 10.4649 15.9531 10.3712 15.971 10.2704C15.989 10.1712 15.9948 10.0699 15.9975 9.96969C15.9987 9.92368 15.9993 9.87758 15.9996 9.83158C16 9.77678 16 9.72217 16 9.66738L16 2.29154C16 2.23674 16 2.18204 15.9996 2.12734C15.9993 2.08133 15.9987 2.03533 15.9975 1.98923C15.9948 1.88891 15.989 1.78772 15.971 1.68847C15.9531 1.58766 15.9235 1.49392 15.8769 1.40249C15.831 1.31242 15.7712 1.23027 15.7 1.15885C15.6284 1.08752 15.5464 1.0277 15.4564 0.981983C15.3648 0.9354 15.2711 0.905826 15.1704 0.887753C15.0711 0.869874 14.9698 0.863978 14.8695 0.861272C14.8232 0.860016 14.7772 0.859533 14.7312 0.859146C14.6766 0.858856 14.6218 0.858856 14.5671 0.858856Z" fill="#3C4043"/><path fill-rule="evenodd" clip-rule="evenodd" d="M14.567 1.20016L14.7286 1.20045C14.7723 1.20074 14.8161 1.20123 14.8601 1.20248C14.9367 1.20451 15.0263 1.20867 15.1098 1.22365C15.1823 1.2367 15.2432 1.25661 15.3016 1.28628C15.3593 1.31556 15.4121 1.35403 15.4582 1.40003C15.5045 1.44642 15.5429 1.49928 15.5726 1.55756C15.6022 1.61555 15.6219 1.67605 15.635 1.74911C15.6498 1.83175 15.654 1.92153 15.656 1.99856C15.6573 2.04195 15.6579 2.08544 15.6581 2.13C15.6585 2.18383 15.6585 2.23756 15.6585 2.29149L15.6585 9.66733C15.6585 9.72126 15.6585 9.77499 15.6581 9.82989C15.6579 9.87338 15.6573 9.91687 15.656 9.96046C15.654 10.0373 15.6498 10.1271 15.6348 10.2106C15.6219 10.2827 15.6022 10.3432 15.5724 10.4015C15.5428 10.4596 15.5045 10.5124 15.4584 10.5585C15.412 10.6049 15.3594 10.6432 15.301 10.6727C15.243 10.7023 15.1823 10.7222 15.1105 10.7351C15.0252 10.7503 14.9319 10.7545 14.8616 10.7563C14.8175 10.7574 14.7735 10.758 14.7283 10.7582C14.6747 10.7586 14.6208 10.7586 14.567 10.7586L1.43275 10.7586C1.43207 10.7586 1.43139 10.7586 1.43062 10.7586C1.37755 10.7586 1.32429 10.7586 1.27025 10.7582C1.22617 10.758 1.18219 10.7574 1.13966 10.7564C1.06774 10.7545 0.974364 10.7503 0.889879 10.7352C0.817381 10.7222 0.756675 10.7023 0.697903 10.6724C0.640098 10.6431 0.587513 10.6048 0.541114 10.5583C0.495102 10.5124 0.456823 10.4597 0.427243 10.4015C0.397567 10.3433 0.377751 10.2826 0.364701 10.2096C0.349718 10.1262 0.345562 10.0369 0.343435 9.96046C0.342275 9.91677 0.341792 9.87299 0.341502 9.8296L0.341309 9.70125L0.341309 2.25767L0.341502 2.12961C0.341792 2.08583 0.342275 2.04215 0.343435 1.99846C0.345562 1.92192 0.349718 1.83252 0.364895 1.74844C0.377751 1.67624 0.397567 1.61545 0.42734 1.55698C0.456726 1.49919 0.495102 1.44642 0.541307 1.40022C0.587416 1.35403 0.640291 1.31575 0.698387 1.28618C0.756482 1.25651 0.817381 1.2367 0.889879 1.22365C0.973397 1.20867 1.063 1.20451 1.13976 1.20248C1.18345 1.20123 1.22724 1.20074 1.27064 1.20045L1.43275 1.20016L14.567 1.20016Z" fill="#FFFFFE"/><path d="M7.70329 6.21591V7.67553H7.24744V4.07245H8.45643C8.74806 4.0667 9.03119 4.17876 9.23788 4.38563C9.65126 4.7764 9.67674 5.43438 9.28885 5.85675C9.27186 5.87399 9.25487 5.89123 9.23788 5.90847C9.02553 6.11247 8.76505 6.21591 8.45643 6.21591H7.70329ZM7.70329 4.51493V5.77342H8.46775C8.63763 5.77917 8.80185 5.71021 8.91794 5.58666C9.15577 5.33669 9.15011 4.93443 8.90378 4.69307C8.7877 4.57814 8.63197 4.51493 8.46775 4.51493H7.70329Z" fill="#3C4043"/><path d="M10.6167 5.12982C10.9536 5.12982 11.2197 5.22177 11.4151 5.40278C11.6105 5.5838 11.7067 5.83665 11.7067 6.15558V7.67554H11.2707V7.33362H11.2509C11.0612 7.6152 10.812 7.756 10.4977 7.756C10.2316 7.756 10.0051 7.67554 9.8267 7.51464C9.65116 7.36523 9.55206 7.14399 9.55773 6.91125C9.55773 6.65553 9.65399 6.4544 9.84369 6.30212C10.0334 6.14983 10.2882 6.07513 10.6053 6.07513C10.8771 6.07513 11.098 6.12685 11.2735 6.22454V6.11823C11.2735 5.9602 11.2056 5.81079 11.0867 5.70735C10.9649 5.59817 10.8092 5.53783 10.6478 5.53783C10.393 5.53783 10.192 5.64701 10.0447 5.86538L9.64267 5.60966C9.85785 5.29073 10.1835 5.12982 10.6167 5.12982ZM10.0277 6.91987C10.0277 7.04055 10.0844 7.15261 10.1778 7.22157C10.2797 7.30202 10.4043 7.34512 10.5317 7.34224C10.7242 7.34224 10.9083 7.26466 11.0442 7.12675C11.1943 6.98308 11.2707 6.81356 11.2707 6.61818C11.1291 6.50325 10.9309 6.44578 10.6761 6.44866C10.4921 6.44866 10.3363 6.49463 10.2118 6.5837C10.09 6.67277 10.0277 6.78483 10.0277 6.91987Z" fill="#3C4043"/><path fill-rule="evenodd" clip-rule="evenodd" d="M14.2097 5.21027L12.6864 8.75876H12.2164L12.7827 7.51751L11.7832 5.21027H12.2787L13.0007 6.9802H13.0092L13.7142 5.21027H14.2097Z" fill="#3C4043"/><path fill-rule="evenodd" clip-rule="evenodd" d="M5.86003 5.89985C5.86003 5.75905 5.84871 5.61826 5.82606 5.48035H3.90356V6.27624H5.00496C4.95966 6.53197 4.81243 6.76183 4.59725 6.90549V7.42268H5.25412C5.63919 7.06352 5.86003 6.53197 5.86003 5.89985Z" fill="#4285F4"/><path fill-rule="evenodd" clip-rule="evenodd" d="M3.90369 7.92264C4.45298 7.92264 4.91732 7.73875 5.25425 7.42269L4.59738 6.9055C4.41334 7.03193 4.17833 7.10376 3.90369 7.10376C3.3714 7.10376 2.92121 6.73885 2.75982 6.2504H2.08313V6.78483C2.42856 7.48303 3.13356 7.92264 3.90369 7.92264Z" fill="#34A853"/><path fill-rule="evenodd" clip-rule="evenodd" d="M2.75968 6.25039C2.67473 5.99467 2.67473 5.71596 2.75968 5.45737V4.92581H2.08298C1.79135 5.50909 1.79135 6.19867 2.08298 6.78195L2.75968 6.25039Z" fill="#FBBC04"/><path fill-rule="evenodd" clip-rule="evenodd" d="M3.90369 4.60398C4.19532 4.59824 4.47563 4.71029 4.68515 4.9143L5.26841 4.3224C4.8975 3.97186 4.41051 3.77935 3.90369 3.7851C3.13356 3.7851 2.42856 4.22758 2.08313 4.92579L2.75982 5.46022C2.92121 4.96889 3.3714 4.60398 3.90369 4.60398Z" fill="#EA4335"/></svg>