<svg xmlns="http://www.w3.org/2000/svg" viewBox="0 0 16 16" fill="none" aria-hidden="true" width="16" height="16"><g><path d="M7.38838 2.28854C7.43956 2.17594 7.5995 2.17594 7.65069 2.28854L7.9527 2.95298C7.97958 3.0121 8.02696 3.05949 8.08609 3.08636L8.75052 3.38838C8.86313 3.43956 8.86313 3.5995 8.75052 3.65069L8.08609 3.9527C8.02696 3.97958 7.97958 4.02696 7.9527 4.08609L7.65069 4.75052C7.5995 4.86313 7.43956 4.86313 7.38838 4.75052L7.08636 4.08609C7.05949 4.02696 7.0121 3.97958 6.95297 3.9527L6.28854 3.65069C6.17594 3.5995 6.17594 3.43956 6.28854 3.38838L6.95298 3.08636C7.0121 3.05949 7.05949 3.0121 7.08636 2.95298L7.38838 2.28854Z" fill="currentColor"/><path d="M8.94938 1.1973C8.98438 1.12031 9.09375 1.12031 9.12875 1.1973L9.33527 1.65165C9.35364 1.69208 9.38605 1.72448 9.42648 1.74286L9.88082 1.94938C9.95782 1.98438 9.95782 2.09375 9.88082 2.12875L9.42648 2.33527C9.38605 2.35364 9.35364 2.38605 9.33527 2.42648L9.12875 2.88082C9.09375 2.95782 8.98438 2.95782 8.94938 2.88082L8.74286 2.42648C8.72448 2.38605 8.69208 2.35364 8.65165 2.33527L8.1973 2.12875C8.12031 2.09375 8.12031 1.98438 8.1973 1.94938L8.65165 1.74286C8.69208 1.72448 8.72448 1.69208 8.74286 1.65165L8.94938 1.1973Z" fill="currentColor"/><path d="M0.696288 2.88943C0.426237 2.48527 0.600161 1.99526 0.916134 1.78413C1.23211 1.573 1.77296 1.63212 2.02142 2.00397L0.696288 2.88943Z" fill="currentColor" stroke="currentColor" stroke-width="0.398435" stroke-linejoin="round"/><path d="M15.3824 2.85625C15.6232 2.43399 15.415 1.95752 15.0848 1.76929C14.7547 1.58106 14.2194 1.67832 13.9979 2.06683L15.3824 2.85625Z" fill="currentColor" stroke="currentColor" stroke-width="0.398435" stroke-linejoin="round"/><path d="M12.0492 13.8957C13.067 12.21 14.2354 8.14769 14.8628 5.78811C15.15 4.70759 14.8514 3.72717 14.1303 3.29177C13.4092 2.85638 12.4026 3.04874 11.5801 3.80614C9.78415 5.46013 6.73338 8.38589 5.71558 10.0716" stroke="currentColor" stroke-linecap="round"/><path d="M3.99793 13.8957C2.98012 12.21 1.81171 8.14769 1.1844 5.78811C0.897132 4.70759 1.19571 3.72717 1.91682 3.29177C2.63795 2.85638 3.6446 3.04874 4.46704 3.80614C6.263 5.46013 9.31377 8.38589 10.3316 10.0716" stroke="currentColor" stroke-linecap="round"/><path d="M3.5 13.75C3.5 14.4404 5.51472 15 8 15C10.4853 15 12.5 14.4404 12.5 13.75C12.5 13.0596 10.4853 12.5 8 12.5C5.51472 12.5 3.5 13.0596 3.5 13.75Z" stroke="currentColor"/></g></svg>