<svg xmlns="http://www.w3.org/2000/svg" viewBox="0 0 16 16" fill="none" aria-hidden="true" width="16" height="16"><path d="M3.66639 7.91937H3.66296" stroke="currentColor" stroke-linecap="round" stroke-linejoin="round"/><path d="M9.2469 3.06229H9.24417" stroke="currentColor" stroke-linecap="round" stroke-linejoin="round"/><path d="M8.3304 7.9532C7.11293 5.27581 3.2576 5.27581 2.04013 7.9532C2.53454 9.04048 3.46395 9.68623 4.47507 9.8904C6.40327 10.2797 7.89012 8.92145 8.3304 7.9532ZM8.3304 7.9532C8.46566 7.68548 9.18263 6.74838 10.1566 6.74838C9.81843 7.08305 9.66962 8.73944 10.1566 9.54268C8.93913 9.54268 8.53331 8.22096 8.3304 7.9532Z" stroke="currentColor" stroke-linecap="round" stroke-linejoin="round"/><path d="M12.5272 3.08304C11.5424 0.917308 8.4238 0.917308 7.439 3.08304C7.83892 3.96254 8.59072 4.48488 9.40861 4.65003C10.9683 4.96498 12.171 3.86626 12.5272 3.08304ZM12.5272 3.08304C12.6366 2.86648 13.2165 2.10846 14.0044 2.10846C13.7308 2.37918 13.6105 3.71902 14.0044 4.36877C13.0196 4.36877 12.6913 3.29963 12.5272 3.08304Z" stroke="currentColor" stroke-linecap="round" stroke-linejoin="round"/><path d="M15 14.5H2" stroke="currentColor" stroke-linecap="round"/><path d="M12 14C12 14 12.5205 12.911 13 12.5C13.3574 12.1936 14 12 14 12" stroke="currentColor" stroke-linecap="round"/><path d="M12 14C12 14 11.4795 12.911 11 12.5C10.6426 12.1936 10 12 10 12" stroke="currentColor" stroke-linecap="round"/><mask id="path-8-inside-1_7152_994" fill="white"><path d="M2.5 3C2.5 3.27614 2.27614 3.5 2 3.5C1.72386 3.5 1.5 3.27614 1.5 3C1.5 2.72386 1.72386 2.5 2 2.5C2.27614 2.5 2.5 2.72386 2.5 3Z"/></mask><path d="M2.5 3C2.5 3.27614 2.27614 3.5 2 3.5C1.72386 3.5 1.5 3.27614 1.5 3C1.5 2.72386 1.72386 2.5 2 2.5C2.27614 2.5 2.5 2.72386 2.5 3Z" fill="currentColor"/><path d="M1.5 3C1.5 2.72386 1.72386 2.5 2 2.5V4.5C2.82843 4.5 3.5 3.82843 3.5 3H1.5ZM2 2.5C2.27614 2.5 2.5 2.72386 2.5 3H0.5C0.5 3.82843 1.17157 4.5 2 4.5V2.5ZM2.5 3C2.5 3.27614 2.27614 3.5 2 3.5V1.5C1.17157 1.5 0.5 2.17157 0.5 3H2.5ZM2 3.5C1.72386 3.5 1.5 3.27614 1.5 3H3.5C3.5 2.17157 2.82843 1.5 2 1.5V3.5Z" fill="currentColor" mask="url(#path-8-inside-1_7152_994)"/><path d="M2.5 5C2.5 5.27614 2.27614 5.5 2 5.5C1.72386 5.5 1.5 5.27614 1.5 5C1.5 4.72386 1.72386 4.5 2 4.5C2.27614 4.5 2.5 4.72386 2.5 5Z" stroke="currentColor" stroke-width="0.5"/></svg>