<svg xmlns="http://www.w3.org/2000/svg" viewBox="0 0 16 6" fill="none" aria-hidden="true" width="24"><path fill-rule="evenodd" clip-rule="evenodd" d="M5.73193 5.48668L6.53465 0.506683L7.81785 0.506683L7.01529 5.48668H5.73193Z" fill="#26337A"/><path fill-rule="evenodd" clip-rule="evenodd" d="M11.6697 0.628442C11.3026 0.488171 10.9127 0.417315 10.5197 0.419482C9.25109 0.419482 8.35797 1.09532 8.35061 2.063C8.34261 2.77884 8.98789 3.17804 9.47445 3.41596C9.97445 3.6598 10.1425 3.81596 10.1405 4.03404C10.137 4.36764 9.74149 4.52044 9.37253 4.52044C8.95435 4.53309 8.53941 4.44345 8.16373 4.25932L7.99861 4.17932L7.81909 5.29468C8.27459 5.47262 8.75967 5.56269 9.24869 5.56012C10.597 5.56012 11.4727 4.89244 11.4834 3.859C11.4881 3.29132 11.1461 2.86108 10.4055 2.50588C9.95749 2.275 9.68181 2.12188 9.68549 1.88828C9.68549 1.6814 9.91797 1.4598 10.4205 1.4598C10.7507 1.45259 11.0785 1.51814 11.3805 1.6518L11.4957 1.70876L11.6695 0.629242" fill="#26337A"/><path fill-rule="evenodd" clip-rule="evenodd" d="M13.3784 3.72073C13.4848 3.43449 13.8896 2.32873 13.8896 2.32873C13.882 2.34185 13.9953 2.04073 14.0601 1.85369L14.1467 2.28313C14.1467 2.28313 14.3929 3.47177 14.4436 3.72073H13.3784ZM14.9616 0.511292L13.9696 0.511292C13.662 0.511292 13.4318 0.599451 13.2976 0.924091L11.3915 5.48857H12.7393C12.7393 5.48857 12.9592 4.87465 13.0091 4.73993C13.1561 4.73993 14.4651 4.74249 14.6526 4.74249C14.691 4.91625 14.8089 5.48857 14.8089 5.48857L16 5.48857L14.9614 0.512571L14.9616 0.511292Z" fill="#26337A"/><path fill-rule="evenodd" clip-rule="evenodd" d="M4.65506 0.510529L3.39906 3.90573L3.26466 3.21629C3.03058 2.42109 2.3021 1.55917 1.48706 1.12733L2.63618 5.48269L3.99426 5.48189L6.01506 0.511169L4.65506 0.511169" fill="#26337A"/><path d="M2.23321 0.507186L0.163932 0.507186L0.146973 0.610386C1.75705 1.02303 2.82249 2.01855 3.26473 3.21503L2.81497 0.927026C2.73737 0.611506 2.51193 0.517906 2.23321 0.506866" fill="#26337A"/></svg>