<svg xmlns="http://www.w3.org/2000/svg" viewBox="0 0 14 14" fill="none" aria-hidden="true" width="16" height="16"><path d="M2.59204 2.18254C2.94406 2.69116 2.81687 3.38902 2.30797 3.74124C1.79905 4.09348 1.10112 3.9667 0.749091 3.45808C0.397063 2.94946 0.524245 2.25161 1.03317 1.89937C1.54207 1.54715 2.24001 1.67392 2.59204 2.18254Z" stroke="currentColor"/><path d="M5.56739 2.55537C5.10593 3.70748 4.62637 4.79066 3.35229 5.24287M3.35229 5.24287L2.00234 5.49975C1.69134 5.55893 1.51293 5.88857 1.63346 6.18131L2.81643 9.05424C2.91665 9.29763 3.19904 9.409 3.43842 9.29956L4.47229 8.82686M3.35229 5.24287L4.47229 8.82686M9 10C8 8.5 5.90807 8.14523 4.47229 8.82686" stroke="currentColor" stroke-linecap="round" stroke-linejoin="round"/><path d="M2.5 13.5C3.48686 12.8881 4.10868 11.6924 3.7 10.5" stroke="currentColor" stroke-linecap="round"/><path d="M6.91398 0.550003H12.2735C12.9142 0.550003 13.4335 1.06935 13.4335 1.71V11.07C13.4335 12.1848 13.0144 12.6578 12.3455 11.766L11.3055 10.3793C11.1549 10.1785 11.0735 9.93433 11.0735 9.68334V6.66315C11.0735 6.33633 10.9356 6.02467 10.6938 5.80482L6.13368 2.56833C5.34914 1.85511 5.85371 0.550003 6.91398 0.550003Z" stroke="currentColor" stroke-linecap="round" stroke-linejoin="round"/></svg>