<svg xmlns="http://www.w3.org/2000/svg" viewBox="0 0 16 14" fill="none" aria-hidden="true" width="16" height="16"><path d="M12.0068 7.66667C13.4796 7.66667 14.6735 6.47276 14.6735 5C14.6735 3.52724 13.4796 2.33333 12.0068 2.33333C11.4579 2.33333 10.9478 2.49916 10.5237 2.78345M4.00682 7.66667C2.53406 7.66667 1.34015 6.47276 1.34015 5C1.34015 3.52724 2.53406 2.33333 4.00682 2.33333C4.55569 2.33333 5.06584 2.49916 5.48989 2.78345M10.5237 2.78345C10.1593 1.74476 9.17002 1 8.00682 1C6.84361 1 5.85436 1.74476 5.48989 2.78345M10.5237 2.78345C10.6207 3.05987 10.6735 3.35711 10.6735 3.66667C10.6735 3.89687 10.6443 4.12025 10.5895 4.33333M6.31673 3.66667C6.11205 3.31283 5.8284 3.0104 5.48989 2.78345" stroke="currentColor" stroke-linecap="round" stroke-linejoin="round"/><path d="M4.00616 10.6667C5.0722 10.2518 6.47251 10 8.00616 10C9.53982 10 10.9401 10.2518 12.0062 10.6667" stroke="currentColor" stroke-linecap="round"/><path d="M3.34015 13.0007C4.58385 12.5857 6.21755 12.334 8.00682 12.334C9.79608 12.334 11.4298 12.5857 12.6735 13.0007" stroke="currentColor" stroke-linecap="round"/><path d="M12.0062 7V12.3333M4.00616 7V12.3333" stroke="currentColor" stroke-linecap="round"/></svg>