<svg xmlns="http://www.w3.org/2000/svg" viewBox="0 0 14 15" fill="none" aria-hidden="true" width="16" height="16"><path d="M6.99891 14.5C10.2624 14.5 12.908 11.8546 12.908 8.59135C12.908 5.32809 10.2624 2.6827 6.99891 2.6827C3.73542 2.6827 1.08984 5.32809 1.08984 8.59135C1.08984 11.8546 3.73542 14.5 6.99891 14.5Z" stroke="currentColor" stroke-width="0.9"/><path d="M4.63607 8.59135C4.63607 12.1365 6.99969 14.5 6.99969 14.5C6.99969 14.5 9.36332 12.1365 9.36332 8.59135C9.36332 5.04616 6.99969 2.6827 6.99969 2.6827C6.99969 2.6827 4.63607 5.04616 4.63607 8.59135Z" stroke="currentColor" stroke-width="0.9" stroke-linejoin="round"/><path d="M6.99951 2.3863V1.5" stroke="currentColor" stroke-width="0.9" stroke-linecap="round" stroke-linejoin="round"/><path d="M2.40794 4.82115C3.70714 5.20475 5.25878 5.48997 7.00058 5.48997C8.74237 5.48997 10.294 5.20475 11.5932 4.82115" stroke="currentColor" stroke-width="0.9" stroke-linejoin="round"/><path d="M12.9048 7.91859C11.3953 8.50483 9.37547 9.03407 7.00281 9.03407C4.63015 9.03407 2.61033 8.50483 1.10079 7.91859" stroke="currentColor" stroke-width="0.9" stroke-linejoin="round"/><path d="M1.88434 11.7481C3.28188 12.2112 5.01712 12.5802 6.99841 12.5802C8.82316 12.5802 10.4392 12.2672 11.7749 11.8559" stroke="currentColor" stroke-width="0.9" stroke-linejoin="round"/><path d="M11.9258 0.925781L12.0412 1.43827C12.1391 1.87294 12.4786 2.21242 12.9133 2.31034L13.4258 2.42578L12.9133 2.54122C12.4786 2.63914 12.1391 2.97859 12.0412 3.41329L11.9258 3.92578L11.8103 3.41329C11.7124 2.97859 11.373 2.63914 10.9383 2.54122L10.4258 2.42578L10.9383 2.31034C11.373 2.21242 11.7124 1.87297 11.8103 1.43827L11.9258 0.925781Z" fill="currentColor" stroke="currentColor" stroke-width="0.4" stroke-linejoin="round"/></svg>