<svg xmlns="http://www.w3.org/2000/svg" viewBox="0 0 16 16" fill="none" aria-hidden="true" width="16" height="16"><path d="M8.00001 1.33333V4M9.33334 2.66667H6.66667" stroke="currentColor" stroke-linecap="round" stroke-linejoin="round"/><path d="M5.20098 5.92433L8 4L10.799 5.92433C11.7737 6.5944 12 6.99908 12 8.07172V14.5H4V8.07172C4 6.99908 4.22633 6.5944 5.20098 5.92433Z" stroke="currentColor" stroke-linecap="round" stroke-linejoin="round"/><path d="M6.84021 11.0918V8.41224L9.39591 8V10.6796" stroke="currentColor" stroke-width="0.888895" stroke-linecap="round" stroke-linejoin="round"/><path d="M8.95136 11.5556C9.44229 11.5556 9.84026 11.1577 9.84026 10.6667C9.84026 10.1758 9.44229 9.77785 8.95136 9.77785C8.46044 9.77785 8.06247 10.1758 8.06247 10.6667C8.06247 11.1577 8.46044 11.5556 8.95136 11.5556Z" fill="currentColor"/><path d="M6.34031 12.0001C6.83123 12.0001 7.2292 11.6021 7.2292 11.1112C7.2292 10.6202 6.83123 10.2223 6.34031 10.2223C5.84938 10.2223 5.45141 10.6202 5.45141 11.1112C5.45141 11.6021 5.84938 12.0001 6.34031 12.0001Z" fill="currentColor"/><path d="M12.5259 8.59627C13.2431 8.95487 13.6017 9.1342 13.8009 9.4564C14 9.7786 14 10.1795 14 10.9814V13C14 13.6285 14 13.9428 13.8047 14.1381C13.6095 14.3333 13.2952 14.3333 12.6667 14.3333" stroke="currentColor" stroke-linecap="round" stroke-linejoin="round"/><path d="M3.47409 8.59627C2.75687 8.95487 2.39827 9.1342 2.19913 9.4564C2 9.7786 2 10.1795 2 10.9814V13C2 13.6285 2 13.9428 2.19526 14.1381C2.39053 14.3333 2.70479 14.3333 3.33333 14.3333" stroke="currentColor" stroke-linecap="round" stroke-linejoin="round"/></svg>