<svg xmlns="http://www.w3.org/2000/svg" viewBox="0 0 14 12" fill="none" aria-hidden="true" width="16" height="16"><path d="M0.5 5.99972C0.5 3.81106 0.5 2.71673 1.45191 2.0368C2.4038 1.35686 3.93587 1.35686 7 1.35686C10.0641 1.35686 11.5962 1.35686 12.5481 2.0368C13.5 2.71673 13.5 3.81106 13.5 5.99972C13.5 8.18836 13.5 9.28274 12.5481 9.96266C11.5962 10.6426 10.0641 10.6426 7 10.6426C3.93587 10.6426 2.4038 10.6426 1.45191 9.96266C0.5 9.28274 0.5 8.18836 0.5 5.99972Z" stroke="currentColor" stroke-linecap="round" stroke-linejoin="round"/><path d="M5.2725 4.16446L5.64017 4.90588C5.69031 5.00909 5.82403 5.10808 5.93681 5.12703L6.60325 5.23869C7.02942 5.31031 7.12966 5.62203 6.82258 5.92953L6.30448 6.45193C6.21677 6.54039 6.16872 6.711 6.19588 6.83314L6.34417 7.47978C6.46117 7.99165 6.1917 8.18963 5.74254 7.92212L5.11793 7.54931C5.00511 7.48191 4.81916 7.48191 4.70429 7.54931L4.07965 7.92212C3.6326 8.18963 3.36102 7.98952 3.478 7.47978L3.62633 6.83314C3.65349 6.711 3.60544 6.54039 3.5177 6.45193L2.99961 5.92953C2.69461 5.62203 2.79279 5.31031 3.21896 5.23869L3.88537 5.12703C3.99609 5.10808 4.12979 5.00909 4.17993 4.90588L4.5476 4.16446C4.74817 3.76215 5.07406 3.76215 5.2725 4.16446Z" fill="currentColor"/><path d="M8.85715 4.76102H11.3333" stroke="currentColor" stroke-linecap="round" stroke-linejoin="round"/><path d="M8.85715 7.23842H11.3333" stroke="currentColor" stroke-linecap="round" stroke-linejoin="round"/></svg>