<svg xmlns="http://www.w3.org/2000/svg" viewBox="0 0 16 16" fill="none" aria-hidden="true" width="16" height="16"><path d="M4.66667 8L3.92282 8C3.19242 8 2.94462 8.17149 3.01007 8.98689C3.22997 11.7253 5.38297 14 8.00001 14C10.617 14 12.7701 11.7253 12.9899 8.98689C13.0554 8.17149 12.8076 8 12.0772 8L11.3333 8" stroke="currentColor" stroke-linecap="round" stroke-linejoin="round"/><path d="M10 4C10 5.10457 9.10457 6 8 6C6.89543 6 6 5.10457 6 4C6 2.89543 6.89543 2 8 2C9.10457 2 10 2.89543 10 4Z" stroke="currentColor"/><path d="M8 6V14.5" stroke="currentColor"/></svg>