<svg xmlns="http://www.w3.org/2000/svg" viewBox="0 0 11 15" fill="none" aria-hidden="true" width="16" height="16"><path d="M6.63827 1.575C6.63827 2.1687 6.15696 2.64999 5.56328 2.64999C4.96959 2.64999 4.48828 2.1687 4.48828 1.575C4.48828 0.98129 4.96959 0.5 5.56328 0.5C6.15696 0.5 6.63827 0.98129 6.63827 1.575Z" stroke="currentColor"/><path d="M7.17644 13.4C7.02291 11.4351 6.29479 10.9291 5.29084 9.16656M5.29084 9.16656C4.42047 8.87021 3.98533 8.72206 3.72692 8.40998C3.6118 8.27093 3.52399 8.11146 3.46809 7.93991C3.34256 7.55467 3.45007 7.10768 3.66499 6.21372L4.05597 4.58774M5.29084 9.16656L6.38773 4.73511M0.752109 8.14824C0.958466 6.57861 1.72567 5.44069 4.05597 4.58774M4.05597 4.58774C4.2031 4.53388 4.42311 4.4557 4.64305 4.37818C4.98431 4.25788 5.15491 4.19775 5.31323 4.21332C5.70993 4.25232 6.38773 4.73511 6.38773 4.73511M6.38773 4.73511L8.78893 8.40998" stroke="currentColor" stroke-linecap="round" stroke-linejoin="round"/><path d="M0.872879 13.1851L1.34216 13.0137C2.53816 12.5769 3.30192 11.397 3.17944 10.1755" stroke="currentColor" stroke-linecap="round" stroke-linejoin="round"/></svg>