<svg xmlns="http://www.w3.org/2000/svg" viewBox="0 0 16 16" fill="none" aria-hidden="true" width="16" height="16"><path d="M14 11.6C14 12.7314 14 13.2971 13.5661 13.6485C13.1322 14 12.4338 14 11.0371 14H10.2963C8.89954 14 8.20114 14 7.76728 13.6485C7.33334 13.2971 7.33334 12.7314 7.33334 11.6V4.4C7.33334 3.26863 7.33334 2.70295 7.76728 2.35147C8.20114 2 8.89954 2 10.2963 2H11.0371C12.4338 2 13.1322 2 13.5661 2.35147C14 2.70295 14 3.26863 14 4.4V11.6Z" stroke="currentColor" stroke-linejoin="round"/><path d="M2 3.36064C2 2.71923 2 2.39852 2.19526 2.19926C2.39053 2 2.70479 2 3.33333 2C3.96187 2 4.27614 2 4.47141 2.19926C4.66667 2.39852 4.66667 2.71923 4.66667 3.36064V10.5918C4.66667 11.1968 4.66667 11.4993 4.61619 11.7919C4.57 12.0597 4.49251 12.3209 4.38538 12.5698C4.26833 12.8419 4.1039 13.0935 3.77505 13.5969C3.62853 13.8212 3.55526 13.9333 3.46325 13.9731C3.3802 14.0089 3.28647 14.0089 3.20342 13.9731C3.11141 13.9333 3.03814 13.8212 2.89161 13.5969C2.56277 13.0935 2.39834 12.8419 2.28129 12.5699C2.17415 12.3209 2.09666 12.0597 2.05047 11.7919C2 11.4993 2 11.1968 2 10.5918V3.36064Z" stroke="currentColor" stroke-linejoin="round"/><path d="M7.66666 11H8.99999" stroke="currentColor" stroke-linecap="round" stroke-linejoin="round"/><path d="M7.66666 8H8.99999" stroke="currentColor" stroke-linecap="round" stroke-linejoin="round"/><path d="M7.66666 5H8.99999" stroke="currentColor" stroke-linecap="round" stroke-linejoin="round"/><path d="M4.66667 4.66669C4.66667 5.03487 4.06971 5.33335 3.33333 5.33335C2.59695 5.33335 2 5.03487 2 4.66669" stroke="currentColor"/></svg>