<svg xmlns="http://www.w3.org/2000/svg" viewBox="0 0 16 16" fill="none" aria-label="Staycations" aria-hidden="false" width="18" height="18"><path d="M14.6667 11.6667H1.33334" stroke="currentColor" stroke-linecap="round" stroke-linejoin="round"/><path d="M14.6667 14V10.6667C14.6667 9.4096 14.6667 8.78107 14.2761 8.39053C13.8856 8 13.2571 8 12 8H4.00001C2.74293 8 2.11439 8 1.72387 8.39053C1.33334 8.78107 1.33334 9.4096 1.33334 10.6667V14" stroke="currentColor" stroke-linecap="round" stroke-linejoin="round"/><path d="M7.33333 8V6.80893C7.33333 6.55515 7.2952 6.47027 7.0998 6.37025C6.693 6.16195 6.1991 6 5.66667 6C5.13423 6 4.64037 6.16195 4.2335 6.37025C4.03814 6.47027 4 6.55515 4 6.80893V8" stroke="currentColor" stroke-linecap="round"/><path d="M12 8V6.80893C12 6.55515 11.9619 6.47027 11.7665 6.37025C11.3597 6.16195 10.8658 6 10.3333 6C9.80086 6 9.30699 6.16195 8.90019 6.37025C8.70479 6.47027 8.66666 6.55515 8.66666 6.80893V8" stroke="currentColor" stroke-linecap="round"/><path d="M14 8V4.90705C14 4.44595 14 4.21541 13.8719 3.99769C13.7438 3.77997 13.5613 3.66727 13.1963 3.44189C11.7246 2.53319 9.93287 2 8 2C6.06711 2 4.27543 2.53319 2.80372 3.44189C2.43869 3.66727 2.25618 3.77997 2.12809 3.99769C2 4.21541 2 4.44595 2 4.90705V8" stroke="currentColor" stroke-linecap="round"/></svg>