<svg xmlns="http://www.w3.org/2000/svg" viewBox="0 0 14 14" fill="none" aria-label="Nature &amp; Wildlife" aria-hidden="false" width="18" height="18"><path d="M9.73633 12.6885V10.6359" stroke="currentColor" stroke-linecap="round" stroke-linejoin="round"/><path d="M7.59808 4.80781C8.20736 5.03172 8.94304 5.16256 9.7352 5.16256C10.5274 5.16256 11.263 5.03172 11.8723 4.80781C12.2715 4.66113 12.3568 4.18048 12.0904 3.85531L10.2926 1.66117C10.0068 1.31241 9.46358 1.31241 9.17784 1.66117L7.38004 3.85531C7.11362 4.18048 7.19892 4.66113 7.59808 4.80781Z" stroke="currentColor" stroke-linecap="round" stroke-linejoin="round"/><path d="M11.328 5.16132L12.7254 6.47775C12.9724 6.71047 12.9047 7.06646 12.5602 7.19868C11.7909 7.49392 10.9059 7.66996 9.73736 7.66996C8.56886 7.66996 7.68378 7.49392 6.91452 7.19868C6.57 7.06646 6.50236 6.71047 6.74935 6.47775L8.14678 5.16132" stroke="currentColor" stroke-linecap="round" stroke-linejoin="round"/><path d="M7.39613 7.67108L6.11583 8.85663C5.89141 9.06442 5.93659 9.38519 6.23624 9.51671C7.1779 9.93007 8.40089 10.1797 9.73757 10.1797C11.0743 10.1797 12.2972 9.93007 13.2389 9.51671C13.5385 9.38519 13.5838 9.06442 13.3593 8.85663L12.079 7.67108" stroke="currentColor" stroke-linecap="round" stroke-linejoin="round"/><path d="M8.48242 12.6887H10.9911" stroke="currentColor" stroke-linecap="round" stroke-linejoin="round"/><path d="M0.5 9.61053H4.60505" stroke="currentColor" stroke-linecap="round" stroke-linejoin="round"/><path d="M4.09192 9.61053L4.60505 12.6893M1.01313 9.61053L0.5 12.6893" stroke="currentColor" stroke-linecap="round" stroke-linejoin="round"/><path d="M1.01367 11.6613L4.09246 11.6613" stroke="currentColor" stroke-linecap="round" stroke-linejoin="round"/></svg>