<svg xmlns="http://www.w3.org/2000/svg" viewBox="0 0 16 15" fill="none" aria-hidden="true" width="16" height="16"><path d="M1.33334 10.5001C1.33334 10.5001 2.53024 10 4.66668 10C8.00001 10 10.6667 12 14.6667 12" stroke="currentColor" stroke-linecap="round" stroke-linejoin="round"/><path d="M1.33334 14H14.6667" stroke="currentColor" stroke-linecap="round" stroke-linejoin="round"/><path d="M8.39603 2.15174C6.49893 2.69579 5.26581 4.56816 5.33621 6.58336C5.35083 7.00191 5.35814 7.21119 5.53699 7.30374C5.71583 7.39629 5.90146 7.26512 6.27273 7.00277L7.10044 6.41786C7.22475 6.33002 7.37233 6.2877 7.52103 6.29725L9.46516 6.42214L11.0905 5.27361C11.2148 5.18577 11.3624 5.14345 11.5111 5.153L12.5253 5.21815C12.9605 5.24611 13.1781 5.26009 13.2861 5.09255C13.3941 4.92502 13.3063 4.74389 13.1306 4.38162C12.2571 2.57993 10.3035 1.60471 8.39603 2.15174Z" stroke="currentColor" stroke-linecap="round" stroke-linejoin="round"/><path d="M9.66667 6.33334L11 11.3333M8.19048 2.00001L8 1.33334" stroke="currentColor" stroke-linecap="round" stroke-linejoin="round"/></svg>