<svg xmlns="http://www.w3.org/2000/svg" viewBox="0 0 15 14" fill="none" aria-hidden="true" width="16" height="16"><path d="M1.65292 9.58077L1.65289 9.58083L0.756185 11.5138C0.40344 12.2741 0.958676 13.1438 1.79689 13.1438H8.41309L6.76063 9.58083L6.76051 9.58062C5.83756 7.9475 5.37607 7.13092 4.74278 6.92072C4.39441 6.80507 4.01911 6.80507 3.67073 6.92072C3.03743 7.13093 2.57592 7.94755 1.65292 9.58077Z" stroke="currentColor"/><path d="M5.73668 13.1432H12.3531C13.1912 13.1432 13.7465 12.2736 13.3938 11.5133L12.4973 9.58022C11.5743 7.94696 11.1128 7.13032 10.4795 6.92011C10.1311 6.80447 9.36961 6.83326 9.36961 6.83326L4.20703 6.83327" stroke="currentColor"/><path d="M4.20703 7.02539V12.9528" stroke="currentColor"/><path d="M11.6738 7.92987V1.20898" stroke="currentColor" stroke-linecap="round" stroke-linejoin="round"/><path d="M11.6738 0.854392L13.4425 2.62305" stroke="currentColor" stroke-linecap="round" stroke-linejoin="round"/><path d="M11.6738 3.329L13.4425 5.09766" stroke="currentColor" stroke-linecap="round" stroke-linejoin="round"/><path d="M11.673 0.854392L9.9043 2.62305" stroke="currentColor" stroke-linecap="round" stroke-linejoin="round"/><path d="M11.673 3.329L9.9043 5.09766" stroke="currentColor" stroke-linecap="round" stroke-linejoin="round"/></svg>