<svg xmlns="http://www.w3.org/2000/svg" viewBox="0 0 14 15" fill="none" aria-hidden="true" width="16" height="16"><path d="M1.12961 13.3756L1.64371 13.361C2.9539 13.324 4.08401 12.4206 4.36225 11.1879" stroke="currentColor" stroke-linecap="round" stroke-linejoin="round"/><path d="M9.65274 3.33984L9.75155 3.89315M11.4971 13.6682L10.2595 6.73758" stroke="currentColor" stroke-linecap="round"/><path d="M7.86603 1.46678C8.02421 2.05713 7.67386 2.66393 7.08353 2.8221C6.49321 2.98028 5.8864 2.62995 5.72822 2.03961C5.57003 1.44927 5.92039 0.842467 6.51071 0.684291C7.10103 0.526115 7.70785 0.876442 7.86603 1.46678Z" stroke="currentColor"/><path d="M9.59181 13.6094L8.61907 11.8721C8.29714 11.2971 7.82221 10.8205 7.24509 10.4932L5.87548 9.71636M5.87548 9.71636C5.00573 9.34306 4.57089 9.15643 4.33047 8.8156C4.22336 8.66374 4.14591 8.4931 4.10217 8.31258C4.00394 7.90722 4.14979 7.457 4.4414 6.55656L4.97186 4.91882C5.12715 4.87523 5.35916 4.81247 5.59106 4.75038C5.95086 4.65403 6.13074 4.60587 6.29198 4.63443C6.45323 4.66298 6.6473 4.79922 7.03544 5.0717C7.14663 5.14977 7.25731 5.21677 7.35333 5.25532M5.87548 9.71636L7.35333 5.25532M7.35333 5.25532C8.34151 5.65187 10.2983 6.02742 11.3123 4.00443" stroke="currentColor" stroke-linecap="round" stroke-linejoin="round"/><path d="M3.49999 4.5L2.69998 7" stroke="currentColor" stroke-linecap="round" stroke-linejoin="round"/></svg>