<svg xmlns="http://www.w3.org/2000/svg" viewBox="0 0 16 16" fill="none" aria-hidden="true" width="16" height="16"><path d="M13 12.6667C13.9205 12.6667 14.6667 11.9205 14.6667 11C14.6667 10.0795 13.9205 9.33334 13 9.33334C12.0795 9.33334 11.3333 10.0795 11.3333 11C11.3333 11.9205 12.0795 12.6667 13 12.6667Z" stroke="currentColor"/><path d="M9.61068 12C9.43228 11.5917 9.33334 11.1407 9.33334 10.6667C9.33334 8.82574 10.8257 7.33334 12.6667 7.33334C12.895 7.33334 13.1179 7.35628 13.3333 7.40001" stroke="currentColor" stroke-linecap="round"/><path d="M3.00001 12.6667C3.92048 12.6667 4.66668 11.9205 4.66668 11C4.66668 10.0795 3.92048 9.33334 3.00001 9.33334C2.07954 9.33334 1.33334 10.0795 1.33334 11C1.33334 11.9205 2.07954 12.6667 3.00001 12.6667Z" stroke="currentColor"/><path d="M4.28681 6.41986H5.43774C5.74143 6.41986 6.03602 6.31619 6.27278 6.12599L7.49152 5.14693C7.60986 5.05184 7.75719 5 7.90906 5H9.99999L8.18952 8.31927C8.07266 8.5334 7.84819 8.66667 7.60426 8.66667H6.33332M4.28681 6.41986H2.66666M4.28681 6.41986L6.33332 8.66667M6.33332 8.66667L4.66666 10.6667" stroke="currentColor" stroke-linecap="round" stroke-linejoin="round"/><path d="M11.3333 7.33332L9.32821 3.82432C9.05821 3.35188 8.92328 3.11567 8.72234 2.95604C8.62088 2.87541 8.50814 2.81001 8.38781 2.7619C8.14954 2.66666 7.87748 2.66666 7.33334 2.66666" stroke="currentColor" stroke-linecap="round" stroke-linejoin="round"/></svg>