<svg xmlns="http://www.w3.org/2000/svg" viewBox="0 0 16 16" fill="none" aria-hidden="true" width="16" height="16"><path d="M4.33333 14.6667C5.622 14.6667 6.66667 13.622 6.66667 12.3333C6.66667 11.0447 5.622 10 4.33333 10C3.04467 10 2 11.0447 2 12.3333C2 13.622 3.04467 14.6667 4.33333 14.6667Z" stroke="currentColor"/><path d="M12 12.6667C13.1046 12.6667 14 11.7712 14 10.6667C14 9.5621 13.1046 8.66667 12 8.66667C10.8954 8.66667 10 9.5621 10 10.6667C10 11.7712 10.8954 12.6667 12 12.6667Z" stroke="currentColor"/><path d="M6.66666 12.3333V4.66667C6.66666 4.05104 6.66666 3.74322 6.84232 3.55196C7.01792 3.36071 7.34499 3.3328 7.99906 3.277C10.6813 3.04815 12.606 2.17337 13.5702 1.60652C13.7672 1.49067 13.8657 1.43275 13.9329 1.47115C14 1.50955 14 1.621 14 1.84392V10.6667" stroke="currentColor" stroke-linecap="round" stroke-linejoin="round"/><path d="M6.66666 6.66667C10.5778 6.66667 13.1852 5.11111 14 4.66667" stroke="currentColor" stroke-linecap="round" stroke-linejoin="round"/></svg>