<svg xmlns="http://www.w3.org/2000/svg" viewBox="0 0 16 16" fill="none" aria-hidden="true" width="16" height="16"><path d="M8.95544 2.02832C8.95544 2.46943 8.59784 2.82702 8.15674 2.82702C7.71564 2.82702 7.35803 2.46943 7.35803 2.02832C7.35803 1.58721 7.71564 1.22961 8.15674 1.22961C8.59784 1.22961 8.95544 1.58721 8.95544 2.02832Z" stroke="currentColor"/><path d="M9.35529 10.814C9.24122 9.35416 8.70024 8.97827 7.95432 7.66871M7.95432 7.66871C7.30765 7.44852 6.98435 7.33845 6.79235 7.10658C6.70682 7.00327 6.64158 6.88478 6.60005 6.75732C6.50678 6.47109 6.58666 6.13899 6.74634 5.47479L6.90964 4.79569C6.99321 4.44814 7.1401 4.06856 7.48331 3.96864C8.10726 3.787 8.76929 4.3762 8.76929 4.3762M7.95432 7.66871L8.76929 4.3762M8.76929 4.3762C8.76929 4.3762 9.77902 4.8907 10.464 5C11.9607 5.23886 12.75 3.5 12.75 3.5" stroke="currentColor" stroke-linecap="round" stroke-linejoin="round"/><path d="M4.49999 11.5C5.61447 10.757 6.97049 7.64564 6.62373 6.80201" stroke="currentColor" stroke-linecap="round" stroke-linejoin="round"/><path d="M8.96396 5C8.96396 6 10.664 7.4 11.464 7" stroke="currentColor"/><path d="M2 11.5292L12.9374 11.5292C13.5614 11.5292 14.1048 11.1033 14.2539 10.4974V10.4974" stroke="currentColor" stroke-linecap="round"/><path d="M12.8745 3.32669L9.37445 12.3267" stroke="currentColor" stroke-linecap="round"/><path d="M14.2 13.9974C13.7708 14.6557 13.216 14.6557 12.7763 13.9974C11.3627 11.8349 10.0162 15.5528 9.01811 14.0217C7.49604 11.7276 6.40128 15.7065 5.25992 13.9974C3.77156 11.7205 2.84435 15.4909 1.67274 14.2423" stroke="currentColor" stroke-linecap="round"/></svg>