<svg xmlns="http://www.w3.org/2000/svg" viewBox="0 0 16 16" fill="none" aria-hidden="true" width="16" height="16"><path d="M13.3333 5.95555C13.3333 9.33333 9.64099 12 7.99999 12C6.35896 12 2.66666 9.33333 2.66666 5.95555C2.66666 3.40277 5.05447 1.33333 7.99999 1.33333C10.9455 1.33333 13.3333 3.40277 13.3333 5.95555Z" stroke="currentColor"/><path d="M10 5.95555C10 9.33333 8.6154 12 8 12C7.3846 12 6 9.33333 6 5.95555C6 3.40277 6.8954 1.33333 8 1.33333C9.1046 1.33333 10 3.40277 10 5.95555Z" stroke="currentColor"/><path d="M6 13.3333C6 13.0233 6 12.8683 6.03407 12.7412C6.12654 12.3961 6.39609 12.1265 6.7412 12.0341C6.86833 12 7.02333 12 7.33333 12H8.66667C8.97667 12 9.13167 12 9.2588 12.0341C9.60393 12.1265 9.87347 12.3961 9.96593 12.7412C10 12.8683 10 13.0233 10 13.3333C10 13.6433 10 13.7983 9.96593 13.9255C9.87347 14.2706 9.60393 14.5401 9.2588 14.6326C9.13167 14.6667 8.97667 14.6667 8.66667 14.6667H7.33333C7.02333 14.6667 6.86833 14.6667 6.7412 14.6326C6.39609 14.5401 6.12654 14.2706 6.03407 13.9255C6 13.7983 6 13.6433 6 13.3333Z" stroke="currentColor" stroke-linejoin="round"/></svg>