<svg xmlns="http://www.w3.org/2000/svg" viewBox="0 0 16 15" fill="none" aria-hidden="true" width="16" height="16"><path d="M8.07691 11.2013C9.27784 11.2013 10.2866 10.3908 10.5698 9.29491C10.7016 8.78501 10.5103 8.66797 10.0061 8.66797H6.14769C5.6435 8.66797 5.45219 8.78501 5.58399 9.29491C5.86727 10.3908 6.87599 11.2013 8.07691 11.2013Z" stroke="currentColor" stroke-linecap="round" stroke-linejoin="round"/><path d="M4.90881 5.81719C4.90881 5.29252 5.33414 4.86719 5.85881 4.86719C6.38349 4.86719 6.80881 5.29252 6.80881 5.81719M9.34215 5.81719C9.34215 5.29252 9.76749 4.86719 10.2921 4.86719C10.8168 4.86719 11.2421 5.29252 11.2421 5.81719" stroke="currentColor" stroke-linecap="round" stroke-linejoin="round"/><path d="M1.53032 2.94385C1.46013 2.10155 2.18868 1.41127 3.02596 1.52675C6.16557 1.9598 9.3488 1.97372 12.4921 1.56814L12.8229 1.52545C13.7367 1.40754 14.5265 2.16243 14.45 3.08064L13.9531 9.04357C13.6949 12.1419 11.1049 14.525 7.99585 14.525C4.88683 14.525 2.29682 12.1418 2.03863 9.04356L1.53032 2.94385Z" stroke="currentColor" stroke-width="0.95"/></svg>