<svg xmlns="http://www.w3.org/2000/svg" viewBox="0 0 14 15" fill="none" aria-hidden="true" width="16" height="16"><path d="M0.75 7.2482V10.7199M0.75 10.7199H2.1387C3.12065 10.7199 3.61163 10.7199 3.91669 11.025C4.22174 11.3301 4.22174 11.821 4.22174 12.803V13.4973M0.75 10.7199V13.4973" stroke="currentColor" stroke-width="1.04169" stroke-linecap="round" stroke-linejoin="round"/><path d="M1.44263 3.7774L5.13429 1.75229C6.04852 1.25076 6.50568 1 6.99742 1C7.48916 1 7.94631 1.25076 8.86056 1.75229L12.5522 3.7774" stroke="currentColor" stroke-width="1.04169" stroke-linecap="round" stroke-linejoin="round"/><path d="M11.1637 3.08151V5.85891M2.83151 3.08151V5.85891" stroke="currentColor" stroke-width="1.04169" stroke-linecap="round" stroke-linejoin="round"/><path d="M13.2477 7.2482V10.7199M13.2477 10.7199H11.859C10.8771 10.7199 10.3861 10.7199 10.081 11.025C9.77597 11.3301 9.77597 11.821 9.77597 12.803V13.4973M13.2477 10.7199V13.4973" stroke="currentColor" stroke-width="1.04169" stroke-linecap="round" stroke-linejoin="round"/><path d="M3.52777 8.63889H6.99952M6.99952 8.63889H10.4713M6.99952 8.63889V13.4993M6.99952 13.4993H6.30517M6.99952 13.4993H7.69386" stroke="currentColor" stroke-width="1.04169" stroke-linecap="round" stroke-linejoin="round"/></svg>