<svg xmlns="http://www.w3.org/2000/svg" viewBox="0 0 16 10" fill="none" aria-hidden="true" width="16" height="16"><path d="M11.3333 9.4987C12.0697 9.4987 12.6667 8.90174 12.6667 8.16536C12.6667 7.42898 12.0697 6.83203 11.3333 6.83203C10.597 6.83203 10 7.42898 10 8.16536C10 8.90174 10.597 9.4987 11.3333 9.4987Z" stroke="currentColor"/><path d="M4.66732 9.4987C5.4037 9.4987 6.00065 8.90174 6.00065 8.16536C6.00065 7.42898 5.4037 6.83203 4.66732 6.83203C3.93094 6.83203 3.33398 7.42898 3.33398 8.16536C3.33398 8.90174 3.93094 9.4987 4.66732 9.4987Z" stroke="currentColor"/><path d="M3.3332 8.14827C2.60205 8.11187 2.14593 8.00307 1.82135 7.67853C1.49677 7.35393 1.38801 6.8978 1.35156 6.16667V6.16667C1.35156 5.54669 1.35156 5.2367 1.41971 4.98236C1.60464 4.29218 2.14374 3.75308 2.83392 3.56815C3.08826 3.5 3.39825 3.5 4.01823 3.5H5.33333L5.44712 3.72761C5.71605 4.2656 5.85052 4.53459 6.09219 4.68396C6.33385 4.83333 6.63458 4.83333 7.23604 4.83333H8.76391C9.36526 4.83333 9.66594 4.83333 9.90758 4.68401C10.1492 4.53468 10.2837 4.26575 10.5527 3.72791L10.6667 3.5H13.3332C14.0696 3.5 14.6665 4.09695 14.6665 4.83333V4.83333C14.6665 6.40467 14.6665 7.19033 14.1784 7.67853C13.8538 8.00307 13.3977 8.11187 12.6665 8.14827M5.99986 8.16667H9.99986" stroke="currentColor" stroke-linecap="round" stroke-linejoin="round"/><path d="M2.33398 1.79999H5.33398" stroke="currentColor" stroke-linecap="round" stroke-linejoin="round"/><path d="M8.33398 0.5L11.0007 3.5" stroke="currentColor" stroke-linecap="round" stroke-linejoin="round"/></svg>