<svg xmlns="http://www.w3.org/2000/svg" viewBox="0 0 14 16" fill="none" aria-label="Wellness" aria-hidden="false" width="18" height="18"><path d="M4.25732 6.66663C4.71449 7.59786 5.20295 8.46989 5.09013 9.54278C4.90978 11.2579 2.83008 11.9035 1.50014 12.6936C0.628831 13.2112 0.954603 14.6666 2.02388 14.6666C3.32032 14.6666 4.47738 14.5632 5.64707 14.0134L7.94074 12.6018C8.25911 12.4522 8.66085 12.516 9 12.6666" stroke="currentColor" stroke-linecap="round" stroke-linejoin="round"/><path d="M9.67367 6.66663C9.20681 7.59786 8.70801 8.46989 8.82321 9.54278C9.00738 11.2579 11.1311 11.9035 12.4893 12.6936C13.379 13.2112 13.0464 14.6666 11.9544 14.6666C10.6305 14.6666 9.44894 14.5632 8.25447 14.0134L5.91221 12.6018C5.6388 12.476 5.30518 12.5011 5 12.6018" stroke="currentColor" stroke-linecap="round" stroke-linejoin="round"/><path d="M5.66668 2.66665C5.66668 3.40303 6.26363 3.99998 7.00001 3.99998C7.73639 3.99998 8.33334 3.40303 8.33334 2.66665C8.33334 1.93027 7.73639 1.33331 7.00001 1.33331C6.26363 1.33331 5.66668 1.93027 5.66668 2.66665Z" stroke="currentColor"/><path d="M1 10.6666C2.63057 10.6666 3.36245 8.86324 3.59556 7.61939C3.65642 7.29468 3.75497 6.97098 3.97084 6.7209C4.70434 5.87114 5.78936 5.33331 7 5.33331C8.21064 5.33331 9.29566 5.87114 10.0292 6.7209C10.245 6.97098 10.3436 7.29468 10.4044 7.61939C10.6375 8.86324 11.3694 10.6666 13 10.6666" stroke="currentColor" stroke-linecap="round" stroke-linejoin="round"/></svg>