<svg xmlns="http://www.w3.org/2000/svg" viewBox="0 0 12 14" fill="none" aria-hidden="true" width="16" height="16"><path d="M1.06707 6.75595C0.891364 7.5548 0.798828 8.38415 0.798828 9.23477C0.798828 9.81974 0.842592 10.3947 0.927072 10.9565C1.08741 12.0229 1.16758 12.556 1.71606 13.0282C2.26455 13.5004 2.92908 13.5004 4.25813 13.5004H7.73953C9.06858 13.5004 9.7331 13.5004 10.2816 13.0282C10.8301 12.556 10.9102 12.0229 11.0706 10.9565C11.1551 10.3947 11.1988 9.81974 11.1988 9.23477C11.1988 8.38415 11.1063 7.5548 10.9306 6.75595C10.7114 5.75924 10.6018 5.26088 10.0666 4.83063C9.53144 4.40039 8.9026 4.40039 7.64493 4.40039H4.35272C3.09505 4.40039 2.46622 4.40039 1.93106 4.83063C1.3959 5.26088 1.28629 5.75924 1.06707 6.75595Z" stroke="currentColor"/><path d="M0.798828 0.5H7.29883M11.1988 0.5H7.29883M7.29883 0.5L5.99883 2.775M4.04883 2.775H7.94883" stroke="currentColor" stroke-linecap="round" stroke-linejoin="round"/><path d="M1.125 9.60156L10.875 9.60156" stroke="currentColor" stroke-linecap="round"/><path d="M6 5.04883L6 9.59883" stroke="currentColor" stroke-linecap="round"/></svg>