<svg xmlns="http://www.w3.org/2000/svg" viewBox="0 0 16 16" fill="none" aria-hidden="true" width="16" height="16"><path d="M2 4.89919V13.6875C2 14.1362 2.36377 14.5 2.8125 14.5H14C14.2761 14.5 14.5 14.2761 14.5 14V9.28115C14.5 7.74516 13.2548 6.5 11.7188 6.5C10.6654 6.5 9.70241 5.90483 9.23131 4.96261L8.43951 3.37902C7.86372 2.22743 6.6867 1.5 5.39919 1.5C3.52187 1.5 2 3.02187 2 4.89919Z" stroke="currentColor"/><path d="M2 10H14" stroke="currentColor"/><path d="M4.5 10V12.5" stroke="currentColor" stroke-linecap="round"/><path d="M7 10V12.5" stroke="currentColor" stroke-linecap="round"/><path d="M9.5 10V12.5" stroke="currentColor" stroke-linecap="round"/><path d="M12 10V12.5" stroke="currentColor" stroke-linecap="round"/></svg>