<svg xmlns="http://www.w3.org/2000/svg" xmlns:xlink="http://www.w3.org/1999/xlink" viewBox="0 0 1024 1024" width="1024" height="1024" preserveAspectRatio="xMidYMid meet" style="width: 100%; height: 100%; transform: translate3d(0px, 0px, 0px); content-visibility: visible;"><defs><clipPath id="__lottie_element_54"><rect width="1024" height="1024" x="0" y="0"/></clipPath></defs><g clip-path="url(#__lottie_element_54)"><g transform="matrix(1,0,0,1,-12.16998291015625,71.42999267578125)" opacity="1" style="display: block;"><g opacity="1" transform="matrix(1,0,0,1,524.1699829101562,440.6099853515625)"><path fill="rgb(238,84,146)" fill-opacity="1" d=" M239.67999267578125,-440.3599853515625 C64.4000015258789,-440.3599853515625 0,-261.32000732421875 0,-261.32000732421875 C0,-261.32000732421875 -63.52000045776367,-440.3599853515625 -240.0800018310547,-440.3599853515625 C-372.7200012207031,-440.3599853515625 -523.9199829101562,-335.239990234375 -468.0799865722656,-96.27999877929688 C-412.239990234375,142.67999267578125 0.4000000059604645,440.3599853515625 0.4000000059604645,440.3599853515625 C0.4000000059604645,440.3599853515625 411.5199890136719,142.67999267578125 467.44000244140625,-96.27999877929688 C523.280029296875,-335.239990234375 382.9599914550781,-440.3599853515625 239.67999267578125,-440.3599853515625z"/></g><g opacity="1" transform="matrix(1,0,0,1,324.5299987792969,117.48999786376953)"><path fill="rgb(218,45,117)" fill-opacity="1" d=" M-67.4800033569336,-99.4000015258789 C70.12000274658203,-99.4000015258789 138.44000244140625,48.52000045776367 160.52000427246094,108.44000244140625 C163.63999938964844,117 175.55999755859375,117.23999786376953 179.16000366210938,108.91999816894531 C179.16000366210938,108.91999816894531 199.32000732421875,61.880001068115234 199.32000732421875,61.880001068115234 C170.9199981689453,-28.920000076293945 92.83999633789062,-117.23999786376953 -40.439998626708984,-117.23999786376953 C-95.63999938964844,-117.23999786376953 -153.9600067138672,-99 -199.32000732421875,-60.52000045776367 C-159.24000549316406,-86.83999633789062 -112.27999877929688,-99.4000015258789 -67.4800033569336,-99.4000015258789z"/></g><g opacity="1" transform="matrix(1,0,0,1,780.3699951171875,440.57000732421875)"><path fill="rgb(218,45,117)" fill-opacity="1" d=" M-16.520000457763672,-440.32000732421875 C-58.84000015258789,-440.32000732421875 -94.68000030517578,-428 -124.76000213623047,-409.5199890136719 C-103.63999938964844,-417.67999267578125 -80.27999877929688,-422.4800109863281 -54.36000061035156,-422.4800109863281 C75.31999969482422,-422.4800109863281 191.39999389648438,-324.1600036621094 139,-96.87999725341797 C94.04000091552734,98.23999786376953 -168.67999267578125,334.9599914550781 -248.9199981689453,425.2799987792969 C-254.0399932861328,431.0400085449219 -255.8000030517578,440.32000732421875 -255.8000030517578,440.32000732421875 C-255.8000030517578,440.32000732421875 155.32000732421875,142.63900756835938 211.24000549316406,-96.31999969482422 C267.0799865722656,-335.20001220703125 116.04000091552734,-440.32000732421875 -16.520000457763672,-440.32000732421875z"/></g><g opacity="1" transform="matrix(1,0,0,1,203.08999633789062,195.80999755859375)"><path fill="rgb(243,133,171)" fill-opacity="1" d=" M-54.91999816894531,-68.68000030517578 C-24.920000076293945,-106.12000274658203 28.68000030517578,-137.0800018310547 74.12000274658203,-101.4000015258789 C98.68000030517578,-82.12000274658203 87.95999908447266,-42.599998474121094 65.95999908447266,-25.959999084472656 C33.959999084472656,-1.6399999856948853 6.119999885559082,13 -13.399999618530273,51.08000183105469 C-25.079999923706055,73.95999908447266 -32.119998931884766,99 -35.720001220703125,124.5199966430664 C-37.15999984741211,134.60000610351562 -50.36000061035156,137.0800018310547 -55.31999969482422,128.1999969482422 C-89.08000183105469,68.27999877929688 -98.68000030517578,-14.119999885559082 -54.91999816894531,-68.68000030517578z"/></g></g><g transform="matrix(1,0,0,1,563.1900024414062,678.8699951171875)" opacity="1" style="display: block;"><g opacity="1" transform="matrix(1,0,0,1,29.049999237060547,29.049999237060547)"><path fill="rgb(252,215,53)" fill-opacity="1" d=" M0,-28.799999237060547 C15.906000137329102,-28.799999237060547 28.799999237060547,-15.906000137329102 28.799999237060547,0 C28.799999237060547,15.906000137329102 15.906000137329102,28.799999237060547 0,28.799999237060547 C-15.906000137329102,28.799999237060547 -28.799999237060547,15.906000137329102 -28.799999237060547,0 C-28.799999237060547,-15.906000137329102 -15.906000137329102,-28.799999237060547 0,-28.799999237060547z"/></g></g><g style="display: none;"><g><path/></g></g><g style="display: none;"><g><path/></g></g><g transform="matrix(1,0,0,1,664.4769897460938,538.3190307617188)" opacity="1" style="display: block;"><g opacity="1" transform="matrix(1,0,0,1,55.74300003051758,55.74300003051758)"><path fill="rgb(255,248,145)" fill-opacity="1" d=" M-55.49300003051758,0 C-55.49300003051758,0 0,-55.49300003051758 0,-55.49300003051758 C0,-55.49300003051758 55.49300003051758,0 55.49300003051758,0 C55.49300003051758,0 0,55.49300003051758 0,55.49300003051758 C0,55.49300003051758 -55.49300003051758,0 -55.49300003051758,0z"/></g></g><g style="display: none;"><g><path/></g></g><g style="display: none;"><g><path/></g></g><g transform="matrix(1,0,0,1,586.5499877929688,319.6700134277344)" opacity="1" style="display: block;"><g opacity="1" transform="matrix(1,0,0,1,34.4900016784668,34.4900016784668)"><path fill="rgb(255,248,145)" fill-opacity="1" d=" M0,-34.2400016784668 C18.90999984741211,-34.2400016784668 34.2400016784668,-18.90999984741211 34.2400016784668,0 C34.2400016784668,18.90999984741211 18.90999984741211,34.2400016784668 0,34.2400016784668 C-18.90999984741211,34.2400016784668 -34.2400016784668,18.90999984741211 -34.2400016784668,0 C-34.2400016784668,-18.90999984741211 -18.90999984741211,-34.2400016784668 0,-34.2400016784668z"/></g></g><g style="display: none;"><g><path/></g><g><path/></g><g><path/></g></g><g style="display: none;"><g><path/></g><g><path/></g><g><path/></g></g><g transform="matrix(1,0,0,1,170.0699920654297,354.22998046875)" opacity="1" style="display: block;"><g opacity="1" transform="matrix(1,0,0,1,181.3300018310547,254.00999450683594)"><path fill="rgb(252,215,53)" fill-opacity="1" d=" M172.0399932861328,-9.119999885559082 C172.0399932861328,-9.119999885559082 109.55999755859375,-29.280000686645508 109.55999755859375,-29.280000686645508 C69.55999755859375,-42.47999954223633 46.20000076293945,-74.80000305175781 35.2400016784668,-115.44000244140625 C35.2400016784668,-115.44000244140625 7.800000190734863,-249.27999877929688 7.800000190734863,-249.27999877929688 C7.079999923706055,-251.9199981689453 4.519999980926514,-253.75999450683594 -0.03999999910593033,-253.75999450683594 C-4.599999904632568,-253.75999450683594 -7.159999847412109,-251.9199981689453 -7.880000114440918,-249.27999877929688 C-7.880000114440918,-249.27999877929688 -35.31999969482422,-115.36000061035156 -35.31999969482422,-115.36000061035156 C-46.36000061035156,-74.72100067138672 -69.72000122070312,-42.400001525878906 -109.63999938964844,-29.200000762939453 C-109.63999938964844,-29.200000762939453 -172.1199951171875,-9.039999961853027 -172.1199951171875,-9.039999961853027 C-181,-6.159999847412109 -181.0800018310547,6.318999767303467 -172.27999877929688,9.279000282287598 C-172.27999877929688,9.279000282287598 -109.4000015258789,30.959999084472656 -109.4000015258789,30.959999084472656 C-69.55999755859375,44.15999984741211 -46.36000061035156,76.4800033569336 -35.31999969482422,116.95999908447266 C-35.31999969482422,116.95999908447266 -7.800000190734863,249.35899353027344 -7.800000190734863,249.35899353027344 C-7.079999923706055,252 -4.599999904632568,253.75999450683594 0.03999999910593033,253.75999450683594 C4.679999828338623,253.75999450683594 7.159999847412109,251.9199981689453 7.880000114440918,249.35899353027344 C7.880000114440918,249.35899353027344 35.400001525878906,116.95999908447266 35.400001525878906,116.95999908447266 C46.439998626708984,76.4800033569336 69.63999938964844,44.2400016784668 109.4800033569336,30.959999084472656 C109.4800033569336,30.959999084472656 172.36000061035156,9.279000282287598 172.36000061035156,9.279000282287598 C181.0800018310547,6.239999771118164 180.9199981689453,-6.239999771118164 172.0399932861328,-9.119999885559082z"/></g><g opacity="1" transform="matrix(1,0,0,1,272.69000244140625,125.8499984741211)"><path fill="rgb(255,240,118)" fill-opacity="1" d=" M86.68000030517578,124.63999938964844 C85.72000122070312,122.16100311279297 83.80000305175781,120 80.76000213623047,119.04000091552734 C80.76000213623047,119.04000091552734 18.280000686645508,98.87999725341797 18.280000686645508,98.87999725341797 C-21.719999313354492,85.68000030517578 -45.08000183105469,53.361000061035156 -56.040000915527344,12.720000267028809 C-56.040000915527344,12.720000267028809 -83.55999755859375,-121.12000274658203 -83.55999755859375,-121.12000274658203 C-83.95999908447266,-122.63999938964844 -85.08000183105469,-123.83899688720703 -86.68000030517578,-124.63999938964844 C-86.68000030517578,-124.63999938964844 -78.12000274658203,8.16100025177002 -78.12000274658203,8.16100025177002 C-71.55999755859375,69.5199966430664 -65.87999725341797,98.4010009765625 -16.920000076293945,106.80000305175781 C25.079999923706055,114.08000183105469 73.72000122070312,122.4010009765625 86.68000030517578,124.63999938964844z"/></g><g opacity="1" transform="matrix(1,0,0,1,271.1300048828125,382.489990234375)"><path fill="rgb(244,180,0)" fill-opacity="1" d=" M88.31999969482422,-125.04000091552734 C88.31999969482422,-125.04000091552734 -20,-100.16000366210938 -20,-100.16000366210938 C-58.15999984741211,-90.47899627685547 -79.19999694824219,-68.31900024414062 -79.19999694824219,-10.5600004196167 C-79.19999694824219,-10.5600004196167 -88.31999969482422,125.04000091552734 -88.31999969482422,125.04000091552734 C-84.63999938964844,124.64099884033203 -82.63999938964844,123.04000091552734 -82,120.80000305175781 C-82,120.80000305175781 -54.47999954223633,-11.600000381469727 -54.47999954223633,-11.600000381469727 C-43.439998626708984,-52.08000183105469 -20.239999771118164,-84.31900024414062 19.600000381469727,-97.5999984741211 C19.600000381469727,-97.5999984741211 82.4800033569336,-119.27899932861328 82.4800033569336,-119.27899932861328 C85.5199966430664,-120.23899841308594 87.36000061035156,-122.47899627685547 88.31999969482422,-125.04000091552734z"/></g></g><g transform="matrix(1,0,0,1,650.0699462890625,35.66999816894531)" opacity="1" style="display: block;"><g opacity="1" transform="matrix(1,0,0,1,139.97000122070312,184.2100067138672)"><path fill="rgb(252,215,53)" fill-opacity="1" d=" M86.36000061035156,-18.520000457763672 C37.63999938964844,-34.599998474121094 33.2400016784668,-52.7599983215332 25,-83.23999786376953 C25,-83.23999786376953 4.599999904632568,-179.32000732421875 4.599999904632568,-179.32000732421875 C3.4000000953674316,-183.9600067138672 -8.680000305175781,-183.9600067138672 -9.960000038146973,-179.32000732421875 C-9.960000038146973,-179.32000732421875 -23.799999237060547,-88.68000030517578 -23.799999237060547,-88.68000030517578 C-32.040000915527344,-58.279998779296875 -49.560001373291016,-34.040000915527344 -79.4800033569336,-24.1200008392334 C-79.4800033569336,-24.1200008392334 -133,-3.4000000953674316 -133,-3.4000000953674316 C-139.63999938964844,-1.2400000095367432 -139.72000122070312,8.119999885559082 -133.16000366210938,10.359999656677246 C-133.16000366210938,10.359999656677246 -79.31999969482422,27.31999969482422 -79.31999969482422,27.31999969482422 C-49.47999954223633,37.2400016784668 -32.040000915527344,61.400001525878906 -23.799999237060547,91.72000122070312 C-23.799999237060547,91.72000122070312 -9.960000038146973,179.39999389648438 -9.960000038146973,179.39999389648438 C-8.680000305175781,183.9600067138672 3.319999933242798,183.9600067138672 4.519999980926514,179.39999389648438 C4.519999980926514,179.39999389648438 20.760000228881836,91.95999908447266 20.760000228881836,91.95999908447266 C29,61.400001525878906 41.560001373291016,37.15999984741211 82.12000274658203,27.239999771118164 C82.12000274658203,27.239999771118164 133.0800018310547,10.199999809265137 133.0800018310547,10.199999809265137 C139.72000122070312,7.960000038146973 139.63999938964844,-1.399999976158142 133,-3.559999942779541 C133,-3.559999942779541 86.36000061035156,-18.520000457763672 86.36000061035156,-18.520000457763672z"/></g><g opacity="1" transform="matrix(1,0,0,1,209.2899932861328,92.52999877929688)"><path fill="rgb(255,240,118)" fill-opacity="1" d=" M-60.79999923706055,7.400000095367432 C-55.84000015258789,53.31999969482422 -53.279998779296875,66.12000274658203 -16.079999923706055,75.55999755859375 C-16.079999923706055,75.55999755859375 67.36000061035156,90.68000030517578 67.36000061035156,90.68000030517578 C66.55999755859375,89.55999755859375 65.36000061035156,88.68000030517578 63.7599983215332,88.12000274658203 C63.7599983215332,88.12000274658203 17.040000915527344,73.08000183105469 17.040000915527344,73.08000183105469 C-25.68000030517578,58.439998626708984 -36.560001373291016,41.720001220703125 -45.439998626708984,2.759999990463257 C-45.439998626708984,2.759999990463257 -64.63999938964844,-87.63999938964844 -64.63999938964844,-87.63999938964844 C-65.04000091552734,-89.23999786376953 -66.08000183105469,-90.19999694824219 -67.36000061035156,-90.68000030517578 C-67.36000061035156,-90.68000030517578 -60.79999923706055,7.400000095367432 -60.79999923706055,7.400000095367432z"/></g><g opacity="1" transform="matrix(1,0,0,1,208.77000427246094,279.92999267578125)"><path fill="rgb(244,180,0)" fill-opacity="1" d=" M-58.91999816894531,-19.68000030517578 C-58.91999816894531,-63.040000915527344 -35.2400016784668,-84.4000015258789 2.440000057220459,-84.4000015258789 C2.440000057220459,-84.4000015258789 66.83999633789062,-86.80000305175781 66.83999633789062,-86.80000305175781 C66.04000091552734,-85.68000030517578 61.79999923706055,-84.55999755859375 60.279998779296875,-84 C60.279998779296875,-84 17.639999389648438,-69.19999694824219 17.639999389648438,-69.19999694824219 C-18.040000915527344,-59.599998474121094 -33.63999938964844,-48.79999923706055 -43.720001220703125,-4.480000019073486 C-43.720001220703125,-4.480000019073486 -64.12000274658203,83.68000030517578 -64.12000274658203,83.68000030517578 C-64.5199966430664,85.27999877929688 -65.55999755859375,86.31999969482422 -66.83999633789062,86.80000305175781 C-66.83999633789062,86.80000305175781 -58.91999816894531,-19.68000030517578 -58.91999816894531,-19.68000030517578z"/></g></g><g style="display: none;"><g><path/></g><g><path/></g><g><path/></g></g><g style="display: none;"><g><path/></g><g><path/></g><g><path/></g></g></g></svg>