<svg xmlns="http://www.w3.org/2000/svg" viewBox="0 0 14 16" fill="none" aria-hidden="true" width="16" height="16"><path d="M4.33984 6.5769C5.10573 6.02303 6.02044 5.70117 7.00291 5.70117C7.98844 5.70117 8.90584 6.02506 9.67318 6.58211M8.45604 8.36784C8.01864 8.12537 7.52511 7.98897 7.00291 7.98897C6.48331 7.98897 5.99211 8.12404 5.55636 8.36417" stroke="currentColor" stroke-linecap="round"/><path d="M7.00586 10.3672H7.01013" stroke="currentColor" stroke-linecap="round" stroke-linejoin="round"/><path d="M1 7.90625C1 4.85531 1 3.32982 1.92449 2.36328C1.95865 2.32757 1.99359 2.29263 2.02929 2.25848C2.99584 1.33398 4.52133 1.33398 7.57227 1.33398C8.29533 1.33398 8.64367 1.33649 8.9752 1.46022C9.29447 1.57938 9.56193 1.80224 10.0968 2.24798L11.5607 3.46793C12.2685 4.05772 12.6223 4.35262 12.8112 4.75576C13 5.1589 13 5.61954 13 6.54082V8.66732C13 11.1671 13 12.4171 12.3634 13.2933C12.1578 13.5763 11.9089 13.8251 11.6259 14.0307C10.7497 14.6673 9.4998 14.6673 7 14.6673C4.50018 14.6673 3.25027 14.6673 2.37405 14.0307C2.09107 13.8251 1.84221 13.5763 1.63661 13.2933C1 12.4171 1 11.1671 1 8.66732V7.90625Z" stroke="currentColor"/></svg>