<svg xmlns="http://www.w3.org/2000/svg" viewBox="0 0 16 16" fill="none" aria-hidden="true" width="16" height="16"><g><path d="M9.33332 5.33334H6.66666C5.01199 5.33334 4.66666 5.67867 4.66666 7.33334V14.6667H11.3333V7.33334C11.3333 5.67867 10.988 5.33334 9.33332 5.33334Z" stroke="currentColor" stroke-linejoin="round"/><path d="M7.33334 8H8.66668M7.33334 10H8.66668M7.33334 12H8.66668" stroke="currentColor" stroke-linecap="round" stroke-linejoin="round"/><path d="M14 14.6667V5.45709C14 4.63823 14 4.2288 13.8009 3.89977C13.6017 3.57074 13.2431 3.38764 12.5259 3.02144L9.63146 1.54357C8.85786 1.14856 8.66666 1.28777 8.66666 2.15248V5.13566" stroke="currentColor" stroke-linecap="round" stroke-linejoin="round"/><path d="M2 14.6667V8.66667C2 8.11513 2.11511 8 2.66667 8H4.66667" stroke="currentColor" stroke-linecap="round" stroke-linejoin="round"/><path d="M14.6667 14.6667H1.33334" stroke="currentColor" stroke-linecap="round" stroke-linejoin="round"/></g></svg>