<svg xmlns="http://www.w3.org/2000/svg" xmlns:xlink="http://www.w3.org/1999/xlink" viewBox="0 0 1024 1024" width="1024" height="1024" preserveAspectRatio="xMidYMid meet" style="width: 100%; height: 100%; transform: translate3d(0px, 0px, 0px); content-visibility: visible;"><defs><clipPath id="__lottie_element_37"><rect width="1024" height="1024" x="0" y="0"/></clipPath><symbol id="__lottie_element_42"><g><g transform="matrix(1,0,0,1,124.6300048828125,61.990997314453125)" opacity="1" style="display: block;"><g opacity="1" transform="matrix(1,0,0,1,426.3699951171875,399.5690002441406)"><path fill="rgb(102,186,106)" fill-opacity="1" d=" M146.0399932861328,105.0790023803711 C65.63999938964844,225.5590057373047 -1.9600000381469727,358.27899169921875 -155.72000122070312,398.91900634765625 C-157.32000732421875,399.3190002441406 -159,398.8399963378906 -160.1199951171875,397.6400146484375 C-160.1199951171875,397.6400146484375 -411.32000732421875,120.44000244140625 -411.32000732421875,120.44000244140625 C-418.760009765625,112.19999694824219 -415.0799865722656,99.15899658203125 -404.5199890136719,95.72000122070312 C-301.239990234375,61.79999923706055 -236.75999450683594,-19 -179.32000732421875,-105.16000366210938 C-100.12000274658203,-223.7989959716797 -32.279998779296875,-354.3599853515625 116.5999984741211,-397.1610107421875 C122.27999877929688,-399.32000732421875 128.9199981689453,-397.96099853515625 133.24000549316406,-393.2409973144531 C166.60000610351562,-356.4410095214844 418.20001220703125,-116.91999816894531 418.6000061035156,-116.44000244140625 C418.760009765625,-116.35900115966797 207.72000122070312,12.600000381469727 146.0399932861328,105.0790023803711z"/></g><g opacity="1" transform="matrix(1,0,0,1,284.2099914550781,550.448974609375)"><path fill="rgb(255,255,255)" fill-opacity="1" d=" M56.040000915527344,9.239999771118164 C50.599998474121094,3.8010001182556152 44.119998931884766,1.0800000429153442 36.599998474121094,1.159999966621399 C29.079999923706055,1.2400000095367432 19.31999969482422,4.28000020980835 7.239999771118164,10.279999732971191 C-9.15999984741211,19 -23.399999618530273,23.079999923706055 -35.31999969482422,22.68000030517578 C-47.2400016784668,22.200000762939453 -57.959999084472656,17.239999771118164 -67.4000015258789,7.71999979019165 C-77.08000183105469,-1.9600000381469727 -82.19999694824219,-12.760000228881836 -82.68000030517578,-24.600000381469727 C-83.23999786376953,-36.439998626708984 -79.16000366210938,-47.880001068115234 -70.44000244140625,-58.91999816894531 C-70.44000244140625,-58.91999816894531 -85.72000122070312,-74.27999877929688 -85.72000122070312,-74.27999877929688 C-87.95999908447266,-76.5199966430664 -87.95999908447266,-80.1989974975586 -85.72000122070312,-82.5199966430664 C-85.72000122070312,-82.5199966430664 -80.76000213623047,-87.4800033569336 -80.76000213623047,-87.4800033569336 C-78.5199966430664,-89.72000122070312 -74.83999633789062,-89.72000122070312 -72.5199966430664,-87.4800033569336 C-72.5199966430664,-87.4800033569336 -57.15999984741211,-72.03900146484375 -57.15999984741211,-72.03900146484375 C-45.880001068115234,-80.5999984741211 -33.959999084472656,-84.11900329589844 -21.479999542236328,-82.68000030517578 C-10.279999732971191,-81.31999969482422 0.7599999904632568,-75.80000305175781 11.5600004196167,-65.87999725341797 C13.640000343322754,-63.959999084472656 13.640000343322754,-60.599998474121094 11.640000343322754,-58.599998474121094 C11.640000343322754,-58.599998474121094 2.5199999809265137,-49.47999954223633 2.5199999809265137,-49.47999954223633 C0.6000000238418579,-47.560001373291016 -2.5199999809265137,-47.560001373291016 -4.519999980926514,-49.400001525878906 C-11.720000267028809,-55.63999938964844 -19.15999984741211,-59.23899841308594 -26.760000228881836,-60.03900146484375 C-35.63999938964844,-61 -43.47999954223633,-58.11899948120117 -50.20000076293945,-51.400001525878906 C-57.2400016784668,-44.36000061035156 -60.84000015258789,-37.159000396728516 -60.91999816894531,-29.8799991607666 C-61,-22.520000457763672 -57.79999923706055,-15.5600004196167 -51.31999969482422,-9.079000473022461 C-45.31999969482422,-2.999000072479248 -38.52000045776367,-0.19900000095367432 -31,-0.5199999809265137 C-23.479999542236328,-0.8399999737739563 -13.800000190734863,-4.039000034332275 -1.7999999523162842,-10.119000434875488 C10.199999809265137,-16.198999404907227 20.360000610351562,-19.959999084472656 29,-21.479999542236328 C37.560001373291016,-22.999000549316406 45.400001525878906,-22.600000381469727 52.439998626708984,-20.360000610351562 C59.47999954223633,-18.038999557495117 66.12000274658203,-13.800000190734863 72.36000061035156,-7.559999942779541 C82.27999877929688,2.440000057220459 87.31999969482422,13.479999542236328 87.4000015258789,25.559999465942383 C87.4800033569336,37.63999938964844 82.68000030517578,49.63999938964844 72.91999816894531,61.560001373291016 C72.91999816894531,61.560001373291016 85.72000122070312,74.36000061035156 85.72000122070312,74.36000061035156 C87.95999908447266,76.5999984741211 87.95999908447266,80.27999877929688 85.72000122070312,82.5999984741211 C85.72000122070312,82.5999984741211 80.83999633789062,87.4800033569336 80.83999633789062,87.4800033569336 C78.5999984741211,89.72000122070312 74.91999816894531,89.72000122070312 72.5999984741211,87.4800033569336 C72.5999984741211,87.4800033569336 59.79999923706055,74.68000030517578 59.79999923706055,74.68000030517578 C47.79999923706055,84.5999984741211 35.2400016784668,89.31999969482422 22.200000762939453,88.68000030517578 C10.600000381469727,88.12000274658203 -0.5199999809265137,83.16000366210938 -11.079999923706055,73.8010025024414 C-13.239999771118164,71.88099670410156 -13.239999771118164,68.5199966430664 -11.15999984741211,66.5199966430664 C-11.15999984741211,66.5199966430664 -1.8799999952316284,57.31999969482422 -1.8799999952316284,57.31999969482422 C-0.03999999910593033,55.47999954223633 2.9200000762939453,55.31999969482422 4.920000076293945,57 C12.039999961853027,63.15999984741211 19.399999618530273,66.27999877929688 27,66.44000244140625 C35.720001220703125,66.5999984741211 44.040000915527344,62.68000030517578 51.959999084472656,54.76100158691406 C59.720001220703125,47.08000183105469 63.959999084472656,39.08000183105469 64.68000030517578,31 C65.23999786376953,22.92099952697754 62.439998626708984,15.640000343322754 56.040000915527344,9.239999771118164z"/></g><g opacity="1" transform="matrix(1,0,0,1,285.2099914550781,551.8889770507812)"><path fill="rgb(255,255,255)" fill-opacity="1" d=" M75.5199966430664,64.04000091552734 C75.5199966430664,64.04000091552734 58.720001220703125,73.4000015258789 58.720001220703125,73.4000015258789 C58.720001220703125,73.4000015258789 -71.12000274658203,-59.880001068115234 -71.12000274658203,-59.880001068115234 C-71.12000274658203,-59.880001068115234 -75.5199966430664,-64.36000061035156 -75.5199966430664,-64.36000061035156 C-75.5199966430664,-64.36000061035156 -58.15999984741211,-73.4000015258789 -58.15999984741211,-73.4000015258789 C-58.15999984741211,-73.4000015258789 71.68000030517578,60.20000076293945 71.68000030517578,60.20000076293945 C71.68000030517578,60.20000076293945 75.5199966430664,64.04000091552734 75.5199966430664,64.04000091552734z"/></g><g opacity="1" transform="matrix(1,0,0,1,482.4100036621094,302.40899658203125)"><path fill="rgb(45,124,49)" fill-opacity="0.5" d=" M0,-115.36000061035156 C63.71099853515625,-115.36000061035156 115.36000061035156,-63.71200180053711 115.36000061035156,0 C115.36000061035156,63.71099853515625 63.71099853515625,115.36000061035156 0,115.36000061035156 C-63.71200180053711,115.36000061035156 -115.36000061035156,63.71099853515625 -115.36000061035156,0 C-115.36000061035156,-63.71200180053711 -63.71200180053711,-115.36000061035156 0,-115.36000061035156z"/></g><g opacity="1" transform="matrix(1,0,0,1,427.3699951171875,590.968994140625)"><path fill="rgb(45,124,49)" fill-opacity="1" d=" M185.27999877929688,-25.600000381469727 C144.0800018310547,36.15999984741211 84.72000122070312,154 2.9600000381469727,218.7989959716797 C-72.08000183105469,278.32000732421875 -166.72000122070312,307.6789855957031 -166.72000122070312,307.6789855957031 C-166.72000122070312,307.6789855957031 -427.1199951171875,2.7190001010894775 -427.1199951171875,2.7190001010894775 C-427.1199951171875,2.7190001010894775 -416.32000732421875,-80.95999908447266 -416.32000732421875,-80.95999908447266 C-416.32000732421875,-80.95999908447266 -160.9600067138672,206.32000732421875 -160.9600067138672,206.32000732421875 C-159.9199981689453,207.44000244140625 -158.32000732421875,208 -156.8000030517578,207.5989990234375 C-2.9600000381469727,166.9600067138672 64.63999938964844,34.2400016784668 145.0399932861328,-86.24099731445312 C206.72000122070312,-178.72000122070312 298.9599914550781,-277.2799987792969 417.67999267578125,-307.67999267578125 C427.1199951171875,-297.2799987792969 422.9599914550781,-210.0800018310547 412.6400146484375,-206.63999938964844 C307.44000244140625,-171.75999450683594 242.8800048828125,-112.08000183105469 185.27999877929688,-25.600000381469727z"/></g><g opacity="1" transform="matrix(1,0,0,1,561.010009765625,588.2899780273438)"><path fill="rgb(255,192,108)" fill-opacity="1" d=" M-54.84000015258789,17.8799991607666 C-54.84000015258789,17.8799991607666 -30.68000030517578,107.08000183105469 -30.68000030517578,107.08000183105469 C-30.68000030517578,107.08000183105469 42.91999816894531,-0.6000000238418579 54.84000015258789,-26.680999755859375 C54.84000015258789,-26.680999755859375 28.1200008392334,-107.08000183105469 28.1200008392334,-107.08000183105469 C-7.559999942779541,-62.680999755859375 -54.84000015258789,17.8799991607666 -54.84000015258789,17.8799991607666z"/></g><g opacity="1" transform="matrix(1,0,0,1,418.7699890136719,397.6889953613281)"><path fill="rgb(45,124,49)" fill-opacity="1" d=" M-543.4000244140625,-459.67999267578125 C-543.4000244140625,-459.67999267578125 480.6000061035156,-459.67999267578125 480.6000061035156,-459.67999267578125 C480.6000061035156,-459.67999267578125 480.6000061035156,564.3200073242188 480.6000061035156,564.3200073242188 C480.6000061035156,564.3200073242188 -543.4000244140625,564.3200073242188 -543.4000244140625,564.3200073242188 C-543.4000244140625,564.3200073242188 -543.4000244140625,-459.67999267578125 -543.4000244140625,-459.67999267578125z M-543.4000244140625,564.3200073242188 C-543.4000244140625,564.3200073242188 480.6000061035156,564.3200073242188 480.6000061035156,564.3200073242188 C480.6000061035156,564.3200073242188 480.6000061035156,-459.67999267578125 480.6000061035156,-459.67999267578125 C480.6000061035156,-459.67999267578125 -543.4000244140625,-459.67999267578125 -543.4000244140625,-459.67999267578125 C-543.4000244140625,-459.67999267578125 -543.4000244140625,564.3200073242188 -543.4000244140625,564.3200073242188z M81.16000366210938,-323.6000061035156 C87.31999969482422,-314.7200012207031 98.12000274658203,-305.5199890136719 115.4800033569336,-300.1600036621094 C121.63999938964844,-298.239990234375 128.1199951171875,-297.2799987792969 134.60000610351562,-297.2799987792969 C148.36000061035156,-297.2799987792969 159.8800048828125,-301.5199890136719 167.63999938964844,-305.44000244140625 C187.0800018310547,-285.9200134277344 211.39999389648438,-262.1600036621094 234.9199981689453,-239.1199951171875 C257.9599914550781,-216.55999755859375 281.6400146484375,-193.36000061035156 300.9200134277344,-174.0800018310547 C294.67999267578125,-164.55999755859375 289.7200012207031,-150.16000366210938 291.79998779296875,-130.72000122070312 C292.760009765625,-121.76000213623047 299.0799865722656,-112.63999938964844 305.79998779296875,-105.19999694824219 C263.239990234375,-77.83999633789062 181.55999755859375,-17.040000915527344 97.80000305175781,90.16000366210938 C80.12000274658203,112.8010025024414 62.84000015258789,137.9199981689453 46.20000076293945,162.16000366210938 C4.760000228881836,222.47999572753906 -38.040000915527344,284.72100830078125 -95,322.8009948730469 C-101.72000122070312,311.8399963378906 -114.12000274658203,298.55999755859375 -136.27999877929688,293.0400085449219 C-141.63999938964844,291.67999267578125 -146.9199981689453,291.0400085449219 -151.9600067138672,291.0400085449219 C-166.1999969482422,291.0400085449219 -177.39999389648438,296.32000732421875 -185.39999389648438,302.55999755859375 C-185.39999389648438,302.55999755859375 -306.20001220703125,163.67999267578125 -306.20001220703125,163.67999267578125 C-296.0400085449219,155.76100158691406 -286.5199890136719,142.24000549316406 -285.55999755859375,121.36000061035156 C-285.0799865722656,111.5999984741211 -290.2799987792969,102.72100067138672 -296.20001220703125,96 C-237.32000732421875,52.400001525878906 -175.16000366210938,-17.1200008392334 -141.72000122070312,-67.04000091552734 C-136.83999633789062,-74.31999969482422 -131.8000030517578,-81.91999816894531 -126.5999984741211,-89.76000213623047 C-74.27999877929688,-168.72000122070312 -3.4000000953674316,-275.2799987792969 81.16000366210938,-323.6000061035156z M87.4800033569336,-342.32000732421875 C-14.279999732971191,-291.9200134277344 -95.31999969482422,-160.63999938964844 -153,-74.72000122070312 C-190.75999450683594,-18.479999542236328 -259,54.880001068115234 -317.79998779296875,94.4800033569336 C-317.79998779296875,94.4800033569336 -298.5199890136719,108.16000366210938 -299.1600036621094,120.55999755859375 C-300.760009765625,153.83999633789062 -327.79998779296875,159.44000244140625 -327.79998779296875,159.44000244140625 C-327.79998779296875,159.44000244140625 -185.8000030517578,322.6400146484375 -185.8000030517578,322.6400146484375 C-185.8000030517578,322.6400146484375 -175.39999389648438,304.3999938964844 -152.0399932861328,304.3999938964844 C-148.27999877929688,304.3999938964844 -144.1199951171875,304.8800048828125 -139.63999938964844,306 C-107.4800033569336,314 -101,342.32000732421875 -101,342.32000732421875 C-10.279999732971191,289.5199890136719 44.52000045776367,180.16000366210938 108.36000061035156,98.31999969482422 C195,-12.640000343322754 281.1600036621094,-75.5199966430664 327.79998779296875,-103.12000274658203 C327.79998779296875,-103.12000274658203 306.3599853515625,-120.4800033569336 305.1600036621094,-132.32000732421875 C301.8800048828125,-163.44000244140625 319.4800109863281,-174.63999938964844 319.4800109863281,-174.63999938964844 C278.2799987792969,-216.32000732421875 210.60000610351562,-281.20001220703125 169.63999938964844,-322.7200012207031 C169.63999938964844,-322.7200012207031 154.75999450683594,-311.0400085449219 134.52000427246094,-311.0400085449219 C129.72000122070312,-311.0400085449219 124.5999984741211,-311.67999267578125 119.4000015258789,-313.2799987792969 C89.95999908447266,-322.1600036621094 87.4800033569336,-342.32000732421875 87.4800033569336,-342.32000732421875z"/><g opacity="1" transform="matrix(1,0,0,1,0,0)"/></g><g opacity="1" transform="matrix(1,0,0,1,408.57000732421875,405.3699951171875)"><path fill="rgb(255,235,179)" fill-opacity="1" d=" M-102.63999938964844,-200.8000030517578 C-102.63999938964844,-200.8000030517578 -180.47999572753906,-83.12000274658203 -180.47999572753906,-83.12000274658203 C-180.47999572753906,-83.12000274658203 97.5999984741211,200.8000030517578 97.5999984741211,200.8000030517578 C97.5999984741211,200.8000030517578 143.0399932861328,128.9600067138672 180.47999572753906,75.83999633789062 C180.47999572753906,75.83999633789062 -102.63999938964844,-200.8000030517578 -102.63999938964844,-200.8000030517578z"/></g><g opacity="1" transform="matrix(1,0,0,1,138.25,703.72900390625)"><path fill="rgb(31,95,33)" fill-opacity="1" d=" M-138,-110.12000274658203 C-138,-110.12000274658203 121.44000244140625,193.8000030517578 121.44000244140625,193.8000030517578 C121.44000244140625,193.8000030517578 133.0399932861328,176.6009979248047 135.67999267578125,149.8000030517578 C138,126.44100189208984 129.83999633789062,95.4010009765625 129.83999633789062,95.4010009765625 C129.83999633789062,95.4010009765625 -127.19999694824219,-193.8000030517578 -127.19999694824219,-193.8000030517578 C-127.19999694824219,-193.8000030517578 -138,-110.12000274658203 -138,-110.12000274658203z"/></g></g></g></symbol><mask id="__lottie_element_42_1" mask-type="alpha"><use xmlns:ns1="http://www.w3.org/1999/xlink" ns1:href="#__lottie_element_42"/></mask></defs><g clip-path="url(#__lottie_element_37)"><g transform="matrix(1,0,0,1,-5.69000244140625,66.07000732421875)" opacity="1" style="display: block;"><g opacity="1" transform="matrix(1,0,0,1,234.00999450683594,171.92999267578125)"><path fill="rgb(223,223,223)" fill-opacity="1" d=" M223.52000427246094,49.36000061035156 C228.32000732421875,27.84000015258789 224.63999938964844,38.08000183105469 193.67999267578125,-7.199999809265137 C165.83999633789062,-47.84000015258789 171.60000610351562,-105.5999984741211 138.63999938964844,-134.32000732421875 C118.4000015258789,-151.9199981689453 93.04000091552734,-171.67999267578125 -1.440000057220459,-124.16000366210938 C-34.2400016784668,-107.68000030517578 -99.76000213623047,-53.36000061035156 -174,-28.479999542236328 C-233.75999450683594,-8.479999542236328 -200.63999938964844,15.680000305175781 -187.9199981689453,20.15999984741211 C-142.63999938964844,36.08000183105469 -82.72000122070312,1.6799999475479126 -82.72000122070312,1.6799999475479126 C-82.72000122070312,1.6799999475479126 -168.63999938964844,57.84000015258789 -118.16000366210938,71.12000274658203 C-77.19999694824219,81.91999816894531 -25.600000381469727,32.720001220703125 -25.600000381469727,32.720001220703125 C-25.600000381469727,32.720001220703125 -76.16000366210938,86.31999969482422 -34.79999923706055,100.08000183105469 C-6.400000095367432,109.5199966430664 50,55.599998474121094 50,55.599998474121094 C50,55.599998474121094 10.5600004196167,110.4000015258789 29.600000381469727,122 C58.560001373291016,139.60000610351562 106,94.23999786376953 106,94.23999786376953 C106,94.23999786376953 68.31999969482422,149.27999877929688 88,158.24000549316406 C117.44000244140625,171.67999267578125 161.1199951171875,133.9199981689453 161.1199951171875,133.9199981689453 C161.1199951171875,133.9199981689453 214.8800048828125,87.83999633789062 223.52000427246094,49.36000061035156z"/></g><g opacity="1" transform="matrix(1,0,0,1,264.80999755859375,123.44999694824219)"><path fill="rgb(188,188,188)" fill-opacity="1" d=" M26.31999969482422,-79.44000244140625 C26.31999969482422,-79.44000244140625 -25.200000762939453,-49.20000076293945 -44,-24.8799991607666 C-46.47999954223633,-21.68000030517578 -61.91999816894531,-6.239999771118164 -48.31999969482422,2.640000104904175 C-44.880001068115234,4.880000114440918 -34.63999938964844,3.440000057220459 -28.559999465942383,-0.23999999463558197 C-0.8799999952316284,-17.040000915527344 48.08000183105469,-56.880001068115234 53.439998626708984,-54.79999923706055 C58.79999923706055,-52.720001220703125 9.680000305175781,-20.399999618530273 -6.159999847412109,18.719999313354492 C-12.079999923706055,33.439998626708984 -0.5600000023841858,44 29.440000534057617,26.31999969482422 C62.08000183105469,7.119999885559082 90.16000366210938,-26.719999313354492 94.87999725341797,-26.559999465942383 C94.87999725341797,-26.559999465942383 81.76000213623047,-3.680000066757202 64.95999908447266,14.399999618530273 C47.84000015258789,32.880001068115234 35.7599983215332,51.68000030517578 48.400001525878906,57.599998474121094 C64.31999969482422,65.12000274658203 98.72000122070312,44.720001220703125 98.72000122070312,44.720001220703125 C98.72000122070312,44.720001220703125 76.80000305175781,71.27999877929688 48.400001525878906,77.27999877929688 C38.400001525878906,79.44000244140625 30.559999465942383,78.08000183105469 25.760000228881836,72.63999938964844 C18.479999542236328,64.31999969482422 21.280000686645508,51.52000045776367 21.280000686645508,51.52000045776367 C6.159999847412109,57.52000045776367 -19.920000076293945,67.27999877929688 -35.439998626708984,54.15999984741211 C-47.52000045776367,43.91999816894531 -31.040000915527344,13.920000076293945 -31.040000915527344,13.920000076293945 C-31.040000915527344,13.920000076293945 -60.2400016784668,30.079999923706055 -76.87999725341797,25.200000762939453 C-85.5199966430664,22.639999389648438 -98.72000122070312,10.15999984741211 -79.44000244140625,-16.31999969482422 C-49.040000915527344,-57.68000030517578 26.31999969482422,-79.44000244140625 26.31999969482422,-79.44000244140625z"/></g><g opacity="1" transform="matrix(1,0,0,1,397.45001220703125,253.72999572753906)"><path fill="rgb(188,188,188)" fill-opacity="1" d=" M-44.720001220703125,81.23999786376953 C-11.359999656677246,37.880001068115234 22,-5.400000095367432 55.36000061035156,-48.7599983215332 C55.36000061035156,-48.7599983215332 52.47999954223633,-61.2400016784668 52.47999954223633,-61.2400016784668 C51.040000915527344,-65.63999938964844 37.91999816894531,-66.19999694824219 19.760000228881836,-55.720001220703125 C7.599999904632568,-48.68000030517578 -14.720000267028809,-23.399999618530273 -29.040000915527344,-37.31999969482422 C-38.959999084472656,-46.91999816894531 -10.479999542236328,-81.23999786376953 -10.479999542236328,-81.23999786376953 C-14.399999618530273,-81.16000366210938 -46,-60.040000915527344 -51.040000915527344,-38.84000015258789 C-55.36000061035156,-20.84000015258789 -51.20000076293945,0.2800000011920929 -10.5600004196167,-20.280000686645508 C-9.359999656677246,-20.920000076293945 -8.079999923706055,-21.639999389648438 -6.880000114440918,-22.360000610351562 C-12,-14.279999732971191 -16.639999389648438,-5.800000190734863 -20.559999465942383,2.8399999141693115 C-31.920000076293945,27.799999237060547 -38.63999938964844,54.52000045776367 -44.720001220703125,81.23999786376953z"/></g></g><g transform="matrix(1,0,0,1,124.6300048828125,61.990997314453125)" opacity="1" style="display: block;"><g opacity="1" transform="matrix(1,0,0,1,426.3699951171875,399.5690002441406)"><path fill="rgb(102,186,106)" fill-opacity="1" d=" M146.0399932861328,105.0790023803711 C65.63999938964844,225.5590057373047 -1.9600000381469727,358.27899169921875 -155.72000122070312,398.91900634765625 C-157.32000732421875,399.3190002441406 -159,398.8399963378906 -160.1199951171875,397.6400146484375 C-160.1199951171875,397.6400146484375 -411.32000732421875,120.44000244140625 -411.32000732421875,120.44000244140625 C-418.760009765625,112.19999694824219 -415.0799865722656,99.15899658203125 -404.5199890136719,95.72000122070312 C-301.239990234375,61.79999923706055 -236.75999450683594,-19 -179.32000732421875,-105.16000366210938 C-100.12000274658203,-223.7989959716797 -32.279998779296875,-354.3599853515625 116.5999984741211,-397.1610107421875 C122.27999877929688,-399.32000732421875 128.9199981689453,-397.96099853515625 133.24000549316406,-393.2409973144531 C166.60000610351562,-356.4410095214844 418.20001220703125,-116.91999816894531 418.6000061035156,-116.44000244140625 C418.760009765625,-116.35900115966797 207.72000122070312,12.600000381469727 146.0399932861328,105.0790023803711z"/></g><g opacity="1" transform="matrix(1,0,0,1,284.2099914550781,550.448974609375)"><path fill="rgb(255,255,255)" fill-opacity="1" d=" M56.040000915527344,9.239999771118164 C50.599998474121094,3.8010001182556152 44.119998931884766,1.0800000429153442 36.599998474121094,1.159999966621399 C29.079999923706055,1.2400000095367432 19.31999969482422,4.28000020980835 7.239999771118164,10.279999732971191 C-9.15999984741211,19 -23.399999618530273,23.079999923706055 -35.31999969482422,22.68000030517578 C-47.2400016784668,22.200000762939453 -57.959999084472656,17.239999771118164 -67.4000015258789,7.71999979019165 C-77.08000183105469,-1.9600000381469727 -82.19999694824219,-12.760000228881836 -82.68000030517578,-24.600000381469727 C-83.23999786376953,-36.439998626708984 -79.16000366210938,-47.880001068115234 -70.44000244140625,-58.91999816894531 C-70.44000244140625,-58.91999816894531 -85.72000122070312,-74.27999877929688 -85.72000122070312,-74.27999877929688 C-87.95999908447266,-76.5199966430664 -87.95999908447266,-80.1989974975586 -85.72000122070312,-82.5199966430664 C-85.72000122070312,-82.5199966430664 -80.76000213623047,-87.4800033569336 -80.76000213623047,-87.4800033569336 C-78.5199966430664,-89.72000122070312 -74.83999633789062,-89.72000122070312 -72.5199966430664,-87.4800033569336 C-72.5199966430664,-87.4800033569336 -57.15999984741211,-72.03900146484375 -57.15999984741211,-72.03900146484375 C-45.880001068115234,-80.5999984741211 -33.959999084472656,-84.11900329589844 -21.479999542236328,-82.68000030517578 C-10.279999732971191,-81.31999969482422 0.7599999904632568,-75.80000305175781 11.5600004196167,-65.87999725341797 C13.640000343322754,-63.959999084472656 13.640000343322754,-60.599998474121094 11.640000343322754,-58.599998474121094 C11.640000343322754,-58.599998474121094 2.5199999809265137,-49.47999954223633 2.5199999809265137,-49.47999954223633 C0.6000000238418579,-47.560001373291016 -2.5199999809265137,-47.560001373291016 -4.519999980926514,-49.400001525878906 C-11.720000267028809,-55.63999938964844 -19.15999984741211,-59.23899841308594 -26.760000228881836,-60.03900146484375 C-35.63999938964844,-61 -43.47999954223633,-58.11899948120117 -50.20000076293945,-51.400001525878906 C-57.2400016784668,-44.36000061035156 -60.84000015258789,-37.159000396728516 -60.91999816894531,-29.8799991607666 C-61,-22.520000457763672 -57.79999923706055,-15.5600004196167 -51.31999969482422,-9.079000473022461 C-45.31999969482422,-2.999000072479248 -38.52000045776367,-0.19900000095367432 -31,-0.5199999809265137 C-23.479999542236328,-0.8399999737739563 -13.800000190734863,-4.039000034332275 -1.7999999523162842,-10.119000434875488 C10.199999809265137,-16.198999404907227 20.360000610351562,-19.959999084472656 29,-21.479999542236328 C37.560001373291016,-22.999000549316406 45.400001525878906,-22.600000381469727 52.439998626708984,-20.360000610351562 C59.47999954223633,-18.038999557495117 66.12000274658203,-13.800000190734863 72.36000061035156,-7.559999942779541 C82.27999877929688,2.440000057220459 87.31999969482422,13.479999542236328 87.4000015258789,25.559999465942383 C87.4800033569336,37.63999938964844 82.68000030517578,49.63999938964844 72.91999816894531,61.560001373291016 C72.91999816894531,61.560001373291016 85.72000122070312,74.36000061035156 85.72000122070312,74.36000061035156 C87.95999908447266,76.5999984741211 87.95999908447266,80.27999877929688 85.72000122070312,82.5999984741211 C85.72000122070312,82.5999984741211 80.83999633789062,87.4800033569336 80.83999633789062,87.4800033569336 C78.5999984741211,89.72000122070312 74.91999816894531,89.72000122070312 72.5999984741211,87.4800033569336 C72.5999984741211,87.4800033569336 59.79999923706055,74.68000030517578 59.79999923706055,74.68000030517578 C47.79999923706055,84.5999984741211 35.2400016784668,89.31999969482422 22.200000762939453,88.68000030517578 C10.600000381469727,88.12000274658203 -0.5199999809265137,83.16000366210938 -11.079999923706055,73.8010025024414 C-13.239999771118164,71.88099670410156 -13.239999771118164,68.5199966430664 -11.15999984741211,66.5199966430664 C-11.15999984741211,66.5199966430664 -1.8799999952316284,57.31999969482422 -1.8799999952316284,57.31999969482422 C-0.03999999910593033,55.47999954223633 2.9200000762939453,55.31999969482422 4.920000076293945,57 C12.039999961853027,63.15999984741211 19.399999618530273,66.27999877929688 27,66.44000244140625 C35.720001220703125,66.5999984741211 44.040000915527344,62.68000030517578 51.959999084472656,54.76100158691406 C59.720001220703125,47.08000183105469 63.959999084472656,39.08000183105469 64.68000030517578,31 C65.23999786376953,22.92099952697754 62.439998626708984,15.640000343322754 56.040000915527344,9.239999771118164z"/></g><g opacity="1" transform="matrix(1,0,0,1,285.2099914550781,551.8889770507812)"><path fill="rgb(255,255,255)" fill-opacity="1" d=" M75.5199966430664,64.04000091552734 C75.5199966430664,64.04000091552734 58.720001220703125,73.4000015258789 58.720001220703125,73.4000015258789 C58.720001220703125,73.4000015258789 -71.12000274658203,-59.880001068115234 -71.12000274658203,-59.880001068115234 C-71.12000274658203,-59.880001068115234 -75.5199966430664,-64.36000061035156 -75.5199966430664,-64.36000061035156 C-75.5199966430664,-64.36000061035156 -58.15999984741211,-73.4000015258789 -58.15999984741211,-73.4000015258789 C-58.15999984741211,-73.4000015258789 71.68000030517578,60.20000076293945 71.68000030517578,60.20000076293945 C71.68000030517578,60.20000076293945 75.5199966430664,64.04000091552734 75.5199966430664,64.04000091552734z"/></g><g opacity="1" transform="matrix(1,0,0,1,482.4100036621094,302.40899658203125)"><path fill="rgb(45,124,49)" fill-opacity="0.5" d=" M0,-115.36000061035156 C63.71099853515625,-115.36000061035156 115.36000061035156,-63.71200180053711 115.36000061035156,0 C115.36000061035156,63.71099853515625 63.71099853515625,115.36000061035156 0,115.36000061035156 C-63.71200180053711,115.36000061035156 -115.36000061035156,63.71099853515625 -115.36000061035156,0 C-115.36000061035156,-63.71200180053711 -63.71200180053711,-115.36000061035156 0,-115.36000061035156z"/></g><g opacity="1" transform="matrix(1,0,0,1,427.3699951171875,590.968994140625)"><path fill="rgb(45,124,49)" fill-opacity="1" d=" M185.27999877929688,-25.600000381469727 C144.0800018310547,36.15999984741211 84.72000122070312,154 2.9600000381469727,218.7989959716797 C-72.08000183105469,278.32000732421875 -166.72000122070312,307.6789855957031 -166.72000122070312,307.6789855957031 C-166.72000122070312,307.6789855957031 -427.1199951171875,2.7190001010894775 -427.1199951171875,2.7190001010894775 C-427.1199951171875,2.7190001010894775 -416.32000732421875,-80.95999908447266 -416.32000732421875,-80.95999908447266 C-416.32000732421875,-80.95999908447266 -160.9600067138672,206.32000732421875 -160.9600067138672,206.32000732421875 C-159.9199981689453,207.44000244140625 -158.32000732421875,208 -156.8000030517578,207.5989990234375 C-2.9600000381469727,166.9600067138672 64.63999938964844,34.2400016784668 145.0399932861328,-86.24099731445312 C206.72000122070312,-178.72000122070312 298.9599914550781,-277.2799987792969 417.67999267578125,-307.67999267578125 C427.1199951171875,-297.2799987792969 422.9599914550781,-210.0800018310547 412.6400146484375,-206.63999938964844 C307.44000244140625,-171.75999450683594 242.8800048828125,-112.08000183105469 185.27999877929688,-25.600000381469727z"/></g><g opacity="1" transform="matrix(1,0,0,1,561.010009765625,588.2899780273438)"><path fill="rgb(255,192,108)" fill-opacity="1" d=" M-54.84000015258789,17.8799991607666 C-54.84000015258789,17.8799991607666 -30.68000030517578,107.08000183105469 -30.68000030517578,107.08000183105469 C-30.68000030517578,107.08000183105469 42.91999816894531,-0.6000000238418579 54.84000015258789,-26.680999755859375 C54.84000015258789,-26.680999755859375 28.1200008392334,-107.08000183105469 28.1200008392334,-107.08000183105469 C-7.559999942779541,-62.680999755859375 -54.84000015258789,17.8799991607666 -54.84000015258789,17.8799991607666z"/></g><g opacity="1" transform="matrix(1,0,0,1,418.7699890136719,397.6889953613281)"><path fill="rgb(45,124,49)" fill-opacity="1" d=" M-543.4000244140625,-459.67999267578125 C-543.4000244140625,-459.67999267578125 480.6000061035156,-459.67999267578125 480.6000061035156,-459.67999267578125 C480.6000061035156,-459.67999267578125 480.6000061035156,564.3200073242188 480.6000061035156,564.3200073242188 C480.6000061035156,564.3200073242188 -543.4000244140625,564.3200073242188 -543.4000244140625,564.3200073242188 C-543.4000244140625,564.3200073242188 -543.4000244140625,-459.67999267578125 -543.4000244140625,-459.67999267578125z M-543.4000244140625,564.3200073242188 C-543.4000244140625,564.3200073242188 480.6000061035156,564.3200073242188 480.6000061035156,564.3200073242188 C480.6000061035156,564.3200073242188 480.6000061035156,-459.67999267578125 480.6000061035156,-459.67999267578125 C480.6000061035156,-459.67999267578125 -543.4000244140625,-459.67999267578125 -543.4000244140625,-459.67999267578125 C-543.4000244140625,-459.67999267578125 -543.4000244140625,564.3200073242188 -543.4000244140625,564.3200073242188z M81.16000366210938,-323.6000061035156 C87.31999969482422,-314.7200012207031 98.12000274658203,-305.5199890136719 115.4800033569336,-300.1600036621094 C121.63999938964844,-298.239990234375 128.1199951171875,-297.2799987792969 134.60000610351562,-297.2799987792969 C148.36000061035156,-297.2799987792969 159.8800048828125,-301.5199890136719 167.63999938964844,-305.44000244140625 C187.0800018310547,-285.9200134277344 211.39999389648438,-262.1600036621094 234.9199981689453,-239.1199951171875 C257.9599914550781,-216.55999755859375 281.6400146484375,-193.36000061035156 300.9200134277344,-174.0800018310547 C294.67999267578125,-164.55999755859375 289.7200012207031,-150.16000366210938 291.79998779296875,-130.72000122070312 C292.760009765625,-121.76000213623047 299.0799865722656,-112.63999938964844 305.79998779296875,-105.19999694824219 C263.239990234375,-77.83999633789062 181.55999755859375,-17.040000915527344 97.80000305175781,90.16000366210938 C80.12000274658203,112.8010025024414 62.84000015258789,137.9199981689453 46.20000076293945,162.16000366210938 C4.760000228881836,222.47999572753906 -38.040000915527344,284.72100830078125 -95,322.8009948730469 C-101.72000122070312,311.8399963378906 -114.12000274658203,298.55999755859375 -136.27999877929688,293.0400085449219 C-141.63999938964844,291.67999267578125 -146.9199981689453,291.0400085449219 -151.9600067138672,291.0400085449219 C-166.1999969482422,291.0400085449219 -177.39999389648438,296.32000732421875 -185.39999389648438,302.55999755859375 C-185.39999389648438,302.55999755859375 -306.20001220703125,163.67999267578125 -306.20001220703125,163.67999267578125 C-296.0400085449219,155.76100158691406 -286.5199890136719,142.24000549316406 -285.55999755859375,121.36000061035156 C-285.0799865722656,111.5999984741211 -290.2799987792969,102.72100067138672 -296.20001220703125,96 C-237.32000732421875,52.400001525878906 -175.16000366210938,-17.1200008392334 -141.72000122070312,-67.04000091552734 C-136.83999633789062,-74.31999969482422 -131.8000030517578,-81.91999816894531 -126.5999984741211,-89.76000213623047 C-74.27999877929688,-168.72000122070312 -3.4000000953674316,-275.2799987792969 81.16000366210938,-323.6000061035156z M87.4800033569336,-342.32000732421875 C-14.279999732971191,-291.9200134277344 -95.31999969482422,-160.63999938964844 -153,-74.72000122070312 C-190.75999450683594,-18.479999542236328 -259,54.880001068115234 -317.79998779296875,94.4800033569336 C-317.79998779296875,94.4800033569336 -298.5199890136719,108.16000366210938 -299.1600036621094,120.55999755859375 C-300.760009765625,153.83999633789062 -327.79998779296875,159.44000244140625 -327.79998779296875,159.44000244140625 C-327.79998779296875,159.44000244140625 -185.8000030517578,322.6400146484375 -185.8000030517578,322.6400146484375 C-185.8000030517578,322.6400146484375 -175.39999389648438,304.3999938964844 -152.0399932861328,304.3999938964844 C-148.27999877929688,304.3999938964844 -144.1199951171875,304.8800048828125 -139.63999938964844,306 C-107.4800033569336,314 -101,342.32000732421875 -101,342.32000732421875 C-10.279999732971191,289.5199890136719 44.52000045776367,180.16000366210938 108.36000061035156,98.31999969482422 C195,-12.640000343322754 281.1600036621094,-75.5199966430664 327.79998779296875,-103.12000274658203 C327.79998779296875,-103.12000274658203 306.3599853515625,-120.4800033569336 305.1600036621094,-132.32000732421875 C301.8800048828125,-163.44000244140625 319.4800109863281,-174.63999938964844 319.4800109863281,-174.63999938964844 C278.2799987792969,-216.32000732421875 210.60000610351562,-281.20001220703125 169.63999938964844,-322.7200012207031 C169.63999938964844,-322.7200012207031 154.75999450683594,-311.0400085449219 134.52000427246094,-311.0400085449219 C129.72000122070312,-311.0400085449219 124.5999984741211,-311.67999267578125 119.4000015258789,-313.2799987792969 C89.95999908447266,-322.1600036621094 87.4800033569336,-342.32000732421875 87.4800033569336,-342.32000732421875z"/><g opacity="1" transform="matrix(1,0,0,1,0,0)"/></g><g opacity="1" transform="matrix(1,0,0,1,408.57000732421875,405.3699951171875)"><path fill="rgb(255,235,179)" fill-opacity="1" d=" M-102.63999938964844,-200.8000030517578 C-102.63999938964844,-200.8000030517578 -180.47999572753906,-83.12000274658203 -180.47999572753906,-83.12000274658203 C-180.47999572753906,-83.12000274658203 97.5999984741211,200.8000030517578 97.5999984741211,200.8000030517578 C97.5999984741211,200.8000030517578 143.0399932861328,128.9600067138672 180.47999572753906,75.83999633789062 C180.47999572753906,75.83999633789062 -102.63999938964844,-200.8000030517578 -102.63999938964844,-200.8000030517578z"/></g><g opacity="1" transform="matrix(1,0,0,1,138.25,703.72900390625)"><path fill="rgb(31,95,33)" fill-opacity="1" d=" M-138,-110.12000274658203 C-138,-110.12000274658203 121.44000244140625,193.8000030517578 121.44000244140625,193.8000030517578 C121.44000244140625,193.8000030517578 133.0399932861328,176.6009979248047 135.67999267578125,149.8000030517578 C138,126.44100189208984 129.83999633789062,95.4010009765625 129.83999633789062,95.4010009765625 C129.83999633789062,95.4010009765625 -127.19999694824219,-193.8000030517578 -127.19999694824219,-193.8000030517578 C-127.19999694824219,-193.8000030517578 -138,-110.12000274658203 -138,-110.12000274658203z"/></g></g><g mask="url(#__lottie_element_42_1)" style="display: block;"><g transform="matrix(1,0,0,1,653.3309936523438,576.9600219726562)" opacity="0.68"><g opacity="1" transform="matrix(1,0,0,1,55.952999114990234,114.13899993896484)"><path fill="rgb(213,145,54)" fill-opacity="1" d=" M15.675999641418457,-114.13999938964844 C15.675999641418457,-114.13999938964844 -39.20399856567383,-86.22000122070312 -54.16400146484375,-1.100000023841858 C-59.84400177001953,31.059999465942383 -50.183998107910156,114.13999938964844 -50.183998107910156,114.13999938964844 C-50.183998107910156,114.13999938964844 55.95399856567383,15.23900032043457 55.95399856567383,15.23900032043457 C55.95399856567383,15.23900032043457 23.43600082397461,-100.29900360107422 23.43600082397461,-100.29900360107422 C23.43600082397461,-100.29900360107422 15.675999641418457,-114.13999938964844 15.675999641418457,-114.13999938964844z"/></g></g></g><g transform="matrix(1,0,0,1,662.9500122070312,546.469970703125)" opacity="1" style="display: block;"><g opacity="1" transform="matrix(1,0,0,1,168.25,198.57000732421875)"><path fill="rgb(223,223,223)" fill-opacity="1" d=" M-122,-149.60000610351562 C-106.08000183105469,-164.8800048828125 -100.80000305175781,-169.5989990234375 -51.040000915527344,-173.1999969482422 C-1.9199999570846558,-176.7989959716797 20.639999389648438,-198.32000732421875 82.72000122070312,-185.44000244140625 C108.95999908447266,-179.99899291992188 150.55999755859375,-155.99899291992188 140,-60.31999969482422 C136,-23.839000701904297 136.9600067138672,60.47999954223633 154.16000366210938,136.8800048828125 C168,198.3209991455078 130.16000366210938,182.55999755859375 119.76000213623047,174.00100708007812 C82.63999938964844,143.52000427246094 81.04000091552734,74.4800033569336 81.04000091552734,74.4800033569336 C81.04000091552734,74.4800033569336 77.5199966430664,177.04100036621094 40,140.8000030517578 C9.600000381469727,111.36100006103516 24.8799991607666,41.75899887084961 24.8799991607666,41.75899887084961 C24.8799991607666,41.75899887084961 5.199999809265137,112.80000305175781 -28,84.4800033569336 C-50.79999923706055,65.04100036621094 -33.84000015258789,-11.119999885559082 -33.84000015258789,-11.119999885559082 C-33.84000015258789,-11.119999885559082 -60.31999969482422,51.040000915527344 -80,40.71900177001953 C-110.08000183105469,25.040000915527344 -95.83999633789062,-39.040000915527344 -95.83999633789062,-39.040000915527344 C-95.83999633789062,-39.040000915527344 -123.36000061035156,21.68000030517578 -141.27999877929688,9.440999984741211 C-168,-8.798999786376953 -158.32000732421875,-65.67900085449219 -158.32000732421875,-65.67900085449219 C-158.32000732421875,-65.67900085449219 -150.47999572753906,-122.32099914550781 -122,-149.60000610351562z"/></g><g opacity="1" transform="matrix(1,0,0,1,215.3699951171875,150.41099548339844)"><path fill="rgb(188,188,188)" fill-opacity="1" d=" M68.4000015258789,-62.63999938964844 C68.4000015258789,-62.63999938964844 72.23999786376953,-13.201000213623047 68.80000305175781,16.31999969482422 C66.63999938964844,34.638999938964844 65.68000030517578,51.439998626708984 48.880001068115234,48.959999084472656 C44.79999923706055,48.31999969482422 35.279998779296875,40.400001525878906 33.599998474121094,9.920000076293945 C31.84000015258789,-22.399999618530273 38.560001373291016,-65.12000274658203 33.84000015258789,-68.32099914550781 C29.1200008392334,-71.5999984741211 28.8799991607666,-15.520000457763672 5.519999980926514,19.600000381469727 C-3.2799999713897705,32.79899978637695 -18.079999923706055,34.2400016784668 -20.399999618530273,-0.5600000023841858 C-22.959999084472656,-38.400001525878906 -3.359999895095825,-83.20099639892578 -6.159999847412109,-87.04000091552734 C-6.159999847412109,-87.04000091552734 -22.719999313354492,-66.63999938964844 -32.31999969482422,-37.7599983215332 C-41.91999816894531,-8.880000114440918 -46.15999984741211,4.718999862670898 -57.439998626708984,-3.5999999046325684 C-77.68000030517578,-18.479999542236328 -48,-77.76000213623047 -48,-77.76000213623047 C-48,-77.76000213623047 -69.76000213623047,-58.31999969482422 -79.19999694824219,-31.1200008392334 C-85.19999694824219,-13.84000015258789 -81.91999816894531,14.5600004196167 -66.55999755859375,21.759000778198242 C-48.47999954223633,30.239999771118164 -37.91999816894531,15.119999885559082 -37.91999816894531,15.119999885559082 C-37.91999816894531,15.119999885559082 -34.08000183105469,63.52000045776367 -10.479999542236328,62.47999954223633 C12.15999984741211,61.439998626708984 17.920000076293945,35.91999816894531 17.920000076293945,35.91999816894531 C17.920000076293945,35.91999816894531 16.959999084472656,60.560001373291016 39.84000015258789,77.44000244140625 C50.959999084472656,85.68000030517578 76.80000305175781,87.04000091552734 80,54.400001525878906 C85.19999694824219,1.440000057220459 68.4000015258789,-62.63999938964844 68.4000015258789,-62.63999938964844z"/></g><g opacity="1" transform="matrix(1,0,0,1,84.7300033569336,111.2509994506836)"><path fill="rgb(188,188,188)" fill-opacity="1" d=" M12.130000114440918,-41.09000015258789 C7.25,-42.290000915527344 -6.429999828338623,9.029999732971191 -29.440000534057617,5.7210001945495605 C-40.395999908447266,4.144999980926514 -31.760000228881836,-27.559999465942383 -34.31999969482422,-25.799999237060547 C-36.880001068115234,-24.040000915527344 -47.20000076293945,-6.679999828338623 -43.119998931884766,13.479999542236328 C-42,19.079999923706055 -36.31999969482422,25.719999313354492 -30.719999313354492,26.600000381469727 C-9.760000228881836,29.959999084472656 -0.5600000023841858,4.199999809265137 -0.5600000023841858,4.199999809265137 C-0.5600000023841858,4.199999809265137 -3.680000066757202,35 17.040000915527344,38.20000076293945 C42.08000183105469,42.040000915527344 47.20000076293945,2.5999999046325684 44.959999084472656,1.159999966621399 C42.720001220703125,-0.2800000011920929 34.63999938964844,25.959999084472656 16.799999237060547,14.760000228881836 C2.1600000858306885,5.480000019073486 17.010000228881836,-39.810001373291016 12.130000114440918,-41.09000015258789z"/></g></g></g></svg>