<svg xmlns="http://www.w3.org/2000/svg" viewBox="0 0 16 16" fill="none" aria-label="Tours" aria-hidden="false" width="18" height="18"><path d="M6.81244 11C6.82191 10.1321 6.82182 9.27705 6.81829 8.46045M6.81829 8.46045C6.80649 5.7307 6.75637 3.43093 6.89736 2.52135C7.08054 1.33969 8.9965 2.41496 11.2852 3.29921L12.3164 3.74364C13.0754 4.07075 14.1594 4.65176 13.6831 5.33042C13.4869 5.61 13.08 5.9298 12.3288 6.2835L6.81829 8.46045Z" stroke="currentColor" stroke-linecap="round" stroke-linejoin="round"/><path d="M4.5 9.39301C2.69584 9.83726 1.5 10.6149 1.5 11.5C1.5 12.8807 4.41015 14 8 14C11.5899 14 14.5 12.8807 14.5 11.5C14.5 10.5101 13.0041 9.65454 10.8342 9.24954" stroke="currentColor" stroke-linecap="round" stroke-linejoin="round"/></svg>