<svg xmlns="http://www.w3.org/2000/svg" viewBox="0 0 16 16" fill="none" aria-hidden="true" width="16" height="16"><g><path d="M2.91856 9.40628L6.62606 5.55731C7.64363 4.50091 9.07575 4.22943 10.2691 5.3789C11.4624 6.52837 11.2447 7.96965 10.2272 9.02605L6.51965 12.875" stroke="currentColor" stroke-linecap="round" stroke-linejoin="round"/><path d="M1.11856 7.6724L5.68914 2.92743C6.03166 2.57184 7.80426 1.45233 9.57833 1.77273C10.5644 1.95359 11.5402 2.43784 12.3509 3.21874C14.3398 5.13452 14.5817 8.11007 12.8913 9.86491L8.60144 14.1797M8.03494 11.1797L4.53494 7.6724" stroke="currentColor" stroke-linecap="round" stroke-linejoin="round"/><path d="M3.88696 3.83798C3.96462 2.31951 3.54673 1.70823 3.15389 1.53564C2.92691 1.43591 2.67993 1.56222 2.47975 1.70832C2.10305 1.98323 1.89606 2.1878 1.65052 2.56552C1.5253 2.75816 1.44533 2.99769 1.54473 3.20478C1.87805 3.89924 3.20549 4.00037 3.88696 3.83798ZM3.88696 3.83798L11.8125 11.8599M11.8125 11.8599C11.7358 13.3784 12.1541 13.9895 12.547 14.1618C12.7741 14.2614 13.021 14.1349 13.2211 13.9887C13.5976 13.7135 13.8045 13.5089 14.0498 13.131C14.1748 12.9382 14.2547 12.6986 14.1552 12.4916C13.8214 11.7974 12.4939 11.6971 11.8125 11.8599Z" stroke="currentColor" stroke-linecap="round" stroke-linejoin="round"/></g></svg>