<svg xmlns="http://www.w3.org/2000/svg" viewBox="0 0 16 16" fill="none" aria-hidden="true" width="16" height="16"><path d="M1.33398 8.00065C1.33398 5.32936 1.33398 3.99371 2.11503 3.16385C2.89608 2.33398 4.15316 2.33398 6.66732 2.33398H9.33398C11.8481 2.33398 13.1053 2.33398 13.8863 3.16385C14.6673 3.99371 14.6673 5.32936 14.6673 8.00065C14.6673 10.6719 14.6673 12.0076 13.8863 12.8375C13.1053 13.6673 11.8481 13.6673 9.33398 13.6673H6.66732C4.15316 13.6673 2.89608 13.6673 2.11503 12.8375C1.33398 12.0076 1.33398 10.6719 1.33398 8.00065Z" stroke="currentColor"/><path d="M2 5.02775C2.79895 5.02775 6.68966 4.90941 7.45532 5.16148C7.86155 5.29522 8.21162 5.55374 8.91178 6.07078L10.1423 6.97948C10.1557 6.9894 10.1625 6.99437 10.1688 6.99914C10.5824 7.31068 10.8277 7.79675 10.8326 8.31452C10.8327 8.32245 10.8327 8.33079 10.8327 8.34752C10.8327 8.36012 10.8327 8.36642 10.8326 8.37175C10.8268 8.73159 10.5365 9.02192 10.1767 9.02765C10.1713 9.02775 10.165 9.02775 10.1524 9.02775H1.5" stroke="currentColor" stroke-linecap="round"/><path d="M6.83398 6.36133H9.16732" stroke="currentColor" stroke-linecap="round"/><path d="M5 6.36133H5.33333" stroke="currentColor" stroke-linecap="round"/><path d="M3.10001 6.36133H3.43334" stroke="currentColor" stroke-linecap="round"/><path d="M2 10.7988H10.5" stroke="currentColor" stroke-linecap="round"/></svg>