<svg xmlns="http://www.w3.org/2000/svg" viewBox="0 0 14 16" fill="none" aria-hidden="true" width="16" height="16"><path d="M13 7.45618V5.52084C13 4.42751 13 3.88084 12.7306 3.52418C12.4612 3.16751 11.8521 2.99436 10.6338 2.64805C9.80147 2.41145 9.06773 2.1264 8.48153 1.86618C7.68227 1.51138 7.28267 1.33398 7 1.33398C6.71733 1.33398 6.31773 1.51138 5.51847 1.86618C4.93226 2.1264 4.19856 2.41144 3.36622 2.64805C2.14795 2.99436 1.53881 3.16751 1.26941 3.52418C1 3.88084 1 4.42751 1 5.52084V7.45618C1 11.2063 4.37518 13.4563 6.06267 14.3469C6.4674 14.5605 6.66973 14.6673 7 14.6673C7.33027 14.6673 7.5326 14.5605 7.93733 14.3469C9.6248 13.4563 13 11.2063 13 7.45618Z" stroke="currentColor" stroke-linecap="round"/><path d="M8.0389 5.01013C8.3477 4.76063 8.69356 4.74548 9.07146 4.75078C9.26693 4.75352 9.36466 4.75489 9.44306 4.78529C9.56746 4.83353 9.66646 4.93255 9.7147 5.05694C9.7451 5.13534 9.74646 5.23307 9.74923 5.42852C9.75453 5.80642 9.73936 6.15229 9.48986 6.46109C9.27976 6.72112 8.91863 6.857 8.74486 7.14403C8.6122 7.36317 8.674 7.5901 8.731 7.82363L9.1576 9.57206C9.24263 9.9205 9.17793 10.1438 8.9343 10.3875C8.80466 10.5171 8.69683 10.5105 8.5917 10.343L7.30423 8.29163L6.68936 8.78036C6.46643 8.9576 6.35497 9.0462 6.2964 9.1709C6.1592 9.46293 6.2463 9.90156 6.25073 10.2182C6.2532 10.3932 6.10197 10.7381 5.88797 10.7498C5.75585 10.757 5.71094 10.5989 5.66827 10.5019L5.25745 9.56813C5.1592 9.34483 5.15517 9.3408 4.93185 9.24256L3.99805 8.83173C3.90106 8.78906 3.74305 8.74413 3.75024 8.61203C3.76188 8.39803 4.10679 8.2468 4.28179 8.24926C4.59844 8.2537 5.03707 8.3408 5.32911 8.2036C5.45381 8.14503 5.54241 8.03356 5.71963 7.81063L6.20836 7.19577L4.15701 5.9083C3.98948 5.80315 3.98291 5.69532 4.11252 5.56572C4.35617 5.32207 4.5795 5.25738 4.92792 5.34239L6.67636 5.76901C6.9099 5.82599 7.13683 5.88781 7.35596 5.75513C7.643 5.58137 7.77886 5.22025 8.0389 5.01013Z" fill="currentColor"/></svg>