<svg xmlns="http://www.w3.org/2000/svg" viewBox="0 0 16 16" fill="none" aria-label="Aerial Sightseeing" aria-hidden="false" width="18" height="18"><rect x="3" y="1" width="10" height="14" rx="5" stroke="currentColor"/><path d="M4.3 12.5H6.65001C7.39561 12.5 8.00001 11.8956 8.00001 11.15C8.00001 10.4044 7.38887 9.80002 6.64327 9.80002C6.72647 8.87707 5.98661 8 5.00001 8C4.33445 8 3.76088 8.39409 3.5 8.96166" stroke="currentColor" stroke-linecap="round" stroke-linejoin="round"/><path d="M12.3 7.9H9.5C8.6716 7.9 8 7.22843 8 6.4C8 5.6201 8.5952 4.97922 9.35613 4.90681C9.42867 4.06259 10.137 3.4 11 3.4C11.3042 3.4 11.5849 3.48336 11.8252 3.62572" stroke="currentColor" stroke-linecap="round" stroke-linejoin="round"/></svg>