<svg xmlns="http://www.w3.org/2000/svg" viewBox="0 0 16 16" fill="none" aria-hidden="true" width="16" height="16"><path d="M4.85595 6.47321L4.57365 5.92477C4.46114 5.70619 4.40488 5.59689 4.32061 5.51781C4.25133 5.45281 4.16883 5.40295 4.07853 5.37154C3.96871 5.33333 3.84407 5.33333 3.59482 5.33333C3.22842 5.33333 3.04522 5.33333 2.90223 5.40344C2.78527 5.46077 2.68767 5.5501 2.62114 5.66067C2.5398 5.79585 2.52675 5.97545 2.50065 6.33463L2.05081 12.5242C1.97787 13.5278 1.9414 14.0296 2.24319 14.3481C2.54498 14.6667 3.05685 14.6667 4.0806 14.6667H11.9194C12.9431 14.6667 13.455 14.6667 13.7568 14.3481C14.0586 14.0296 14.0221 13.5278 13.9492 12.5242L13.4993 6.33463C13.4733 5.97545 13.4602 5.79585 13.3789 5.66067C13.3123 5.5501 13.2147 5.46077 13.0978 5.40344C12.9548 5.33333 12.7716 5.33333 12.4052 5.33333C12.1559 5.33333 12.0313 5.33333 11.9215 5.37154C11.8312 5.40295 11.7487 5.45281 11.6794 5.51781C11.5951 5.59689 11.5389 5.70618 11.4263 5.92478L11.1441 6.47321C11.0639 6.62896 11.0238 6.7068 10.9698 6.76847C10.878 6.87313 10.7554 6.94727 10.6189 6.98047C10.5386 7 10.4498 7 10.2722 7C10.0737 7 9.97453 7 9.8868 6.97647C9.73753 6.9364 9.60673 6.8474 9.51607 6.72427C9.46273 6.65188 9.42773 6.56061 9.3578 6.37807L9.27687 6.16667C9.1282 5.77869 9.05393 5.58469 8.89747 5.46837C8.8822 5.45701 8.86647 5.44628 8.85027 5.43623C8.68433 5.33333 8.47347 5.33333 8.0516 5.33333H7.9484C7.52653 5.33333 7.31567 5.33333 7.1498 5.43623C7.13353 5.44628 7.1178 5.45701 7.10253 5.46837C6.94607 5.58469 6.8718 5.77869 6.72313 6.16667L6.64218 6.37807C6.57225 6.56061 6.53729 6.65188 6.48395 6.72427C6.39324 6.8474 6.26243 6.9364 6.11322 6.97647C6.02547 7 5.92625 7 5.72779 7C5.55019 7 5.46139 7 5.38108 6.98047C5.24459 6.94727 5.12197 6.87313 5.0302 6.76847C4.9762 6.7068 4.93612 6.62896 4.85595 6.47321Z" stroke="currentColor" stroke-linecap="round" stroke-linejoin="round"/><path d="M8 3.33333C8.994 3.78903 10.6667 3 10.6667 1.33333C9.57187 1.74859 9.007 1.74283 8 1.33333V3.33333ZM8 3.33333V5.33333" stroke="currentColor" stroke-linecap="round" stroke-linejoin="round"/><path d="M6 14.6667L6.40518 12.6407C6.50088 12.1623 6.54873 11.923 6.677 11.7461C6.99567 11.3068 7.50747 11.3333 8 11.3333C8.49253 11.3333 9.00433 11.3068 9.323 11.7461C9.45127 11.923 9.49913 12.1623 9.5948 12.6407L10 14.6667" stroke="currentColor" stroke-linecap="round" stroke-linejoin="round"/><path d="M7.33333 9.33333H8.66666" stroke="currentColor" stroke-linecap="round" stroke-linejoin="round"/></svg>