<svg xmlns="http://www.w3.org/2000/svg" viewBox="0 0 14 14" fill="none" aria-label="Cruises" aria-hidden="false" width="18" height="18"><path d="M13.0273 12.7474C12.5981 13.4057 12.0432 13.4057 11.6036 12.7474C10.1899 10.5849 8.84346 14.3028 7.84538 12.7717C6.32331 10.4776 5.22855 14.4565 4.08719 12.7474C2.59883 10.4705 1.67162 14.2409 0.500011 12.9923" stroke="currentColor" stroke-linecap="round"/><path d="M1.48482 10.5L0.546858 7.04289C0.377063 6.54913 0.689682 6.01208 1.14686 6.01208H9.58166L10.5197 5.22852H12.8701C14.808 5.22852 10.5197 10.5 10.5197 10.5" stroke="currentColor" stroke-linecap="round" stroke-linejoin="round"/><path d="M10.5223 5.22777L9.81294 3.45434C9.67393 3.1068 9.33738 2.87891 8.96306 2.87891C8.35019 2.87891 7.42009 2.87891 6.82481 2.87891H3.63232C2.76749 2.87891 2.06641 3.38368 2.06641 4.00636V5.69754" stroke="currentColor" stroke-linecap="round" stroke-linejoin="round"/><path d="M4.57031 2.87909V1" stroke="currentColor" stroke-linecap="round" stroke-linejoin="round"/><path d="M7.70312 2.87909V1" stroke="currentColor" stroke-linecap="round" stroke-linejoin="round"/><circle cx="3.59308" cy="8.16534" r="0.587216" fill="currentColor"/><circle cx="5.47198" cy="8.16534" r="0.587216" fill="currentColor"/><circle cx="7.34893" cy="8.16534" r="0.587216" fill="currentColor"/></svg>