<svg xmlns="http://www.w3.org/2000/svg" viewBox="0 0 16 14" fill="none" aria-hidden="true" width="16" height="16"><path d="M1.33334 9.25456V6.25456C1.33334 4.69084 1.33334 3.90899 1.74664 3.37037C1.85304 3.23171 1.97716 3.10759 2.11582 3.00119C2.52002 2.69104 3.0612 2.61364 3.96698 2.59432C4.60774 2.58065 5.20177 2.25163 5.53151 1.70207C5.76082 1.31988 5.96038 0.886336 6.55003 0.691716C7.32449 0.436095 8.67554 0.436095 9.45 0.691716C10.0397 0.886336 10.2392 1.31988 10.4685 1.70207C10.7983 2.25163 11.3923 2.58065 12.033 2.59432C12.9388 2.61364 13.48 2.69104 13.8842 3.00119C14.0229 3.10759 14.147 3.23171 14.2534 3.37037C14.6667 3.90899 14.6667 4.69084 14.6667 6.25456V9.25456C14.6667 11.1402 14.6667 12.083 14.0809 12.6688C13.4951 13.2546 12.5523 13.2546 10.6667 13.2546H5.33334C3.44773 13.2546 2.50492 13.2546 1.91913 12.6688C1.33334 12.083 1.33334 11.1402 1.33334 9.25456Z" stroke="currentColor" stroke-linecap="round" stroke-linejoin="round"/><path d="M10.3333 7.92122C10.3333 9.20989 9.28865 10.2546 7.99999 10.2546C6.71133 10.2546 5.66666 9.20989 5.66666 7.92122C5.66666 6.63256 6.71133 5.58789 7.99999 5.58789C9.28865 5.58789 10.3333 6.63256 10.3333 7.92122Z" stroke="currentColor"/></svg>