<svg xmlns="http://www.w3.org/2000/svg" viewBox="0 0 16 16" fill="none" aria-hidden="true" width="16" height="16"><g><path d="M8 14.6667C11.6819 14.6667 14.6667 11.6819 14.6667 8C14.6667 4.3181 11.6819 1.33333 8 1.33333C4.3181 1.33333 1.33334 4.3181 1.33334 8C1.33334 11.6819 4.3181 14.6667 8 14.6667Z" stroke="currentColor" stroke-linecap="round" stroke-linejoin="round"/><path d="M9.33334 3.82527C9.33334 3.82527 8.58994 4.15872 8.0678 3.90434C7.43094 3.59412 6.7994 2.29746 8.06094 1.33333" stroke="currentColor" stroke-linecap="round" stroke-linejoin="round"/><path d="M5.33996 7H5.33398M10.6673 7H10.6613" stroke="currentColor" stroke-width="1.5" stroke-linecap="round" stroke-linejoin="round"/><path d="M5.33334 10C5.94142 10.8096 6.90954 11.3333 8 11.3333C9.09047 11.3333 10.0586 10.8096 10.6667 10" stroke="currentColor" stroke-linecap="round" stroke-linejoin="round"/></g></svg>