<svg xmlns="http://www.w3.org/2000/svg" viewBox="0 0 14 12" fill="none" aria-hidden="true" width="16" height="16"><path d="M5.36914 8.19922V10.9492" stroke="currentColor" stroke-linecap="round"/><path d="M13.7396 9.29677L13.7356 8.79679L12.7356 8.8048L12.7396 9.30479L13.7396 9.29677ZM11.9069 9.64949C11.7957 9.39671 11.5007 9.28192 11.2479 9.39309C10.9952 9.50426 10.8804 9.7993 10.9915 10.0521L11.9069 9.64949ZM12.7396 9.30479C12.7428 9.69912 12.5359 9.87688 12.3755 9.92319C12.2257 9.96648 12.029 9.927 11.9069 9.64949L10.9915 10.0521C11.3129 10.7827 12.0162 11.0679 12.653 10.8839C13.2794 10.703 13.746 10.1017 13.7396 9.29677L12.7396 9.30479Z" fill="currentColor"/><path d="M11.1996 3.24922C11.1996 3.55298 10.9534 3.79922 10.6496 3.79922C10.3459 3.79922 10.0996 3.55298 10.0996 3.24922C10.0996 2.94546 10.3459 2.69922 10.6496 2.69922C10.9534 2.69922 11.1996 2.94546 11.1996 3.24922Z" fill="currentColor"/><path d="M4.05 3.25H7.30459C7.32967 3.25 7.35 3.27033 7.35 3.29541V3.83784C7.35 5.33573 8.56427 6.55 10.0622 6.55C10.0831 6.55 10.1 6.56694 10.1 6.58784V9.025C10.1 10.3919 8.99191 11.5 7.625 11.5H5.425H2.95C1.73497 11.5 0.75 10.515 0.75 9.3V6.55C0.75 4.72746 2.22746 3.25 4.05 3.25Z" stroke="currentColor"/><path d="M7.34961 3.41667V3.41667C7.34961 1.80584 8.66873 0.5 10.2796 0.5V0.5C11.9051 0.5 13.2363 1.81779 13.2363 3.44336V5.45V9.3" stroke="currentColor"/></svg>