<svg xmlns="http://www.w3.org/2000/svg" viewBox="0 0 14 14" fill="none" aria-hidden="true" width="16" height="16"><path d="M4.11133 3.38867V13.4998" stroke="currentColor" stroke-linecap="round" stroke-linejoin="round"/><path d="M7 11.334V13.5007" stroke="currentColor" stroke-linecap="round" stroke-linejoin="round"/><path d="M0.5 13.5H9.16667" stroke="currentColor" stroke-linecap="round" stroke-linejoin="round"/><path d="M1.2207 7.7207V8.41375C1.2207 9.02446 1.2207 9.32981 1.36593 9.58129C1.51115 9.8327 1.77565 9.9853 2.30464 10.2905L4.10959 11.3318" stroke="currentColor" stroke-linecap="round" stroke-linejoin="round"/><path d="M7.00022 4.83398V6.97147C7.00022 7.58218 7.00022 7.88754 6.85498 8.13902C6.70974 8.39042 6.44526 8.54303 5.91631 8.84824L4.11133 9.88954" stroke="currentColor" stroke-linecap="round" stroke-linejoin="round"/><path d="M11.3327 4.83333C12.5293 4.83333 13.4993 3.86328 13.4993 2.66667C13.4993 1.47005 12.5293 0.5 11.3327 0.5C10.1361 0.5 9.16602 1.47005 9.16602 2.66667C9.16602 3.86328 10.1361 4.83333 11.3327 4.83333Z" stroke="currentColor" stroke-linecap="round" stroke-linejoin="round"/></svg>