<svg xmlns="http://www.w3.org/2000/svg" viewBox="0 0 10 14" fill="none" aria-hidden="true" width="16" height="16"><path d="M7.90021 2.30402C7.90021 2.90232 7.41518 3.38733 6.8169 3.38733C6.21862 3.38733 5.73358 2.90232 5.73358 2.30402C5.73358 1.70572 6.21862 1.2207 6.8169 1.2207C7.41518 1.2207 7.90021 1.70572 7.90021 2.30402Z" stroke="currentColor"/><path d="M6.71631 9.16652L7.39786 8.7722C8.17402 8.3232 8.56207 8.09866 8.6145 7.77872C8.62273 7.72875 8.62482 7.67812 8.62085 7.62778C8.5955 7.30531 8.22732 7.05687 7.49103 6.55985L4.09158 4.26531C2.75642 3.36412 2.44923 1.72136 3.38748 0.5" stroke="currentColor" stroke-linecap="round" stroke-linejoin="round"/><path d="M4.09048 4.26531C2.28494 6.07084 1.3996 11.0677 1.3996 13.5M4.09048 4.26531C2.75532 3.36412 2.44813 1.72136 3.38638 0.5M4.09048 4.26531L6.00188 5.55547M6.00188 5.55547L7.48992 6.55985C8.22622 7.05687 8.5944 7.30531 8.61975 7.62778C8.62372 7.67812 8.62163 7.72875 8.61339 7.77872C8.56096 8.09866 8.17292 8.3232 7.39676 8.7722L6.71521 9.16652M6.00188 5.55547C5.42209 6.30592 5.02249 7.01484 4.72364 7.64569C4.40659 8.31497 4.24807 8.64964 4.27724 9.03161M7.17742 13.5C6.47442 12.6799 5.75142 11.5498 5.0469 10.5082C4.5532 9.77852 4.30642 9.41366 4.27724 9.03161M4.27724 9.03161L2.12181 8.44431" stroke="currentColor" stroke-linecap="round" stroke-linejoin="round"/></svg>