<svg xmlns="http://www.w3.org/2000/svg" viewBox="0 0 16 16" fill="none" aria-label="Food &amp; Drink" aria-hidden="false" width="18" height="18"><path d="M9.99999 6.66666L2.66666 14.0007" stroke="currentColor" stroke-linecap="round" stroke-linejoin="round"/><path d="M11.9999 2.00064L9.99992 4.00064C9.63646 4.36414 9.45472 4.54589 9.35752 4.74195C9.17266 5.11499 9.17266 5.55295 9.35752 5.92599C9.45472 6.12205 9.63646 6.30381 9.99992 6.66732C10.3635 7.03079 10.5452 7.21259 10.7413 7.30972C11.1143 7.49459 11.5523 7.49459 11.9253 7.30972C12.1214 7.21259 12.3031 7.03079 12.6666 6.66732L14.6666 4.66731" stroke="currentColor" stroke-linecap="round" stroke-linejoin="round"/><path d="M13.3333 3.33267L11.3333 5.33267" stroke="currentColor" stroke-linecap="round" stroke-linejoin="round"/><path d="M5.8965 6.5638C4.98646 7.47386 3.73848 7.70132 2.60098 6.5638C1.46344 5.42625 0.867065 3.35443 1.7771 2.4444C2.68714 1.53436 4.75895 2.13073 5.8965 3.26828C7.03401 4.40578 6.80654 5.65376 5.8965 6.5638ZM5.8965 6.5638L13.3333 14.0007" stroke="currentColor" stroke-linecap="round"/></svg>