<svg xmlns="http://www.w3.org/2000/svg" viewBox="0 0 12 14" fill="none" aria-hidden="true" width="16" height="16"><path d="M0.650391 4.5C0.650391 2.61438 0.650391 1.67157 1.27523 1.08579C1.90007 0.5 2.90573 0.5 4.91706 0.5H7.05039C9.0617 0.5 10.0674 0.5 10.6922 1.08579C11.3171 1.67157 11.3171 2.61438 11.3171 4.5C11.3171 6.3856 11.3171 7.32842 10.6922 7.91421C10.0674 8.5 9.0617 8.5 7.05039 8.5H4.91706C2.90573 8.5 1.90007 8.5 1.27523 7.91421C0.650391 7.32842 0.650391 6.3856 0.650391 4.5Z" stroke="currentColor"/><path d="M2.49927 5.49915C2.62557 5.01536 2.81879 4.52026 3.95578 4.32912C5.09277 4.13799 7.60102 5.79755 8.93123 5.11131C10.2614 4.42508 9.43644 3.17618 9.43644 3.17618" stroke="currentColor" stroke-linecap="round"/><path d="M2.5 10H9.5" stroke="currentColor" stroke-linecap="round" stroke-linejoin="round"/><path d="M8.625 10L9.5 13.5M3.375 10L2.5 13.5" stroke="currentColor" stroke-linecap="round" stroke-linejoin="round"/></svg>