<svg xmlns="http://www.w3.org/2000/svg" viewBox="0 0 16 15" fill="none" aria-hidden="true" width="16" height="16"><path d="M1.33334 9.66667V6.66667C1.33334 5.10295 1.33334 4.32109 1.74664 3.78248C1.85304 3.64382 1.97716 3.5197 2.11582 3.4133C2.52002 3.10315 3.0612 3.02575 3.96698 3.00643C4.60774 2.99276 5.20177 2.66374 5.53151 2.11418C5.76082 1.73199 5.96038 1.29845 6.55003 1.10383C7.32449 0.848204 8.67554 0.848204 9.45 1.10383C10.0397 1.29845 10.2392 1.73199 10.4685 2.11418C10.7983 2.66374 11.3923 2.99276 12.033 3.00643C12.9388 3.02575 13.48 3.10315 13.8842 3.4133C14.0229 3.5197 14.147 3.64382 14.2534 3.78248C14.6667 4.32109 14.6667 5.10295 14.6667 6.66667V9.66667C14.6667 11.5523 14.6667 12.4951 14.0809 13.0809C13.4951 13.6667 12.5523 13.6667 10.6667 13.6667H5.33334C3.44773 13.6667 2.50492 13.6667 1.91913 13.0809C1.33334 12.4951 1.33334 11.5523 1.33334 9.66667Z" stroke="currentColor" stroke-linecap="round" stroke-linejoin="round"/><path d="M10.3333 8.33333C10.3333 9.622 9.28867 10.6667 8.00001 10.6667C6.71134 10.6667 5.66667 9.622 5.66667 8.33333C5.66667 7.04467 6.71134 6 8.00001 6C9.28867 6 10.3333 7.04467 10.3333 8.33333Z" stroke="currentColor"/></svg>